<svg width="30" height="21" viewBox="0 0 30 21" fill="none" xmlns="http://www.w3.org/2000/svg">
<path d="M15 1.02654C11.948 1.16341 9.50289 1.59113 7.66474 2.30971C5.82659 3.02828 4.90751 3.45601 4.90751 3.59288C6.15607 2.56634 7.47399 1.77933 8.86127 1.23184C10.2486 0.684358 11.0116 0.410615 11.1503 0.410615L10.7341 0C8.86127 0.136872 7.23121 0.581703 5.84393 1.3345C4.45665 2.08729 3.72832 2.53212 3.65896 2.66899C1.85549 6.70671 0.780347 10.1285 0.433526 12.9344C0.0867041 15.7402 -0.0520225 17.1774 0.0173408 17.2458C1.75144 19.162 3.45087 20.2912 5.11561 20.6334C6.78035 20.9756 7.68208 21.0782 7.82081 20.9413L9.3815 18.9909C7.99422 18.5803 6.90173 17.9986 6.10405 17.2458C5.30636 16.493 4.87283 16.0824 4.80347 16.014C4.87283 16.0824 5.82659 16.5272 7.66474 17.3485C9.50289 18.1697 11.948 18.6487 15 18.7856C18.052 18.6487 20.4971 18.1697 22.3353 17.3485C24.1734 16.5272 25.1272 16.0824 25.1965 16.014C25.1272 16.0824 24.6936 16.493 23.896 17.2458C23.0983 17.9986 22.0058 18.5803 20.6185 18.9909L22.1792 20.9413C22.3179 21.0782 23.2197 20.9756 24.8844 20.6334C26.5491 20.2912 28.2486 19.162 29.9827 17.2458C30.052 17.1774 29.9133 15.7402 29.5665 12.9344C29.2197 10.1285 28.1445 6.70671 26.341 2.66899C26.2717 2.53212 25.5434 2.08729 24.1561 1.3345C22.7688 0.581703 21.1387 0.136872 19.2659 0L18.8497 0.410615C18.9884 0.410615 19.7514 0.684358 21.1387 1.23184C22.526 1.77933 23.8439 2.56634 25.0925 3.59288C25.0925 3.45601 24.1734 3.02828 22.3353 2.30971C20.4971 1.59113 18.052 1.16341 15 1.02654ZM10.422 9.34148C11.185 9.34148 11.8092 9.61522 12.2948 10.1627C12.7803 10.7102 13.0231 11.3603 13.0231 12.1131C13.0231 12.8659 12.7803 13.5161 12.2948 14.0635C11.8092 14.611 11.185 14.8848 10.422 14.8848C9.65896 14.8848 9.03468 14.611 8.54913 14.0635C8.06358 13.5161 7.82081 12.8659 7.82081 12.1131C7.82081 11.3603 8.06358 10.7102 8.54913 10.1627C9.03468 9.61522 9.65896 9.34148 10.422 9.34148ZM19.6821 9.34148C20.3757 9.34148 20.9827 9.61522 21.5029 10.1627C22.0231 10.7102 22.2832 11.3603 22.2832 12.1131C22.2832 12.8659 22.0231 13.5161 21.5029 14.0635C20.9827 14.611 20.3584 14.8848 19.6301 14.8848C18.9017 14.8848 18.2948 14.611 17.8092 14.0635C17.3237 13.5161 17.0809 12.8659 17.0809 12.1131C17.0809 11.3603 17.3237 10.7102 17.8092 10.1627C18.2948 9.61522 18.9191 9.34148 19.6821 9.34148Z" fill="url(#paint0_linear)"/>
<defs>
<linearGradient id="paint0_linear" x1="14.998" y1="8.97658e-08" x2="14.998" y2="21" gradientUnits="userSpaceOnUse">
<stop stop-color="#A5AFFB"/>
<stop offset="1" stop-color="#6979F8"/>
</linearGradient>
</defs>
</svg>
