<svg width="660" height="350" viewBox="0 0 660 350" fill="none" xmlns="http://www.w3.org/2000/svg">
<g clip-path="url(#clip0)">
<path d="M60 0H660V350H60V0Z" fill="#F6F4FA"/>
<path d="M60 0H660V350H60V0Z" fill="#EEEBF3"/>
<path d="M0 0H60V350H0V0Z" fill="url(#paint0_linear)"/>
<circle cx="13" cy="13" r="5" fill="#D0CDD8"/>
<circle cx="30" cy="13" r="5" fill="#D0CDD8"/>
<circle cx="47" cy="13" r="5" fill="#D0CDD8"/>
<circle cx="30" cy="74" r="16" fill="#D0CDD8"/>
<circle cx="30" cy="122" r="16" fill="#D0CDD8"/>
<circle cx="30" cy="170" r="16" fill="#D0CDD8"/>
<circle cx="30" cy="310" r="16" fill="#D0CDD8"/>
<path d="M60 24H660V350H60V24Z" fill="#F6F4FA"/>
<g filter="url(#filter0_ddd)">
<rect x="391" y="82" width="114" height="106" rx="8" fill="white"/>
</g>
<circle cx="448" cy="135" r="32" fill="url(#paint1_linear)" style="mix-blend-mode:multiply"/>
<path d="M452.556 121.91L442.046 137.498L441.398 138.515C441.398 138.515 441.398 138.515 441.352 138.515C439.454 138.007 437.556 139.163 437 141.013L436.861 141.568L432 140.227L439.176 114L444.037 115.341L443.898 115.896C443.667 116.822 443.759 117.793 444.222 118.579C444.685 119.412 445.472 120.013 446.398 120.244C447.324 120.476 448.25 120.383 449.083 119.921C449.917 119.458 450.519 118.672 450.75 117.793L450.889 117.238L455.75 118.579L454.454 123.344L452.556 121.91Z" fill="white" fill-opacity="0.5"/>
<path fill-rule="evenodd" clip-rule="evenodd" d="M451.954 156L467 133.288L462.88 130.513L462.556 130.976C462.046 131.762 461.213 132.317 460.287 132.502C459.315 132.687 458.389 132.502 457.602 131.993C456.815 131.484 456.259 130.652 456.074 129.727C455.889 128.802 456.074 127.83 456.583 127.044L456.815 126.581L454.685 125.147L454.361 124.916L453.667 124.454L452.602 123.76L449.732 128.108L437.556 146.471L441.769 149.247L442.093 148.784C442.602 147.998 443.435 147.443 444.361 147.258C445.287 147.073 446.259 147.258 447.046 147.766C447.833 148.275 448.389 149.108 448.574 150.033C448.759 150.958 448.574 151.929 448.065 152.716L447.741 153.225L451.954 156ZM454.732 138.33L455.333 135.879C455.472 135.37 454.87 135 454.454 135.324L452.556 136.943C452.37 137.082 452.139 137.128 451.954 136.989L449.824 135.647C449.407 135.37 448.898 135.833 449.083 136.295L450.009 138.608C450.102 138.839 450.056 139.071 449.87 139.209L447.972 140.828C447.762 141.012 447.746 141.301 447.865 141.508C447.955 141.664 448.123 141.773 448.343 141.753L450.889 141.615C451.12 141.615 451.306 141.707 451.398 141.938L452.324 144.251C452.509 144.714 453.157 144.667 453.296 144.158L453.898 141.8C453.92 141.688 453.975 141.588 454.051 141.514C454.133 141.433 454.241 141.383 454.361 141.383L456.861 141.198C457.37 141.152 457.509 140.504 457.093 140.227L454.963 138.885C454.778 138.793 454.685 138.562 454.732 138.33Z" fill="url(#paint2_linear)"/>
<g filter="url(#filter1_ddd)">
<path d="M60 24H236V350H60V24Z" fill="url(#paint3_linear)"/>
</g>
<rect x="150" y="317" width="70" height="20" rx="4" fill="url(#paint4_linear)"/>
<path d="M166 327C166 325.343 167.343 324 169 324H201C202.657 324 204 325.343 204 327V327C204 328.657 202.657 330 201 330H169C167.343 330 166 328.657 166 327V327Z" fill="white"/>
<rect x="77" y="318" width="68" height="18" rx="3" stroke="url(#paint5_linear)" stroke-width="2"/>
<path d="M92 327C92 325.343 93.3431 324 95 324H127C128.657 324 130 325.343 130 327V327C130 328.657 128.657 330 127 330H95C93.3431 330 92 328.657 92 327V327Z" fill="url(#paint6_linear)"/>
<path d="M208.713 199.4C175.313 180.1 121.013 180.1 87.8129 199.4C54.6129 218.7 54.7129 250.1 88.2129 269.5C121.613 288.8 175.913 288.8 209.113 269.5C242.413 250.2 242.213 218.8 208.713 199.4ZM96.0129 265C66.9129 248.2 66.7129 220.8 95.7129 204C124.713 187.2 171.913 187.2 201.013 204C230.113 220.8 230.313 248.2 201.313 265C172.313 281.8 125.113 281.8 96.0129 265Z" fill="url(#paint7_linear)"/>
<path d="M113.513 234.7C132.813 268.1 164.213 268.3 183.613 235.1C202.913 201.9 202.913 147.6 183.613 114.2C164.213 80.7999 132.813 80.5999 113.513 113.8C94.1129 147 94.1129 201.3 113.513 234.7ZM179.013 122C195.813 151.1 195.813 198.4 179.013 227.3C162.213 256.2 134.813 256.1 118.013 227C101.213 197.9 101.213 150.6 118.013 121.7C134.813 92.7999 162.213 92.8999 179.013 122Z" fill="url(#paint8_linear)"/>
<path d="M212.213 198.4V202.6L172.213 225.7V221.5L212.213 198.4Z" fill="#E6EDF7"/>
<path d="M212.213 198.4L156.213 166V119.9L212.213 152.2V198.4Z" fill="white"/>
<path d="M212.213 198.4L172.213 221.5L116.213 189.1L156.213 166L212.213 198.4Z" fill="white"/>
<path d="M212.213 198.4V152.2L215.913 150.1V192.1C215.813 194.6 214.413 197.1 212.213 198.4Z" fill="#E6EDF7"/>
<path d="M116.213 189.1V193.3L172.213 225.7V221.5L116.213 189.1Z" fill="#E6EDF7"/>
<path d="M159.913 117.7L156.213 119.8L212.213 152.2L215.913 150L159.913 117.7Z" fill="#E6EDF7"/>
<path d="M208.213 154.5V186.9L160.413 159.3V126.6L208.213 154.5Z" fill="url(#paint9_linear)"/>
<path d="M204.213 198.4L180.213 212.3L132.213 184.4L156.213 170.8L204.213 198.4Z" fill="#D9E3EF"/>
<path d="M72.813 147.2V150.7L106.113 170V166.4L72.813 147.2Z" fill="#E6EDF7"/>
<path d="M72.813 147.2L119.513 120.3V81.8L72.813 108.7V147.2Z" fill="white"/>
<path d="M72.813 147.2L106.113 166.4L152.813 139.5L119.513 120.3L72.813 147.2Z" fill="white"/>
<path d="M72.8129 147.2V108.7L69.7129 106.9V141.9C69.8129 144.1 70.9129 146.1 72.8129 147.2Z" fill="#E6EDF7"/>
<path d="M152.813 139.5V143L106.113 170V166.4L152.813 139.5Z" fill="#E6EDF7"/>
<path d="M116.413 80L119.513 81.7L72.8129 108.7L69.7129 106.9L116.413 80Z" fill="#E6EDF7"/>
<path d="M76.1128 110.6V137.6L115.913 114.6V87.3999L76.1128 110.6Z" fill="url(#paint10_linear)"/>
<path d="M79.5127 147.2L99.5127 158.8L139.413 135.6L119.513 124.2L79.5127 147.2Z" fill="#D9E3EF"/>
<path d="M181.913 167.8C181.113 167.3 180.313 167.5 180.113 168.4L176.613 185.9C176.413 186.8 175.613 187 174.813 186.5C174.313 186.2 173.813 185.6 173.413 184.9L173.313 184.7C173.013 184 172.413 183.4 171.913 183.1C171.813 183 171.613 183 171.513 182.9L170.513 182.6C170.413 182.6 170.213 182.5 170.113 182.4C169.713 182.1 169.213 181.7 168.913 181.2L159.713 166.3C159.413 165.7 158.913 165.3 158.513 165.1C157.813 164.7 157.213 164.8 156.913 165.3L149.013 180.3L189.213 203.4L183.613 170.5C183.413 169.2 182.713 168.2 181.913 167.8Z" fill="#646EF6"/>
<path d="M171.513 182C171.013 181.7 170.413 181.6 170.013 181.8L161.513 185.8C161.113 186 160.513 185.9 160.013 185.6C159.813 185.5 159.713 185.4 159.513 185.3C159.313 185.2 159.213 185 159.013 184.9C158.113 184.4 157.313 184.5 156.913 185.3L156.813 185.4C156.413 186.2 155.613 186.2 154.713 185.8C153.813 185.3 152.913 184.2 152.513 182.8L150.513 175C150.113 173.6 149.213 172.5 148.313 172C147.413 171.5 146.513 171.5 146.213 172.4L141.013 184.7L181.213 208L173.613 184.8C173.213 183.6 172.313 182.5 171.513 182Z" fill="url(#paint11_linear)" style="mix-blend-mode:multiply"/>
<path d="M191.013 254.8C193.913 256.4 193.913 259.2 191.013 260.8L137.413 291.8C134.513 293.4 129.913 293.4 127.013 291.8L97.4128 274.7C94.5128 273 94.5128 270.3 97.4128 268.7L151.013 237.7C153.913 236.1 158.513 236.1 161.413 237.7L191.013 254.8Z" fill="#E6EDF7"/>
<path d="M193.113 253.7H185.313V257.9H193.113V253.7Z" fill="#E6EDF7"/>
<path d="M98.8129 267.3H95.2129V271.8H98.8129V267.3Z" fill="#E6EDF7"/>
<path d="M191.013 250.8C193.913 252.4 193.913 255.2 191.013 256.8L137.413 287.8C134.513 289.5 129.913 289.5 127.013 287.8L97.4128 270.7C94.5128 269.1 94.5128 266.4 97.4128 264.7L151.013 233.7C153.913 232 158.513 232 161.413 233.7L191.013 250.8Z" fill="white"/>
<path d="M188.413 253.2C189.413 253.8 189.413 254.6 188.413 255.2L139.213 283.5C138.213 284 136.713 284 135.713 283.5L104.513 265.5C103.513 264.9 103.513 264.1 104.513 263.5L153.713 235.2C154.713 234.7 156.213 234.7 157.213 235.2L188.413 253.2Z" fill="url(#paint12_linear)"/>
<path d="M156.213 267.6V230.6L116.213 207.5L116.313 244.4L156.213 267.6Z" fill="url(#paint13_linear)"/>
<path d="M148.213 235.3L124.213 221.5" stroke="#A4CF36" stroke-width="4" stroke-miterlimit="10" stroke-linecap="round" stroke-linejoin="round"/>
<path d="M148.213 244.3L124.213 230.5" stroke="#A4CF36" stroke-width="4" stroke-miterlimit="10" stroke-linecap="round" stroke-linejoin="round"/>
<path d="M148.213 253.8L124.213 239.9" stroke="#A4CF36" stroke-width="4" stroke-miterlimit="10" stroke-linecap="round" stroke-linejoin="round"/>
<path d="M140.213 276.9V239.9L100.213 216.8L100.313 253.7L140.213 276.9Z" fill="url(#paint14_linear)"/>
<path d="M132.213 263.3V244.6" stroke="#A4CF36" stroke-width="4" stroke-miterlimit="10" stroke-linecap="round" stroke-linejoin="round"/>
<path d="M124.213 258.3V251.5" stroke="#A4CF36" stroke-width="4" stroke-miterlimit="10" stroke-linecap="round" stroke-linejoin="round"/>
<path d="M116.213 253.9V244.2" stroke="#A4CF36" stroke-width="4" stroke-miterlimit="10" stroke-linecap="round" stroke-linejoin="round"/>
<path d="M79.5127 112.2V139.2L119.313 116.2V89L79.5127 112.2Z" fill="url(#paint15_linear)"/>
<path d="M87.5127 116.5V143.5L127.313 120.5V93.3999L87.5127 116.5Z" fill="url(#paint16_linear)"/>
<path d="M95.5127 121V148L135.313 125V97.8999L95.5127 121Z" fill="url(#paint17_linear)"/>
<g filter="url(#filter2_ddd)">
<rect x="260" y="82" width="114" height="106" rx="8" fill="white"/>
</g>
<circle cx="317" cy="135" r="32" fill="url(#paint18_linear)" style="mix-blend-mode:multiply"/>
<path d="M325.351 134H330.949L335 143H300L303.641 134H309.194H310V137L308.921 137.047H307.783C307.737 137.047 307.692 137.047 307.646 137.141C307.419 137.937 307 139.953 307 139.953V140H328L326.99 137.188C326.99 137.094 326.899 137.047 326.808 137.047H325.397H325V134H325.351Z" fill="white" fill-opacity="0.75"/>
<path d="M300 143V152C300.045 152 300.135 152 300.179 152H335C335 151.86 335 151.813 335 151.72C335 149.153 335 145.567 335 143H300Z" fill="white" fill-opacity="0.5"/>
<path d="M341 115H328V123H328.066H340.934C340.934 122.86 340.934 122.813 340.934 122.719C341 120.146 341 117.573 341 115Z" fill="url(#paint19_linear)" fill-opacity="0.5"/>
<path d="M325 126.754C324.909 126.754 324.364 126.754 324.318 126.754C324.091 126.708 323.909 126.8 323.727 126.937C322.046 128.172 320.364 129.361 318.682 130.55C318.318 130.824 317.955 131.007 317.5 131.145C316.546 131.419 315.636 130.916 315.409 129.91C315.182 128.949 315.364 128.035 316.046 127.257C316.182 127.074 316.364 126.891 316.5 126.708C314.546 126.708 311.909 126.754 310 126.754C310 130.733 310 136.021 310 140C314.591 140 320.409 140 325 140C325.045 136.067 325 130.733 325 126.754Z" fill="url(#paint20_linear)"/>
<path d="M316.909 125.748C317 125.748 317.046 125.702 317.046 125.611C317.227 125.062 317.455 124.513 317.591 123.964C317.682 123.644 317.909 123.461 318.182 123.324C318.637 123.141 319.137 123.049 319.591 123.095C319.818 123.095 320.046 123.187 320.227 123.278C320.455 123.37 320.546 123.598 320.409 123.827C320.364 123.964 320.273 124.056 320.182 124.147C319.046 125.428 317.864 126.754 316.682 128.035C316.637 128.08 316.546 128.172 316.546 128.263C316.318 128.721 316.273 129.224 316.409 129.727C316.5 130.138 316.818 130.321 317.227 130.184C317.5 130.093 317.773 129.955 318 129.772C320.318 128.126 322.591 126.48 324.909 124.787C324.955 124.742 325 124.696 325.046 124.604C325.182 124.193 325.318 123.781 325.455 123.37C325.5 123.278 325.546 123.187 325.637 123.095C326.046 122.683 326.455 122.226 326.909 121.815C327 121.723 327 121.677 327 121.586C327 120.214 327 118.842 327 117.424C327 117.378 327 117.332 327 117.241C326.955 117.241 326.909 117.241 326.864 117.241C325.318 117.241 323.773 117.241 322.227 117.241C322.137 117.241 322.046 117.287 322 117.332C320.909 118.018 319.864 118.659 318.773 119.345C318.091 119.756 317.409 120.168 316.727 120.625C316.137 120.991 315.682 121.54 315.455 122.226C315.182 122.866 315 123.552 314.773 124.238C314.591 124.742 314.455 125.245 314.273 125.794C314.318 125.794 314.364 125.794 314.364 125.794C315.182 125.748 316.046 125.748 316.909 125.748Z" fill="white"/>
<g filter="url(#filter3_ddd)">
<rect x="522" y="82" width="114" height="106" rx="8" fill="white"/>
</g>
<circle cx="579" cy="135" r="32" fill="url(#paint21_linear)" style="mix-blend-mode:multiply"/>
<rect opacity="0.5" x="567.509" y="121" width="32.4906" height="18.1463" rx="9.07317" fill="white"/>
<rect x="560" y="127.292" width="32.0377" height="19.1707" rx="9.58537" fill="white"/>
<rect x="560" y="127.292" width="32.0377" height="19.1707" rx="9.58537" stroke="url(#paint22_linear)" stroke-width="2" style="mix-blend-mode:multiply"/>
<ellipse cx="569.057" cy="136.878" rx="2.32075" ry="2.26829" fill="#F34A8C"/>
<ellipse cx="576.019" cy="136.878" rx="2.32075" ry="2.26829" fill="#F34A8C"/>
<ellipse cx="582.981" cy="136.878" rx="2.32075" ry="2.26829" fill="#F34A8C"/>
<path d="M571.396 149.818V145.424H579.023L573.048 150.575C572.4 151.134 571.396 150.673 571.396 149.818Z" fill="white"/>
<g filter="url(#filter4_ddd)">
<path d="M261 260C261 255.582 264.582 252 269 252H367C371.418 252 375 255.582 375 260V350H261V260Z" fill="white"/>
</g>
<circle cx="318" cy="304" r="32" fill="url(#paint23_linear)" style="mix-blend-mode:multiply"/>
<path d="M307.499 286.219L296 292.658L305.361 292.317L317.288 285.585L307.499 286.219Z" fill="white" fill-opacity="0.25"/>
<path d="M305.361 292.317L296 292.658L301.275 307.048L310.493 308.219L305.361 292.317ZM299.469 297.39C299.041 297.585 298.376 297.048 298.043 296.17C297.711 295.292 297.806 294.463 298.233 294.268C298.661 294.073 299.326 294.609 299.659 295.487C300.039 296.365 299.944 297.243 299.469 297.39ZM302.558 305.731C302.082 305.926 301.465 305.341 301.18 304.463C300.847 303.585 300.989 302.756 301.417 302.561C301.892 302.365 302.51 302.951 302.795 303.829C303.128 304.707 302.985 305.536 302.558 305.731ZM304.648 297.536C304.126 297.731 303.46 297.146 303.08 296.17C302.748 295.243 302.843 294.317 303.365 294.073C303.888 293.878 304.553 294.463 304.933 295.439C305.266 296.414 305.124 297.341 304.648 297.536ZM307.547 306.512C307.072 306.658 306.407 306.024 306.121 305.097C305.836 304.17 305.979 303.243 306.454 303.097C306.929 302.951 307.595 303.585 307.927 304.512C308.165 305.439 308.022 306.365 307.547 306.512Z" fill="white" fill-opacity="0.5"/>
<path d="M333.397 307.487L327.933 323.536L336.011 318.024L341 303.975L333.397 307.487Z" fill="white" fill-opacity="0.8"/>
<path d="M318.762 298.17L321.137 297.243L317.288 285.585L305.361 292.317L310.493 308.219L316.148 304.609L318.571 298.463L318.762 298.17ZM311.824 305.195C311.016 305.195 310.351 304.317 310.351 303.292C310.351 302.219 311.016 301.39 311.824 301.39C312.632 301.39 313.297 302.268 313.297 303.292C313.344 304.317 312.679 305.195 311.824 305.195ZM316.053 291.926C315.245 291.926 314.627 291.146 314.627 290.122C314.627 289.146 315.293 288.317 316.053 288.317C316.861 288.317 317.479 289.097 317.479 290.122C317.479 291.146 316.861 291.926 316.053 291.926Z" fill="white" fill-opacity="0.8"/>
<path d="M319.379 299.438L313.392 314.512L327.933 323.585L333.397 307.536L319.379 299.438ZM317.384 315.243C316.481 315.243 315.72 314.414 315.72 313.438C315.72 312.414 316.433 311.634 317.384 311.634C318.334 311.634 319.047 312.463 319.047 313.438C318.999 314.463 318.286 315.243 317.384 315.243ZM318.952 304.317C318.952 303.243 319.712 302.365 320.662 302.365C320.995 302.365 321.28 302.463 321.518 302.609C322.04 302.951 322.373 303.585 322.373 304.268C322.373 305.341 321.613 306.219 320.662 306.219C319.712 306.268 318.952 305.39 318.952 304.317ZM321.47 311.341C321.47 310.268 322.231 309.39 323.181 309.39C324.131 309.39 324.892 310.268 324.892 311.341C324.892 312.414 324.131 313.292 323.181 313.292C322.231 313.292 321.47 312.414 321.47 311.341ZM325.937 320.414C324.939 320.414 324.179 319.536 324.179 318.463C324.179 317.39 324.987 316.512 325.937 316.512C326.935 316.512 327.695 317.39 327.695 318.463C327.695 319.536 326.935 320.414 325.937 320.414ZM329.216 311.146C328.265 311.146 327.505 310.268 327.505 309.195C327.505 308.121 328.265 307.243 329.216 307.243C330.166 307.243 330.926 308.121 330.926 309.195C330.926 310.268 330.166 311.146 329.216 311.146Z" fill="white"/>
<path d="M327.458 296.122L319.379 299.39L333.397 307.487L341 303.975L327.458 296.122ZM325.652 300.853C325.509 301.195 324.701 301.146 323.799 300.805C323.276 300.609 322.848 300.317 322.611 300.073L322.421 299.585C322.421 299.585 322.421 299.536 322.468 299.536C322.658 299.244 323.466 299.292 324.321 299.634C325.129 299.975 325.747 300.512 325.652 300.853ZM329.976 303.195C329.833 303.536 329.026 303.487 328.123 303.146C327.22 302.805 326.602 302.219 326.697 301.878C326.84 301.536 327.648 301.585 328.55 301.926C329.453 302.268 330.071 302.853 329.976 303.195ZM330.214 299C330.071 299.341 329.263 299.292 328.36 298.951C327.458 298.609 326.84 298.024 326.935 297.683C327.077 297.341 327.885 297.39 328.788 297.731C329.738 298.073 330.356 298.658 330.214 299ZM334.158 305.439C334.015 305.78 333.207 305.731 332.304 305.39C331.402 305.048 330.784 304.463 330.879 304.122C331.021 303.78 331.829 303.829 332.732 304.17C333.635 304.512 334.253 305.146 334.158 305.439ZM334.158 301.146C334.015 301.487 333.207 301.439 332.304 301.097C331.402 300.756 330.784 300.17 330.879 299.829C331.021 299.487 331.829 299.536 332.732 299.878C333.635 300.219 334.3 300.853 334.158 301.146ZM336.391 303.244C335.488 302.902 334.87 302.317 334.965 301.975C335.108 301.634 335.916 301.683 336.819 302.024C337.722 302.365 338.339 302.951 338.244 303.292C338.102 303.634 337.294 303.585 336.391 303.244Z" fill="white" fill-opacity="0.7"/>
<g filter="url(#filter5_ddd)">
<path d="M391 260C391 255.582 394.582 252 399 252H497C501.418 252 505 255.582 505 260V350H391V260Z" fill="white"/>
</g>
<circle cx="448" cy="304" r="32" fill="url(#paint24_linear)" style="mix-blend-mode:multiply"/>
<path d="M431.272 288.585H457.17L459.359 318.585H429L431.272 288.585Z" fill="url(#paint25_linear)"/>
<path opacity="0.4" d="M457.169 288.585L459.359 290.957L461.63 288.585L467 318.585L462.5 313.085L459.359 318.585L457.169 288.585Z" fill="white"/>
<path opacity="0.15" d="M467 318.585L462.498 313.259L459.359 318.585H467Z" fill="white"/>
<path d="M450.272 294.202C450.272 294.202 451.8 304.604 444.159 304.604C436.518 304.604 438.294 294.202 438.294 294.202" stroke="white" stroke-width="1.5" stroke-miterlimit="10" stroke-linecap="round" stroke-linejoin="round"/>
<path opacity="0.4" d="M450 296.585C451.105 296.585 452 295.69 452 294.585C452 293.48 451.105 292.585 450 292.585C448.895 292.585 448 293.48 448 294.585C448 295.69 448.895 296.585 450 296.585Z" fill="white"/>
<path opacity="0.4" d="M438 296.585C439.105 296.585 440 295.69 440 294.585C440 293.48 439.105 292.585 438 292.585C436.895 292.585 436 293.48 436 294.585C436 295.69 436.895 296.585 438 296.585Z" fill="white"/>
<g filter="url(#filter6_ddd)">
<path d="M522 260C522 255.582 525.582 252 530 252H628C632.418 252 636 255.582 636 260V350H522V260Z" fill="white"/>
</g>
<circle cx="579" cy="304" r="32" fill="url(#paint26_linear)" style="mix-blend-mode:multiply"/>
<path opacity="0.5" d="M563 297H595V318C595 319.657 593.657 321 592 321H566C564.343 321 563 319.657 563 318V297Z" fill="white"/>
<path opacity="0.5" d="M563 297H595V316C595 317.657 593.657 319 592 319H566C564.343 319 563 317.657 563 316V297Z" fill="white"/>
<path d="M563 297H595V312C595 313.657 593.657 315 592 315H566C564.343 315 563 313.657 563 312V297Z" fill="url(#paint27_linear)"/>
<g opacity="0.5">
<circle cx="589.5" cy="300.5" r="1.5" fill="url(#paint28_linear)" style="mix-blend-mode:multiply"/>
<circle cx="582.5" cy="300.5" r="1.5" fill="url(#paint29_linear)" style="mix-blend-mode:multiply"/>
<circle cx="575.5" cy="300.5" r="1.5" fill="url(#paint30_linear)" style="mix-blend-mode:multiply"/>
<circle cx="568.5" cy="300.5" r="1.5" fill="url(#paint31_linear)" style="mix-blend-mode:multiply"/>
<circle cx="589.5" cy="305.5" r="1.5" fill="url(#paint32_linear)" style="mix-blend-mode:multiply"/>
<circle cx="582.5" cy="305.5" r="1.5" fill="url(#paint33_linear)" style="mix-blend-mode:multiply"/>
<circle cx="575.5" cy="305.5" r="1.5" fill="url(#paint34_linear)" style="mix-blend-mode:multiply"/>
<circle cx="568.5" cy="305.5" r="1.5" fill="url(#paint35_linear)" style="mix-blend-mode:multiply"/>
<circle cx="575.5" cy="310.5" r="1.5" fill="url(#paint36_linear)" style="mix-blend-mode:multiply"/>
<circle cx="568.5" cy="310.5" r="1.5" fill="url(#paint37_linear)" style="mix-blend-mode:multiply"/>
</g>
<path opacity="0.4" d="M563 294C563 292.343 564.343 291 566 291H592C593.657 291 595 292.343 595 294V297H563V294Z" fill="white"/>
<path d="M590 294V290" stroke="white" stroke-width="2" stroke-linecap="round" stroke-linejoin="bevel"/>
<path d="M568 294V290" stroke="white" stroke-width="2" stroke-linecap="round" stroke-linejoin="bevel"/>
<path d="M92.7124 57.3935H87.6562V54.0312H93.5881V51.9091H85.1314V65H87.6562V59.5092H92.7124V57.3935ZM99.1156 65.1854C101.666 65.1854 102.944 63.7408 103.302 62.392L101.078 61.7912C100.816 62.5199 100.279 63.1527 99.0964 63.1527C97.6838 63.1527 96.9167 62.2706 96.7569 60.8132H103.405V59.7713C103.405 56.62 101.506 55.054 99.0133 55.054C96.073 55.054 94.3599 57.2209 94.3599 60.2188C94.3599 63.2869 96.1689 65.1854 99.1156 65.1854ZM98.9941 57.0675C100.298 57.0675 101.052 57.9496 101.052 59.1065H96.8272C97.0893 57.8153 97.8564 57.0675 98.9941 57.0675ZM110.66 65H113.05V58.4098C113.05 55.9169 111.145 55.054 109.196 55.054C107.106 55.054 105.488 56.032 105.035 57.8409L107.368 58.1797C107.547 57.5149 108.218 56.9908 109.132 56.9908C109.995 56.9908 110.551 57.483 110.551 58.3587V58.5057C110.551 59.0234 109.656 59.0554 108.787 59.1513C106.3 59.3814 104.836 60.3338 104.836 62.2322C104.836 64.1307 106.287 65.1982 108.032 65.1982C109.413 65.1982 110.206 64.5206 110.545 63.8942H110.66V65ZM110.551 61.7273C110.551 62.5838 109.72 63.3189 108.627 63.3189C107.809 63.3189 107.253 62.9034 107.253 62.2003C107.253 61.3501 107.847 60.9538 109.023 60.8196C109.471 60.7621 110.366 60.6342 110.551 60.4297V61.7273ZM119.725 55.1818H118.012V53.0852H115.532V55.1818H114.311V57.0227H115.532V62.3729C115.532 64.0987 116.823 65.1278 118.312 65.1278C119.22 65.1278 119.84 64.9553 120.026 64.8786L119.636 62.9673C119.469 63.0121 119.233 63.044 119.003 63.044C118.46 63.044 118.012 62.9098 118.012 61.9957V57.0227H119.725V55.1818ZM127.485 60.6278C127.485 62.1555 126.795 63.0824 125.683 63.0824C124.743 63.0824 124.04 62.4496 124.04 61.2798V55.1818H121.56V61.3501C121.56 64.1051 123.228 65.1278 124.82 65.1278C126.06 65.1278 127.006 64.5717 127.543 63.843H127.645V65H129.972V55.1818H127.485V60.6278ZM138.275 55.3672C137.968 55.1882 137.431 55.0476 136.92 55.0476C135.961 55.0476 134.957 55.5781 134.676 56.5753H134.536V55.1818H132.107V65H134.587V59.4325C134.599 58.3459 135.411 57.3168 136.587 57.3168C136.99 57.3168 137.367 57.4446 137.501 57.5213L138.275 55.3672ZM143.518 65.1854C146.068 65.1854 147.347 63.7408 147.705 62.392L145.48 61.7912C145.218 62.5199 144.681 63.1527 143.499 63.1527C142.086 63.1527 141.319 62.2706 141.159 60.8132H147.807V59.7713C147.807 56.62 145.909 55.054 143.416 55.054C140.475 55.054 138.762 57.2209 138.762 60.2188C138.762 63.2869 140.571 65.1854 143.518 65.1854ZM143.396 57.0675C144.7 57.0675 145.455 57.9496 145.455 59.1065H141.23C141.492 57.8153 142.259 57.0675 143.396 57.0675ZM158.149 65V51.9091H155.669V56.3963H155.567C155.235 55.7251 154.468 55.054 153.157 55.054C151.022 55.054 149.239 56.7798 149.239 60.0973C149.239 63.3764 150.952 65.1726 153.151 65.1726C154.448 65.1726 155.235 64.5142 155.567 63.8366H155.701V65H158.149ZM151.604 60.0909C151.604 58.2628 152.339 57.0675 153.803 57.0675C155.318 57.0675 155.906 58.3587 155.906 60.0909C155.906 61.8104 155.324 63.1527 153.803 63.1527C152.345 63.1527 151.604 61.9254 151.604 60.0909Z" fill="white"/>
<path d="M268.712 57.3935H263.656V54.0312H269.588V51.9091H261.131V65H263.656V59.5092H268.712V57.3935ZM276.376 65H278.767V58.4098C278.767 55.9169 276.862 55.054 274.913 55.054C272.822 55.054 271.205 56.032 270.751 57.8409L273.085 58.1797C273.263 57.5149 273.935 56.9908 274.849 56.9908C275.712 56.9908 276.268 57.483 276.268 58.3587V58.5057C276.268 59.0234 275.373 59.0554 274.504 59.1513C272.017 59.3814 270.553 60.3338 270.553 62.2322C270.553 64.1307 272.004 65.1982 273.749 65.1982C275.13 65.1982 275.923 64.5206 276.261 63.8942H276.376V65ZM276.268 61.7273C276.268 62.5838 275.437 63.3189 274.344 63.3189C273.526 63.3189 272.969 62.9034 272.969 62.2003C272.969 61.3501 273.564 60.9538 274.74 60.8196C275.188 60.7621 276.082 60.6342 276.268 60.4297V61.7273ZM289.669 55.1818H287.093L284.939 61.8423H284.836L282.669 55.1818H280.093L283.686 65H286.057L289.669 55.1818ZM295.022 65.1854C297.841 65.1854 299.592 63.0952 299.592 60.1101C299.592 57.1058 297.841 55.054 295.022 55.054C292.21 55.054 290.452 57.1058 290.452 60.1101C290.452 63.0952 292.21 65.1854 295.022 65.1854ZM295.022 63.1527C293.475 63.1527 292.83 61.8487 292.83 60.1101C292.83 58.3651 293.475 57.0675 295.022 57.0675C296.575 57.0675 297.214 58.3651 297.214 60.1101C297.214 61.8487 296.575 63.1527 295.022 63.1527ZM307.472 55.3672C307.165 55.1882 306.628 55.0476 306.117 55.0476C305.158 55.0476 304.155 55.5781 303.873 56.5753H303.733V55.1818H301.304V65H303.784V59.4325C303.797 58.3459 304.608 57.3168 305.785 57.3168C306.187 57.3168 306.564 57.4446 306.699 57.5213L307.472 55.3672ZM310.126 54.3636C310.932 54.3636 311.526 53.7692 311.526 53.0469C311.526 52.3438 310.932 51.7301 310.126 51.7301C309.321 51.7301 308.701 52.3438 308.701 53.0469C308.701 53.7692 309.321 54.3636 310.126 54.3636ZM311.36 55.1818H308.88V65H311.36V55.1818ZM318.348 55.1818H316.635V53.0852H314.155V55.1818H312.934V57.0227H314.155V62.3729C314.155 64.0987 315.446 65.1278 316.936 65.1278C317.843 65.1278 318.463 64.9553 318.649 64.8786L318.259 62.9673C318.093 63.0121 317.856 63.044 317.626 63.044C317.083 63.044 316.635 62.9098 316.635 61.9957V57.0227H318.348V55.1818ZM324.405 65.1854C326.955 65.1854 328.233 63.7408 328.591 62.392L326.367 61.7912C326.105 62.5199 325.568 63.1527 324.385 63.1527C322.973 63.1527 322.206 62.2706 322.046 60.8132H328.694V59.7713C328.694 56.62 326.795 55.054 324.302 55.054C321.362 55.054 319.649 57.2209 319.649 60.2188C319.649 63.2869 321.458 65.1854 324.405 65.1854ZM324.283 57.0675C325.587 57.0675 326.341 57.9496 326.341 59.1065H322.116C322.378 57.8153 323.145 57.0675 324.283 57.0675ZM338.301 57.8473C337.981 56.0703 336.76 55.054 334.459 55.054C331.986 55.054 330.317 56.2109 330.317 58.1158C330.317 59.6818 331.455 60.532 333.034 60.9091L334.76 61.299C335.386 61.4396 335.955 61.6314 335.955 62.3089C335.955 62.8778 335.246 63.3445 334.287 63.3445C333.322 63.3445 332.574 62.8459 332.337 61.951L329.966 62.2195C330.349 64.0732 331.717 65.1854 334.178 65.1854C336.62 65.1854 338.499 64.0604 338.499 62.0277C338.499 60.4489 337.374 59.7074 335.866 59.375L334.044 58.9851C333.315 58.8253 332.778 58.5121 332.778 57.956C332.778 57.3168 333.52 56.9077 334.357 56.9077C335.309 56.9077 335.917 57.4318 336.045 58.0774L338.301 57.8473Z" fill="#968FA6"/>
<path d="M617.71 65.0909L618.663 62.304H623.674L624.626 65.0909H627.33L622.504 52H619.826L615 65.0909H617.71ZM621.092 55.1832H621.245L622.971 60.233H619.366L621.092 55.1832Z" fill="#968FA6"/>
<path d="M617.71 65.0909L618.663 62.304H623.674L624.626 65.0909H627.33L622.504 52H619.826L615 65.0909H617.71ZM621.092 55.1832H621.245L622.971 60.233H619.366L621.092 55.1832Z" fill="url(#paint38_linear)"/>
<path d="M631.274 52H628.794V65.0909H631.274V52Z" fill="#968FA6"/>
<path d="M631.274 52H628.794V65.0909H631.274V52Z" fill="url(#paint39_linear)"/>
<path d="M635.827 52H633.347V65.0909H635.827V52Z" fill="#968FA6"/>
<path d="M635.827 52H633.347V65.0909H635.827V52Z" fill="url(#paint40_linear)"/>
<path d="M617.71 227.091L618.663 224.304H623.674L624.626 227.091H627.33L622.504 214H619.826L615 227.091H617.71ZM621.092 217.183H621.245L622.971 222.233H619.366L621.092 217.183Z" fill="#968FA6"/>
<path d="M617.71 227.091L618.663 224.304H623.674L624.626 227.091H627.33L622.504 214H619.826L615 227.091H617.71ZM621.092 217.183H621.245L622.971 222.233H619.366L621.092 217.183Z" fill="url(#paint41_linear)"/>
<path d="M631.274 214H628.794V227.091H631.274V214Z" fill="#968FA6"/>
<path d="M631.274 214H628.794V227.091H631.274V214Z" fill="url(#paint42_linear)"/>
<path d="M635.827 214H633.347V227.091H635.827V214Z" fill="#968FA6"/>
<path d="M635.827 214H633.347V227.091H635.827V214Z" fill="url(#paint43_linear)"/>
<path d="M265.983 230.423C269.179 230.423 270.566 228.717 270.566 226.173C270.566 223.667 269.237 221.909 265.977 221.909H261.131V235H263.656V230.423H265.983ZM263.656 224.031H265.977C267.523 224.031 268.067 224.964 268.067 226.173C268.067 227.381 267.523 228.327 265.983 228.327H263.656V224.031ZM276.249 235.185C279.067 235.185 280.819 233.095 280.819 230.11C280.819 227.106 279.067 225.054 276.249 225.054C273.436 225.054 271.678 227.106 271.678 230.11C271.678 233.095 273.436 235.185 276.249 235.185ZM276.249 233.153C274.702 233.153 274.056 231.849 274.056 230.11C274.056 228.365 274.702 227.067 276.249 227.067C277.802 227.067 278.441 228.365 278.441 230.11C278.441 231.849 277.802 233.153 276.249 233.153ZM282.53 238.682H285.01V233.837H285.126C285.458 234.514 286.231 235.173 287.535 235.173C289.728 235.173 291.441 233.376 291.441 230.097C291.441 226.78 289.657 225.054 287.529 225.054C286.219 225.054 285.458 225.725 285.126 226.396H284.979V225.182H282.53V238.682ZM289.082 230.091C289.082 231.925 288.334 233.153 286.877 233.153C285.356 233.153 284.78 231.81 284.78 230.091C284.78 228.359 285.368 227.067 286.877 227.067C288.341 227.067 289.082 228.263 289.082 230.091ZM299.108 230.628C299.108 232.156 298.418 233.082 297.306 233.082C296.366 233.082 295.663 232.45 295.663 231.28V225.182H293.183V231.35C293.183 234.105 294.851 235.128 296.443 235.128C297.683 235.128 298.629 234.572 299.166 233.843H299.268V235H301.595V225.182H299.108V230.628ZM306.21 221.909H303.73V235H306.21V221.909ZM313.818 235H316.208V228.41C316.208 225.917 314.304 225.054 312.354 225.054C310.264 225.054 308.647 226.032 308.193 227.841L310.526 228.18C310.705 227.515 311.376 226.991 312.29 226.991C313.153 226.991 313.709 227.483 313.709 228.359V228.506C313.709 229.023 312.814 229.055 311.945 229.151C309.458 229.381 307.995 230.334 307.995 232.232C307.995 234.131 309.446 235.198 311.191 235.198C312.571 235.198 313.364 234.521 313.703 233.894H313.818V235ZM313.709 231.727C313.709 232.584 312.878 233.319 311.785 233.319C310.967 233.319 310.411 232.903 310.411 232.2C310.411 231.35 311.005 230.954 312.181 230.82C312.629 230.762 313.524 230.634 313.709 230.43V231.727ZM324.523 225.367C324.216 225.188 323.679 225.048 323.168 225.048C322.209 225.048 321.205 225.578 320.924 226.575H320.784V225.182H318.355V235H320.835V229.433C320.847 228.346 321.659 227.317 322.835 227.317C323.238 227.317 323.615 227.445 323.749 227.521L324.523 225.367Z" fill="#968FA6"/>
</g>
<defs>
<filter id="filter0_ddd" x="373" y="64" width="210" height="202" filterUnits="userSpaceOnUse" color-interpolation-filters="sRGB">
<feFlood flood-opacity="0" result="BackgroundImageFix"/>
<feColorMatrix in="SourceAlpha" type="matrix" values="0 0 0 0 0 0 0 0 0 0 0 0 0 0 0 0 0 0 127 0"/>
<feOffset dx="6" dy="6"/>
<feGaussianBlur stdDeviation="6"/>
<feColorMatrix type="matrix" values="0 0 0 0 0.396078 0 0 0 0 0.34902 0 0 0 0 0.486275 0 0 0 0.06 0"/>
<feBlend mode="normal" in2="BackgroundImageFix" result="effect1_dropShadow"/>
<feColorMatrix in="SourceAlpha" type="matrix" values="0 0 0 0 0 0 0 0 0 0 0 0 0 0 0 0 0 0 127 0"/>
<feOffset dx="20" dy="20"/>
<feGaussianBlur stdDeviation="16"/>
<feColorMatrix type="matrix" values="0 0 0 0 0.394405 0 0 0 0 0.34925 0 0 0 0 0.484716 0 0 0 0.06 0"/>
<feBlend mode="normal" in2="effect1_dropShadow" result="effect2_dropShadow"/>
<feColorMatrix in="SourceAlpha" type="matrix" values="0 0 0 0 0 0 0 0 0 0 0 0 0 0 0 0 0 0 127 0"/>
<feOffset dx="30" dy="30"/>
<feGaussianBlur stdDeviation="24"/>
<feColorMatrix type="matrix" values="0 0 0 0 0.394405 0 0 0 0 0.34925 0 0 0 0 0.484716 0 0 0 0.06 0"/>
<feBlend mode="normal" in2="effect2_dropShadow" result="effect3_dropShadow"/>
<feBlend mode="normal" in="SourceGraphic" in2="effect3_dropShadow" result="shape"/>
</filter>
<filter id="filter1_ddd" x="42" y="6" width="272" height="422" filterUnits="userSpaceOnUse" color-interpolation-filters="sRGB">
<feFlood flood-opacity="0" result="BackgroundImageFix"/>
<feColorMatrix in="SourceAlpha" type="matrix" values="0 0 0 0 0 0 0 0 0 0 0 0 0 0 0 0 0 0 127 0"/>
<feOffset dx="6" dy="6"/>
<feGaussianBlur stdDeviation="6"/>
<feColorMatrix type="matrix" values="0 0 0 0 0.396078 0 0 0 0 0.34902 0 0 0 0 0.486275 0 0 0 0.06 0"/>
<feBlend mode="normal" in2="BackgroundImageFix" result="effect1_dropShadow"/>
<feColorMatrix in="SourceAlpha" type="matrix" values="0 0 0 0 0 0 0 0 0 0 0 0 0 0 0 0 0 0 127 0"/>
<feOffset dx="20" dy="20"/>
<feGaussianBlur stdDeviation="16"/>
<feColorMatrix type="matrix" values="0 0 0 0 0.394405 0 0 0 0 0.34925 0 0 0 0 0.484716 0 0 0 0.06 0"/>
<feBlend mode="normal" in2="effect1_dropShadow" result="effect2_dropShadow"/>
<feColorMatrix in="SourceAlpha" type="matrix" values="0 0 0 0 0 0 0 0 0 0 0 0 0 0 0 0 0 0 127 0"/>
<feOffset dx="30" dy="30"/>
<feGaussianBlur stdDeviation="24"/>
<feColorMatrix type="matrix" values="0 0 0 0 0.394405 0 0 0 0 0.34925 0 0 0 0 0.484716 0 0 0 0.06 0"/>
<feBlend mode="normal" in2="effect2_dropShadow" result="effect3_dropShadow"/>
<feBlend mode="normal" in="SourceGraphic" in2="effect3_dropShadow" result="shape"/>
</filter>
<filter id="filter2_ddd" x="242" y="64" width="210" height="202" filterUnits="userSpaceOnUse" color-interpolation-filters="sRGB">
<feFlood flood-opacity="0" result="BackgroundImageFix"/>
<feColorMatrix in="SourceAlpha" type="matrix" values="0 0 0 0 0 0 0 0 0 0 0 0 0 0 0 0 0 0 127 0"/>
<feOffset dx="6" dy="6"/>
<feGaussianBlur stdDeviation="6"/>
<feColorMatrix type="matrix" values="0 0 0 0 0.396078 0 0 0 0 0.34902 0 0 0 0 0.486275 0 0 0 0.06 0"/>
<feBlend mode="normal" in2="BackgroundImageFix" result="effect1_dropShadow"/>
<feColorMatrix in="SourceAlpha" type="matrix" values="0 0 0 0 0 0 0 0 0 0 0 0 0 0 0 0 0 0 127 0"/>
<feOffset dx="20" dy="20"/>
<feGaussianBlur stdDeviation="16"/>
<feColorMatrix type="matrix" values="0 0 0 0 0.394405 0 0 0 0 0.34925 0 0 0 0 0.484716 0 0 0 0.06 0"/>
<feBlend mode="normal" in2="effect1_dropShadow" result="effect2_dropShadow"/>
<feColorMatrix in="SourceAlpha" type="matrix" values="0 0 0 0 0 0 0 0 0 0 0 0 0 0 0 0 0 0 127 0"/>
<feOffset dx="30" dy="30"/>
<feGaussianBlur stdDeviation="24"/>
<feColorMatrix type="matrix" values="0 0 0 0 0.394405 0 0 0 0 0.34925 0 0 0 0 0.484716 0 0 0 0.06 0"/>
<feBlend mode="normal" in2="effect2_dropShadow" result="effect3_dropShadow"/>
<feBlend mode="normal" in="SourceGraphic" in2="effect3_dropShadow" result="shape"/>
</filter>
<filter id="filter3_ddd" x="504" y="64" width="210" height="202" filterUnits="userSpaceOnUse" color-interpolation-filters="sRGB">
<feFlood flood-opacity="0" result="BackgroundImageFix"/>
<feColorMatrix in="SourceAlpha" type="matrix" values="0 0 0 0 0 0 0 0 0 0 0 0 0 0 0 0 0 0 127 0"/>
<feOffset dx="6" dy="6"/>
<feGaussianBlur stdDeviation="6"/>
<feColorMatrix type="matrix" values="0 0 0 0 0.396078 0 0 0 0 0.34902 0 0 0 0 0.486275 0 0 0 0.06 0"/>
<feBlend mode="normal" in2="BackgroundImageFix" result="effect1_dropShadow"/>
<feColorMatrix in="SourceAlpha" type="matrix" values="0 0 0 0 0 0 0 0 0 0 0 0 0 0 0 0 0 0 127 0"/>
<feOffset dx="20" dy="20"/>
<feGaussianBlur stdDeviation="16"/>
<feColorMatrix type="matrix" values="0 0 0 0 0.394405 0 0 0 0 0.34925 0 0 0 0 0.484716 0 0 0 0.06 0"/>
<feBlend mode="normal" in2="effect1_dropShadow" result="effect2_dropShadow"/>
<feColorMatrix in="SourceAlpha" type="matrix" values="0 0 0 0 0 0 0 0 0 0 0 0 0 0 0 0 0 0 127 0"/>
<feOffset dx="30" dy="30"/>
<feGaussianBlur stdDeviation="24"/>
<feColorMatrix type="matrix" values="0 0 0 0 0.394405 0 0 0 0 0.34925 0 0 0 0 0.484716 0 0 0 0.06 0"/>
<feBlend mode="normal" in2="effect2_dropShadow" result="effect3_dropShadow"/>
<feBlend mode="normal" in="SourceGraphic" in2="effect3_dropShadow" result="shape"/>
</filter>
<filter id="filter4_ddd" x="243" y="234" width="210" height="194" filterUnits="userSpaceOnUse" color-interpolation-filters="sRGB">
<feFlood flood-opacity="0" result="BackgroundImageFix"/>
<feColorMatrix in="SourceAlpha" type="matrix" values="0 0 0 0 0 0 0 0 0 0 0 0 0 0 0 0 0 0 127 0"/>
<feOffset dx="6" dy="6"/>
<feGaussianBlur stdDeviation="6"/>
<feColorMatrix type="matrix" values="0 0 0 0 0.396078 0 0 0 0 0.34902 0 0 0 0 0.486275 0 0 0 0.06 0"/>
<feBlend mode="normal" in2="BackgroundImageFix" result="effect1_dropShadow"/>
<feColorMatrix in="SourceAlpha" type="matrix" values="0 0 0 0 0 0 0 0 0 0 0 0 0 0 0 0 0 0 127 0"/>
<feOffset dx="20" dy="20"/>
<feGaussianBlur stdDeviation="16"/>
<feColorMatrix type="matrix" values="0 0 0 0 0.394405 0 0 0 0 0.34925 0 0 0 0 0.484716 0 0 0 0.06 0"/>
<feBlend mode="normal" in2="effect1_dropShadow" result="effect2_dropShadow"/>
<feColorMatrix in="SourceAlpha" type="matrix" values="0 0 0 0 0 0 0 0 0 0 0 0 0 0 0 0 0 0 127 0"/>
<feOffset dx="30" dy="30"/>
<feGaussianBlur stdDeviation="24"/>
<feColorMatrix type="matrix" values="0 0 0 0 0.394405 0 0 0 0 0.34925 0 0 0 0 0.484716 0 0 0 0.06 0"/>
<feBlend mode="normal" in2="effect2_dropShadow" result="effect3_dropShadow"/>
<feBlend mode="normal" in="SourceGraphic" in2="effect3_dropShadow" result="shape"/>
</filter>
<filter id="filter5_ddd" x="373" y="234" width="210" height="194" filterUnits="userSpaceOnUse" color-interpolation-filters="sRGB">
<feFlood flood-opacity="0" result="BackgroundImageFix"/>
<feColorMatrix in="SourceAlpha" type="matrix" values="0 0 0 0 0 0 0 0 0 0 0 0 0 0 0 0 0 0 127 0"/>
<feOffset dx="6" dy="6"/>
<feGaussianBlur stdDeviation="6"/>
<feColorMatrix type="matrix" values="0 0 0 0 0.396078 0 0 0 0 0.34902 0 0 0 0 0.486275 0 0 0 0.06 0"/>
<feBlend mode="normal" in2="BackgroundImageFix" result="effect1_dropShadow"/>
<feColorMatrix in="SourceAlpha" type="matrix" values="0 0 0 0 0 0 0 0 0 0 0 0 0 0 0 0 0 0 127 0"/>
<feOffset dx="20" dy="20"/>
<feGaussianBlur stdDeviation="16"/>
<feColorMatrix type="matrix" values="0 0 0 0 0.394405 0 0 0 0 0.34925 0 0 0 0 0.484716 0 0 0 0.06 0"/>
<feBlend mode="normal" in2="effect1_dropShadow" result="effect2_dropShadow"/>
<feColorMatrix in="SourceAlpha" type="matrix" values="0 0 0 0 0 0 0 0 0 0 0 0 0 0 0 0 0 0 127 0"/>
<feOffset dx="30" dy="30"/>
<feGaussianBlur stdDeviation="24"/>
<feColorMatrix type="matrix" values="0 0 0 0 0.394405 0 0 0 0 0.34925 0 0 0 0 0.484716 0 0 0 0.06 0"/>
<feBlend mode="normal" in2="effect2_dropShadow" result="effect3_dropShadow"/>
<feBlend mode="normal" in="SourceGraphic" in2="effect3_dropShadow" result="shape"/>
</filter>
<filter id="filter6_ddd" x="504" y="234" width="210" height="194" filterUnits="userSpaceOnUse" color-interpolation-filters="sRGB">
<feFlood flood-opacity="0" result="BackgroundImageFix"/>
<feColorMatrix in="SourceAlpha" type="matrix" values="0 0 0 0 0 0 0 0 0 0 0 0 0 0 0 0 0 0 127 0"/>
<feOffset dx="6" dy="6"/>
<feGaussianBlur stdDeviation="6"/>
<feColorMatrix type="matrix" values="0 0 0 0 0.396078 0 0 0 0 0.34902 0 0 0 0 0.486275 0 0 0 0.06 0"/>
<feBlend mode="normal" in2="BackgroundImageFix" result="effect1_dropShadow"/>
<feColorMatrix in="SourceAlpha" type="matrix" values="0 0 0 0 0 0 0 0 0 0 0 0 0 0 0 0 0 0 127 0"/>
<feOffset dx="20" dy="20"/>
<feGaussianBlur stdDeviation="16"/>
<feColorMatrix type="matrix" values="0 0 0 0 0.394405 0 0 0 0 0.34925 0 0 0 0 0.484716 0 0 0 0.06 0"/>
<feBlend mode="normal" in2="effect1_dropShadow" result="effect2_dropShadow"/>
<feColorMatrix in="SourceAlpha" type="matrix" values="0 0 0 0 0 0 0 0 0 0 0 0 0 0 0 0 0 0 127 0"/>
<feOffset dx="30" dy="30"/>
<feGaussianBlur stdDeviation="24"/>
<feColorMatrix type="matrix" values="0 0 0 0 0.394405 0 0 0 0 0.34925 0 0 0 0 0.484716 0 0 0 0.06 0"/>
<feBlend mode="normal" in2="effect2_dropShadow" result="effect3_dropShadow"/>
<feBlend mode="normal" in="SourceGraphic" in2="effect3_dropShadow" result="shape"/>
</filter>
<linearGradient id="paint0_linear" x1="30" y1="350" x2="-141.605" y2="209.304" gradientUnits="userSpaceOnUse">
<stop stop-color="#EFECF4"/>
<stop offset="1" stop-color="#E9E6EF"/>
</linearGradient>
<linearGradient id="paint1_linear" x1="448" y1="167" x2="448" y2="103" gradientUnits="userSpaceOnUse">
<stop stop-color="#32D5D5"/>
<stop offset="1" stop-color="#475ABA"/>
</linearGradient>
<linearGradient id="paint2_linear" x1="456.306" y1="132.07" x2="441.602" y2="173.049" gradientUnits="userSpaceOnUse">
<stop stop-color="white"/>
<stop offset="1" stop-color="white" stop-opacity="0"/>
</linearGradient>
<linearGradient id="paint3_linear" x1="87.2105" y1="350" x2="87.2105" y2="24" gradientUnits="userSpaceOnUse">
<stop stop-color="#334D71"/>
<stop offset="1" stop-color="#1BC56C"/>
</linearGradient>
<linearGradient id="paint4_linear" x1="150" y1="337" x2="220" y2="337" gradientUnits="userSpaceOnUse">
<stop stop-color="#B9D532"/>
<stop offset="1" stop-color="#5BBA47"/>
</linearGradient>
<linearGradient id="paint5_linear" x1="76" y1="337" x2="146" y2="337" gradientUnits="userSpaceOnUse">
<stop stop-color="#B9D532"/>
<stop offset="1" stop-color="#5BBA47"/>
</linearGradient>
<linearGradient id="paint6_linear" x1="92" y1="330" x2="130" y2="330" gradientUnits="userSpaceOnUse">
<stop stop-color="#B9D532"/>
<stop offset="1" stop-color="#5BBA47"/>
</linearGradient>
<linearGradient id="paint7_linear" x1="206.167" y1="234.474" x2="47.8296" y2="234.474" gradientUnits="userSpaceOnUse">
<stop stop-color="#5BBA47"/>
<stop offset="1" stop-color="#B9D532"/>
</linearGradient>
<linearGradient id="paint8_linear" x1="148.49" y1="232.151" x2="148.49" y2="73.8138" gradientUnits="userSpaceOnUse">
<stop stop-color="#5BBA47" stop-opacity="0"/>
<stop offset="1" stop-color="#B9D532"/>
</linearGradient>
<linearGradient id="paint9_linear" x1="160.408" y1="156.747" x2="208.218" y2="156.747" gradientUnits="userSpaceOnUse">
<stop stop-color="#5BBA47"/>
<stop offset="1" stop-color="#B9D532"/>
</linearGradient>
<linearGradient id="paint10_linear" x1="115.937" y1="112.522" x2="76.1113" y2="112.522" gradientUnits="userSpaceOnUse">
<stop stop-color="#5BBA47"/>
<stop offset="1" stop-color="#B9D532"/>
</linearGradient>
<linearGradient id="paint11_linear" x1="161.113" y1="171.664" x2="161.113" y2="208" gradientUnits="userSpaceOnUse">
<stop stop-color="#F1408C"/>
<stop offset="1" stop-color="#FF8A8D"/>
</linearGradient>
<linearGradient id="paint12_linear" x1="103.85" y1="259.37" x2="189.138" y2="259.37" gradientUnits="userSpaceOnUse">
<stop stop-color="#5BBA47"/>
<stop offset="1" stop-color="#B9D532"/>
</linearGradient>
<linearGradient id="paint13_linear" x1="156" y1="269.5" x2="129" y2="184" gradientUnits="userSpaceOnUse">
<stop stop-color="#646EF6"/>
<stop offset="1" stop-color="#646EF6" stop-opacity="0"/>
</linearGradient>
<linearGradient id="paint14_linear" x1="118.935" y1="254.504" x2="127.81" y2="199.504" gradientUnits="userSpaceOnUse">
<stop stop-color="#334D71"/>
<stop offset="1" stop-color="#2B766F" stop-opacity="0.5"/>
</linearGradient>
<linearGradient id="paint15_linear" x1="92.7452" y1="148.763" x2="103.995" y2="90.2629" gradientUnits="userSpaceOnUse">
<stop stop-color="white"/>
<stop offset="1" stop-color="white" stop-opacity="0"/>
</linearGradient>
<linearGradient id="paint16_linear" x1="100.796" y1="153.138" x2="112.046" y2="94.6378" gradientUnits="userSpaceOnUse">
<stop stop-color="white"/>
<stop offset="1" stop-color="white" stop-opacity="0"/>
</linearGradient>
<linearGradient id="paint17_linear" x1="108.745" y1="157.638" x2="119.995" y2="99.1378" gradientUnits="userSpaceOnUse">
<stop stop-color="white"/>
<stop offset="1" stop-color="white" stop-opacity="0"/>
</linearGradient>
<linearGradient id="paint18_linear" x1="317" y1="103" x2="317" y2="167" gradientUnits="userSpaceOnUse">
<stop stop-color="#6762F4"/>
<stop offset="1" stop-color="#60BFFB"/>
</linearGradient>
<linearGradient id="paint19_linear" x1="327.934" y1="115" x2="341" y2="115" gradientUnits="userSpaceOnUse">
<stop stop-color="white"/>
<stop offset="1" stop-color="white" stop-opacity="0"/>
</linearGradient>
<linearGradient id="paint20_linear" x1="317.646" y1="132" x2="317.646" y2="146.5" gradientUnits="userSpaceOnUse">
<stop stop-color="white"/>
<stop offset="1" stop-color="white" stop-opacity="0"/>
</linearGradient>
<linearGradient id="paint21_linear" x1="579" y1="103" x2="579" y2="167" gradientUnits="userSpaceOnUse">
<stop stop-color="#F1408C"/>
<stop offset="1" stop-color="#FF8A8D"/>
</linearGradient>
<linearGradient id="paint22_linear" x1="576.019" y1="117.712" x2="576.019" y2="161.394" gradientUnits="userSpaceOnUse">
<stop stop-color="#F1408C"/>
<stop offset="1" stop-color="#FF8A8D"/>
</linearGradient>
<linearGradient id="paint23_linear" x1="318" y1="336" x2="318" y2="272" gradientUnits="userSpaceOnUse">
<stop stop-color="#32D5D5"/>
<stop offset="1" stop-color="#475ABA"/>
</linearGradient>
<linearGradient id="paint24_linear" x1="448" y1="272" x2="448" y2="336" gradientUnits="userSpaceOnUse">
<stop stop-color="#F1408C"/>
<stop offset="1" stop-color="#FF8A8D"/>
</linearGradient>
<linearGradient id="paint25_linear" x1="422.5" y1="311.585" x2="464.5" y2="317.585" gradientUnits="userSpaceOnUse">
<stop stop-color="white" stop-opacity="0.75"/>
<stop offset="1" stop-color="white" stop-opacity="0.5"/>
</linearGradient>
<linearGradient id="paint26_linear" x1="579" y1="272" x2="579" y2="336" gradientUnits="userSpaceOnUse">
<stop stop-color="#6762F4"/>
<stop offset="1" stop-color="#60BFFB"/>
</linearGradient>
<linearGradient id="paint27_linear" x1="579" y1="297" x2="579" y2="312.5" gradientUnits="userSpaceOnUse">
<stop stop-color="white" stop-opacity="0"/>
<stop offset="1" stop-color="white"/>
</linearGradient>
<linearGradient id="paint28_linear" x1="589.5" y1="299" x2="589.5" y2="302" gradientUnits="userSpaceOnUse">
<stop stop-color="#6762F4"/>
<stop offset="1" stop-color="#60BFFB"/>
</linearGradient>
<linearGradient id="paint29_linear" x1="582.5" y1="299" x2="582.5" y2="302" gradientUnits="userSpaceOnUse">
<stop stop-color="#6762F4"/>
<stop offset="1" stop-color="#60BFFB"/>
</linearGradient>
<linearGradient id="paint30_linear" x1="575.5" y1="299" x2="575.5" y2="302" gradientUnits="userSpaceOnUse">
<stop stop-color="#6762F4"/>
<stop offset="1" stop-color="#60BFFB"/>
</linearGradient>
<linearGradient id="paint31_linear" x1="568.5" y1="299" x2="568.5" y2="302" gradientUnits="userSpaceOnUse">
<stop stop-color="#6762F4"/>
<stop offset="1" stop-color="#60BFFB"/>
</linearGradient>
<linearGradient id="paint32_linear" x1="589.5" y1="304" x2="589.5" y2="307" gradientUnits="userSpaceOnUse">
<stop stop-color="#6762F4"/>
<stop offset="1" stop-color="#60BFFB"/>
</linearGradient>
<linearGradient id="paint33_linear" x1="582.5" y1="304" x2="582.5" y2="307" gradientUnits="userSpaceOnUse">
<stop stop-color="#6762F4"/>
<stop offset="1" stop-color="#60BFFB"/>
</linearGradient>
<linearGradient id="paint34_linear" x1="575.5" y1="304" x2="575.5" y2="307" gradientUnits="userSpaceOnUse">
<stop stop-color="#6762F4"/>
<stop offset="1" stop-color="#60BFFB"/>
</linearGradient>
<linearGradient id="paint35_linear" x1="568.5" y1="304" x2="568.5" y2="307" gradientUnits="userSpaceOnUse">
<stop stop-color="#6762F4"/>
<stop offset="1" stop-color="#60BFFB"/>
</linearGradient>
<linearGradient id="paint36_linear" x1="575.5" y1="309" x2="575.5" y2="312" gradientUnits="userSpaceOnUse">
<stop stop-color="#6762F4"/>
<stop offset="1" stop-color="#60BFFB"/>
</linearGradient>
<linearGradient id="paint37_linear" x1="568.5" y1="309" x2="568.5" y2="312" gradientUnits="userSpaceOnUse">
<stop stop-color="#6762F4"/>
<stop offset="1" stop-color="#60BFFB"/>
</linearGradient>
<linearGradient id="paint38_linear" x1="614.508" y1="74.0908" x2="637.508" y2="74.0908" gradientUnits="userSpaceOnUse">
<stop stop-color="#B9D532"/>
<stop offset="1" stop-color="#5BBA47"/>
</linearGradient>
<linearGradient id="paint39_linear" x1="614.508" y1="74.0908" x2="637.508" y2="74.0908" gradientUnits="userSpaceOnUse">
<stop stop-color="#B9D532"/>
<stop offset="1" stop-color="#5BBA47"/>
</linearGradient>
<linearGradient id="paint40_linear" x1="614.508" y1="74.0908" x2="637.508" y2="74.0908" gradientUnits="userSpaceOnUse">
<stop stop-color="#B9D532"/>
<stop offset="1" stop-color="#5BBA47"/>
</linearGradient>
<linearGradient id="paint41_linear" x1="614.508" y1="236.091" x2="637.508" y2="236.091" gradientUnits="userSpaceOnUse">
<stop stop-color="#B9D532"/>
<stop offset="1" stop-color="#5BBA47"/>
</linearGradient>
<linearGradient id="paint42_linear" x1="614.508" y1="236.091" x2="637.508" y2="236.091" gradientUnits="userSpaceOnUse">
<stop stop-color="#B9D532"/>
<stop offset="1" stop-color="#5BBA47"/>
</linearGradient>
<linearGradient id="paint43_linear" x1="614.508" y1="236.091" x2="637.508" y2="236.091" gradientUnits="userSpaceOnUse">
<stop stop-color="#B9D532"/>
<stop offset="1" stop-color="#5BBA47"/>
</linearGradient>
<clipPath id="clip0">
<rect width="660" height="350" fill="white"/>
</clipPath>
</defs>
</svg>
