<svg width="50" height="50" viewBox="0 0 50 50" fill="none" xmlns="http://www.w3.org/2000/svg">
<path d="M50 25C50 38.8071 38.8071 50 25 50C11.1929 50 0 38.8071 0 25C0 11.1929 11.1929 0 25 0C38.8071 0 50 11.1929 50 25Z" fill="black"/>
<path d="M50 25C50 38.8071 38.8071 50 25 50C11.1929 50 0 38.8071 0 25C0 11.1929 11.1929 0 25 0C38.8071 0 50 11.1929 50 25Z" fill="url(#paint0_linear)"/>
<path d="M37.909 18.1694L30.057 31.4358L24.441 21.954L28.9 14.4251C29.121 14.075 29.55 13.9268 29.914 14.0345L37.909 18.1694ZM38 35.8939C38 36.6616 37.35 36.9579 36.557 36.5404L30.434 33.3753L38 20.5802V35.8939ZM21.1 36.1094C21.1 36.8636 20.541 37.2138 19.891 36.8636L12.715 33.1733C12.325 32.9578 12 32.419 12 31.9611V14.8292C12 14.2231 12.429 13.9672 12.962 14.2096L20.71 18.2232L21.1 18.8428V36.1094ZM29.277 32.7692L22.4 29.2001V21.119L29.277 32.7692Z" fill="white"/>
<defs>
<linearGradient id="paint0_linear" x1="25" y1="50" x2="25" y2="0" gradientUnits="userSpaceOnUse">
<stop stop-color="#6762F4"/>
<stop offset="1" stop-color="#60BFFB"/>
</linearGradient>
</defs>
</svg>
