<svg width="70" height="70" viewBox="0 0 70 70" fill="none" xmlns="http://www.w3.org/2000/svg">
<circle cx="35" cy="35" r="35" fill="url(#paint0_linear)"/>
<path d="M13.9048 29.7178C13.214 29.3182 13.214 28.667 13.9048 28.2674L29.1325 19.3584C29.8233 18.9588 30.9404 18.9588 31.6313 19.3584L51.5478 30.9313C52.2386 31.3309 52.2386 31.982 51.5625 32.3816L36.3348 41.2907C35.644 41.6903 34.5269 41.6903 33.836 41.2907L13.9048 29.7178ZM33.4833 18.5C32.6749 18.0264 32.6749 17.2717 33.4686 16.7981C34.2623 16.3245 35.5705 16.3245 36.3789 16.7981C37.1873 17.2717 37.1873 18.0264 36.3936 18.5C35.5999 18.9736 34.2917 18.9736 33.4833 18.5ZM37.3343 20.7495C36.5259 20.2759 36.5259 19.5211 37.3196 19.0476C38.1133 18.574 39.4215 18.574 40.2299 19.0476C41.0383 19.5211 41.0383 20.2759 40.2446 20.7495C39.4509 21.223 38.1427 21.223 37.3343 20.7495ZM41.2 22.9841C40.3916 22.5106 40.3916 21.7558 41.1853 21.2822C41.979 20.8087 43.2872 20.8087 44.0956 21.2822C44.9041 21.7558 44.9041 22.5106 44.1103 22.9841C43.3019 23.4577 42.0084 23.4577 41.2 22.9841ZM57.9564 27.5423L37.4225 15.5994C36.0408 14.8002 33.8067 14.8002 32.4397 15.5994L12.0234 27.5423C10.6564 28.3414 10.6564 29.6438 12.0381 30.4577L32.5867 42.4006C33.9683 43.1998 36.2025 43.1998 37.5695 42.4006L57.9711 30.4577C59.3527 29.6438 59.338 28.3414 57.9564 27.5423Z" fill="url(#paint1_linear)" fill-opacity="0.5"/>
<path d="M51.5332 30.9312L31.6167 19.3583C30.9258 18.9587 29.8087 18.9587 29.1179 19.3583L13.8902 28.2674C13.1994 28.6669 13.1994 29.3181 13.8902 29.7177L33.8067 41.2906C34.4976 41.6902 35.6147 41.6902 36.3055 41.2906L51.5332 32.3815C52.224 31.982 52.224 31.3308 51.5332 30.9312Z" fill="url(#paint2_linear)"/>
<path d="M36.3788 16.8132C35.5704 16.3396 34.2769 16.3396 33.4685 16.8132C32.6747 17.2868 32.6747 18.0415 33.4832 18.5151C34.2916 18.9887 35.5998 18.9887 36.3935 18.5151C37.1872 18.0415 37.1872 17.272 36.3788 16.8132Z" fill="url(#paint3_linear)"/>
<path d="M40.2445 19.0481C39.4361 18.5745 38.1426 18.5745 37.3342 19.0481C36.5405 19.5216 36.5405 20.2764 37.3489 20.75C38.1573 21.2235 39.4655 21.2235 40.2592 20.75C41.0529 20.2764 41.0529 19.5216 40.2445 19.0481Z" fill="url(#paint4_linear)"/>
<path d="M44.0956 21.2971C43.2872 20.8235 41.9937 20.8235 41.1853 21.2971C40.3915 21.7706 40.3915 22.5254 41.2 22.999C42.0084 23.4725 43.3019 23.4725 44.1103 22.999C44.904 22.5254 44.904 21.7558 44.0956 21.2971Z" fill="url(#paint5_linear)"/>
<path d="M57.9564 34.5423L37.4225 22.5994C36.0408 21.8002 33.8067 21.8002 32.4397 22.5994L12.0234 34.5423C10.6564 35.3414 10.6564 36.6438 12.0381 37.4577L32.5867 49.4006C33.9683 50.1998 36.2025 50.1998 37.5695 49.4006L57.9711 37.4577C59.3527 36.6438 59.338 35.3414 57.9564 34.5423Z" fill="url(#paint6_linear)" fill-opacity="0.5"/>
<path d="M57.9564 41.5423L37.4225 29.5994C36.0408 28.8002 33.8067 28.8002 32.4397 29.5994L12.0234 41.5423C10.6564 42.3414 10.6564 43.6438 12.0381 44.4577L32.5867 56.4006C33.9683 57.1998 36.2025 57.1998 37.5695 56.4006L57.9711 44.4577C59.3527 43.6438 59.338 42.3414 57.9564 41.5423Z" fill="url(#paint7_linear)" fill-opacity="0.3"/>
<defs>
<linearGradient id="paint0_linear" x1="-3.28907e-05" y1="70" x2="70" y2="70" gradientUnits="userSpaceOnUse">
<stop stop-color="#A5AFFB"/>
<stop offset="1" stop-color="#6979F8"/>
</linearGradient>
<linearGradient id="paint1_linear" x1="38.9273" y1="58.5556" x2="49.3957" y2="17.4433" gradientUnits="userSpaceOnUse">
<stop stop-color="white"/>
<stop offset="1" stop-color="white" stop-opacity="0.6"/>
</linearGradient>
<linearGradient id="paint2_linear" x1="36.0002" y1="41" x2="35.1857" y2="12.3102" gradientUnits="userSpaceOnUse">
<stop stop-color="white"/>
<stop offset="1" stop-color="white" stop-opacity="0.6"/>
</linearGradient>
<linearGradient id="paint3_linear" x1="35.2674" y1="20.2104" x2="36.1738" y2="16.671" gradientUnits="userSpaceOnUse">
<stop stop-color="white"/>
<stop offset="1" stop-color="white" stop-opacity="0.6"/>
</linearGradient>
<linearGradient id="paint4_linear" x1="39.1331" y1="22.4453" x2="40.0395" y2="18.9058" gradientUnits="userSpaceOnUse">
<stop stop-color="white"/>
<stop offset="1" stop-color="white" stop-opacity="0.6"/>
</linearGradient>
<linearGradient id="paint5_linear" x1="42.9842" y1="24.6943" x2="43.8906" y2="21.1548" gradientUnits="userSpaceOnUse">
<stop stop-color="white"/>
<stop offset="1" stop-color="white" stop-opacity="0.6"/>
</linearGradient>
<linearGradient id="paint6_linear" x1="38.9273" y1="65.5556" x2="49.3957" y2="24.4433" gradientUnits="userSpaceOnUse">
<stop stop-color="white"/>
<stop offset="1" stop-color="white" stop-opacity="0.6"/>
</linearGradient>
<linearGradient id="paint7_linear" x1="38.9273" y1="72.5556" x2="49.3957" y2="31.4433" gradientUnits="userSpaceOnUse">
<stop stop-color="white"/>
<stop offset="1" stop-color="white" stop-opacity="0.6"/>
</linearGradient>
</defs>
</svg>
