<?xml version="1.0" encoding="UTF-8"?>
<svg width="135px" height="41px" viewBox="0 0 135 41" version="1.1" xmlns="http://www.w3.org/2000/svg" xmlns:xlink="http://www.w3.org/1999/xlink">
    <!-- Generator: Sketch 52.6 (67491) - http://www.bohemiancoding.com/sketch -->
    <title>Group 17</title>
    <desc>Created with Sketch.</desc>
    <defs>
        <polygon id="path-1" points="0 0.42205 17.1579607 0.42205 17.1579607 6.11405 0 6.11405"></polygon>
        <polygon id="path-3" points="0.337085771 0.00758750549 27.9655762 0.00758750549 27.9655762 39.8321 0.337085771 39.8321"></polygon>
    </defs>
    <g id="ICO-landing-page" stroke="none" stroke-width="1" fill="none" fill-rule="evenodd">
        <g id="favicon-copy" transform="translate(-7.000000, -4.000000)">
            <g id="Group-17" transform="translate(7.000000, 4.000000)">
                <path d="M11.0628736,13.2159 L10.4942677,16.4329 C10.3994164,16.9689 10.8134498,17.4599 11.359974,17.4599 L18.6956431,17.4599 C19.548803,17.4599 20.2790074,16.8499 20.4270558,16.0129 L20.9956617,12.7959 C21.0900112,12.2599 20.6764796,11.7679 20.1299554,11.7679 L12.7937844,11.7679 C11.9406245,11.7679 11.2109219,12.3784 11.0628736,13.2159" id="Fill-1" fill="#004DFD"></path>
                <path d="M7.32292193,31.50835 L6.75431599,34.72535 C6.65996654,35.26135 7.07349814,35.75285 7.6200223,35.75285 L18.3833866,35.75285 C19.2365465,35.75285 19.9667509,35.14285 20.1147993,34.30535 L20.6834052,31.08835 C20.7782565,30.55235 20.3637212,30.06085 19.8176989,30.06085 L9.05433457,30.06085 C8.20117472,30.06085 7.47097026,30.67135 7.32292193,31.50835" id="Fill-3" fill="#478EFF"></path>
                <g id="Group-7" transform="translate(0.000000, 20.492300)">
                    <mask id="mask-2" fill="white">
                        <use xlink:href="#path-1"></use>
                    </mask>
                    <g id="Clip-6"></g>
                    <path d="M0.582156134,1.87005 L0.0135501859,5.08655 C-0.0813011152,5.62255 0.332732342,6.11405 0.879256506,6.11405 L14.8444796,6.11405 C15.6976394,6.11405 16.4278439,5.50405 16.5758922,4.66655 L17.1444981,1.44955 C17.2388476,0.91355 16.825316,0.42205 16.2787918,0.42205 L2.31306691,0.42205 C1.46040892,0.42205 0.730204461,1.03255 0.582156134,1.87005" id="Fill-5" fill="#1573FF" mask="url(#mask-2)"></path>
                </g>
                <path d="M66.0957993,34.64265 C68.4419888,34.64265 70.5332342,33.93365 72.3710409,32.51465 C72.5431784,32.38215 72.6591078,32.18515 72.6987546,31.97165 L73.0641078,30.00665 C73.1403903,29.59365 72.9195725,29.17065 72.5231041,29.02815 C71.1540335,28.53815 69.6083086,28.29365 67.8844238,28.29365 C66.3562639,28.29365 65.0614684,28.59965 63.9995353,29.21215 C62.9371004,29.82465 62.405632,30.76315 62.405632,32.02565 C62.405632,32.80515 62.7413755,33.43615 63.4123606,33.91865 C64.0828439,34.40165 64.9771561,34.64265 66.0957993,34.64265 Z M72.3118216,40.32415 C71.7572677,40.32415 71.3412268,39.81915 71.4501301,39.27715 L71.6870074,38.09565 C70.9041078,38.91365 69.8226022,39.60015 68.4444981,40.15665 C67.0648885,40.71465 65.6105019,40.99215 64.0828439,40.99215 C61.5860967,40.99215 59.4893309,40.24065 57.794052,38.73665 C56.0972677,37.23315 55.2501301,35.21915 55.2501301,32.69315 C55.2501301,29.46265 56.4149442,26.90065 58.7445725,25.00715 C61.0726952,23.11265 64.1576208,22.16615 67.9968401,22.16615 C70.2697584,22.16615 72.3203532,22.72265 74.147119,23.83715 L74.3699442,22.72265 C74.5184944,22.01815 74.5942751,21.42415 74.5942751,20.94115 C74.5942751,18.67565 73.177026,17.54315 70.3445353,17.54315 C67.7393866,17.54315 65.0905762,18.28365 62.3981041,19.76615 C61.8771747,20.05315 61.2267658,19.73665 61.1203717,19.15315 L60.4985688,15.72915 C60.3680855,15.01065 60.6892751,14.27065 61.3276394,13.91265 C64.5576022,12.09915 67.954684,11.19315 71.5188848,11.19315 C72.5617472,11.19315 73.6151487,11.32315 74.6775836,11.58315 C75.7400186,11.84265 76.8300558,12.27865 77.948197,12.89165 C79.0663383,13.50465 79.9701859,14.42365 80.6602416,15.64865 C81.3492937,16.87415 81.6940706,18.34115 81.6940706,20.04965 C81.6940706,20.71715 81.5625836,21.83165 81.3031227,23.39165 L78.5935874,38.87415 C78.4465428,39.71265 77.7163383,40.32415 76.8616729,40.32415 L72.3118216,40.32415 Z" id="Fill-8" fill="#002769"></path>
                <path d="M93.2245762,40.99225 C90.8758773,40.99225 88.7138699,40.50975 86.7385539,39.54425 C85.0804126,38.73425 83.8292788,37.71475 82.9861561,36.48625 C82.7181636,36.09675 82.7969554,35.56575 83.1738513,35.27925 L86.4916394,32.75525 C87.1837026,32.22875 88.1352268,32.31175 88.7826245,32.89175 C90.2530706,34.20825 91.9759517,34.86575 93.9502639,34.86575 C95.0689071,34.86575 96.0274572,34.65225 96.8304312,34.22475 C97.6308959,33.79875 98.031881,33.15825 98.031881,32.30325 C98.031881,31.56125 97.3975316,30.80925 96.131342,30.04725 C94.8641487,29.28725 93.4654684,28.59075 91.9378104,27.95925 C90.4091487,27.32775 89.0114721,26.33525 87.7447807,24.97875 C86.4780892,23.62375 85.8442416,22.03625 85.8442416,20.21625 C85.8442416,17.46875 86.9061747,15.27775 89.0305428,13.64375 C91.1559145,12.00975 93.8945576,11.19275 97.2494833,11.19275 C99.3733494,11.19275 101.292457,11.65775 103.007309,12.58575 C104.351286,13.31325 105.420747,14.12075 106.21519,15.00825 C106.559967,15.39375 106.489204,15.99375 106.070654,16.29875 L102.679595,18.77225 C102.008108,19.26175 101.081677,19.21475 100.468907,18.65425 C99.414,17.69025 98.0805613,17.20875 96.4660818,17.20875 C95.3850781,17.20875 94.5103383,17.43125 93.8388513,17.87725 C93.1678662,18.32225 92.8331264,18.91775 92.8331264,19.65975 C92.8331264,20.21625 93.2602082,20.76475 94.1183866,21.30225 C94.9750595,21.84125 96.0098922,22.37975 97.221881,22.91825 C98.4318625,23.45675 99.634316,24.07925 100.827234,24.78375 C102.019651,25.48925 103.044446,26.42725 103.901621,27.59625 C104.759297,28.76625 105.187885,30.09425 105.187885,31.57975 C105.187885,34.51275 104.116416,36.81525 101.97348,38.48575 C99.8300409,40.15675 96.9137398,40.99225 93.2245762,40.99225" id="Fill-10" fill="#002769"></path>
                <path d="M51.263013,13.63435 C49.8281989,11.94485 47.7500019,11.09985 45.0289238,11.09985 C42.1587937,11.09985 39.8105967,12.26985 37.9848346,14.60885 L38.306526,12.79635 C38.4013773,12.25985 37.9873439,11.76835 37.4408197,11.76835 L32.6987565,11.76835 L31.2764888,11.76835 L29.6103178,11.76835 C28.757158,11.76835 28.0269535,12.37835 27.8789052,13.21585 L27.3102993,16.43285 C27.2159498,16.96885 27.6294814,17.45985 28.1760056,17.45985 L30.2702621,17.45985 L26.426526,39.20385 C26.3311729,39.73985 26.7452063,40.23135 27.2917305,40.23135 L31.9263959,40.23135 C32.7790539,40.23135 33.5087565,39.62185 33.6573067,38.78535 L36.3076227,23.85535 C36.6433662,21.88785 37.3976599,20.40235 38.5720093,19.39885 C39.7463587,18.39635 41.0045186,17.89535 42.345987,17.89535 C44.7684591,17.89535 45.980448,19.19535 45.980448,21.79435 C45.980448,22.42635 45.8866004,23.33535 45.7004108,24.52385 L43.0877342,39.20285 C42.9928829,39.73935 43.4064145,40.23135 43.9534405,40.23135 L48.5891097,40.23135 C49.4407639,40.23135 50.1699647,39.62285 50.3195186,38.78735 L52.968329,23.96635 C53.2664331,22.33285 53.415987,21.03435 53.415987,20.06785 C53.415987,17.46885 52.6973253,15.32435 51.263013,13.63435" id="Fill-12" fill="#002769"></path>
                <g id="Group-16" transform="translate(106.895911, 0.492300)">
                    <mask id="mask-4" fill="white">
                        <use xlink:href="#path-3"></use>
                    </mask>
                    <g id="Clip-15"></g>
                    <path d="M27.0865706,34.1401 L25.0043587,34.1401 L26.8938569,23.5671 C27.191961,21.9341 27.341013,20.6346 27.341013,19.6686 C27.341013,17.0691 26.6223513,14.9251 25.1885409,13.2346 C23.7532249,11.5456 21.6755297,10.7006 18.9544517,10.7006 C16.0838197,10.7006 13.7175558,11.8891 11.8541543,14.2656 L14.2274442,1.0386 C14.3433736,0.3911 13.7285967,-0.1479 13.0987639,0.0486 L7.8427974,1.6921 C7.21597584,1.8886 6.75125465,2.4166 6.63833643,3.0611 L0.350548327,38.8051 C0.256198885,39.3411 0.669730483,39.8321 1.21625465,39.8321 L6.58865242,39.8321 C7.01523234,39.8321 7.37958178,39.5271 7.45435874,39.1091 L10.2326487,23.4561 C10.5683922,21.4881 11.3231877,20.0031 12.4970353,19.0001 C13.6713848,17.9971 14.9295446,17.4961 16.271013,17.4961 C18.6929833,17.4961 19.9049721,18.7966 19.9049721,21.3951 C19.9049721,22.0271 19.8116264,22.9361 19.6254368,24.1251 L17.0132621,38.8036 C16.9174071,39.3396 17.3319424,39.8321 17.8784665,39.8321 L19.7187825,39.8321 L23.9865892,39.8321 L25.6527602,39.8321 C26.5059201,39.8321 27.2356227,39.2216 27.383671,38.3846 L27.952277,35.1681 C28.0471283,34.6316 27.6330948,34.1401 27.0865706,34.1401" id="Fill-14" fill="#002769" mask="url(#mask-4)"></path>
                </g>
            </g>
        </g>
    </g>
</svg>