<svg width="26" height="23" viewBox="0 0 26 23" fill="none" xmlns="http://www.w3.org/2000/svg">
<path d="M25.909 4.16937L18.057 17.4358L12.441 7.95402L16.9 0.425132C17.121 0.0749513 17.55 -0.0732021 17.914 0.0345459L25.909 4.16937ZM26 21.8939C26 22.6616 25.35 22.9579 24.557 22.5404L18.434 19.3753L26 6.58023V21.8939ZM9.1 22.1094C9.1 22.8636 8.541 23.2138 7.891 22.8636L0.715 19.1733C0.325 18.9578 0 18.419 0 17.9611V0.829187C0 0.223105 0.429 -0.0327965 0.962 0.209636L8.71 4.22325L9.1 4.8428V22.1094ZM17.277 18.7692L10.4 15.2001V7.11897L17.277 18.7692Z" fill="white"/>
</svg>
