<svg width="113" height="61" viewBox="0 0 113 61" fill="none" xmlns="http://www.w3.org/2000/svg">
<path fill-rule="evenodd" clip-rule="evenodd" d="M0 30.7372C0 14.1686 13.4312 0.737061 30 0.737061C46.5688 0.737061 60 14.1686 60 30.7372C60 47.3055 46.5688 60.7371 30 60.7371C13.4312 60.7371 0 47.3055 0 30.7372ZM7.5 30.7363C7.5 43.1628 17.5732 53.2361 30 53.2361C42.4268 53.2361 52.4998 43.163 52.4998 30.7363C52.4998 18.3096 42.4268 8.23608 30 8.23608C17.5732 8.23608 7.5 18.3097 7.5 30.7363Z" fill="url(#paint0_linear)"/>
<path d="M79.3663 40.1132V31.5261C79.3663 30.1945 79.1009 29.2261 78.5704 28.6211C78.0398 28.0163 77.217 27.7138 76.1021 27.7138C74.6027 27.7138 73.505 28.1139 72.8091 28.9135C72.1131 29.7133 71.7652 31.0106 71.7652 32.8051V40.1132H70.6233V26.8733H71.5922L71.8114 28.6882H71.8805C72.6955 27.3078 74.145 26.6174 76.229 26.6174C79.074 26.6174 80.4967 28.2294 80.4967 31.453V40.1131H79.3663V40.1132Z" fill="white"/>
<path fill-rule="evenodd" clip-rule="evenodd" d="M97.5959 37.9468C98.9685 36.339 99.6548 34.0856 99.6548 31.1866C99.6548 28.2798 98.9702 26.0265 97.6016 24.4268C96.2329 22.8271 94.2952 22.0273 91.7883 22.0273C89.2432 22.0273 87.2844 22.8149 85.9116 24.3903C84.5391 25.9656 83.8528 28.223 83.8528 31.1625C83.8528 34.1021 84.5352 36.3694 85.9001 37.9651C87.2649 39.5605 89.22 40.3584 91.7654 40.3584C94.2798 40.3584 96.2234 39.5546 97.5959 37.9468ZM88.0398 36.1746C87.2014 35.0419 86.7825 33.3793 86.7825 31.1868C86.7825 29.0026 87.2036 27.3461 88.0454 26.2173C88.8875 25.0885 90.135 24.524 91.7883 24.524C93.4263 24.524 94.6584 25.0886 95.4851 26.2173C96.3115 27.3459 96.7251 29.0026 96.7251 31.1866C96.7251 33.4036 96.3079 35.0723 95.4736 36.1929C94.6392 37.3135 93.4031 37.8737 91.7654 37.8737C90.1196 37.8737 88.8777 37.3074 88.0398 36.1746Z" fill="white"/>
<path d="M113 35.2782C113 36.8617 112.458 38.1041 111.374 39.0054C110.289 39.9068 108.794 40.3574 106.887 40.3574C104.98 40.3574 103.419 40.0448 102.204 39.4195V36.6668C102.973 37.0486 103.79 37.3489 104.655 37.5682C105.52 37.7875 106.325 37.8972 107.071 37.8972C108.163 37.8972 108.969 37.6779 109.488 37.2394C110.007 36.8009 110.266 36.2123 110.266 35.4733C110.266 34.8075 110.028 34.2432 109.551 33.7802C109.074 33.3174 108.09 32.7693 106.598 32.1359C105.06 31.4781 103.976 30.7272 103.346 29.8825C102.715 29.038 102.4 28.023 102.4 26.8374C102.4 25.3514 102.9 24.1821 103.899 23.3295C104.899 22.4769 106.241 22.0505 107.925 22.0505C109.54 22.0505 111.147 22.4242 112.746 23.1712L111.869 25.5463C110.37 24.8806 109.032 24.5476 107.856 24.5476C106.963 24.5476 106.287 24.7528 105.826 25.1627C105.364 25.5729 105.133 26.115 105.133 26.7889C105.133 27.2516 105.226 27.6476 105.41 27.9765C105.595 28.3055 105.899 28.616 106.322 28.9083C106.744 29.2007 107.506 29.5864 108.605 30.0654C109.843 30.6095 110.751 31.1171 111.327 31.5879C111.904 32.059 112.327 32.591 112.596 33.1836C112.865 33.7763 113 34.4745 113 35.2782Z" fill="white"/>
<defs>
<linearGradient id="paint0_linear" x1="-2.8192e-05" y1="60.7371" x2="60" y2="60.7371" gradientUnits="userSpaceOnUse">
<stop stop-color="#B9D532"/>
<stop offset="1" stop-color="#5BBA47"/>
</linearGradient>
</defs>
</svg>
