<svg width="28" height="26" viewBox="0 0 28 26" fill="none" xmlns="http://www.w3.org/2000/svg">
<path d="M28 12.2662C28 11.2289 27.6714 10.3832 27.0141 9.72918C26.3568 9.07519 25.5243 8.72565 24.5164 8.68054C23.6401 8.68054 22.8951 8.97371 22.2817 9.56005C20.1784 8.20697 17.6588 7.44022 14.723 7.25981L16.2347 1.44155L21.0329 2.92994C21.0329 3.74179 21.2958 4.41833 21.8216 4.95957C22.3474 5.5008 23.0047 5.77142 23.7934 5.77142C24.5822 5.77142 25.2504 5.5008 25.7981 4.95957C26.3459 4.41833 26.6197 3.74179 26.6197 2.92994C26.6197 2.11809 26.3459 1.43028 25.7981 0.866493C25.2504 0.302709 24.5822 0.0208167 23.7934 0.0208167C23.3114 0.0208167 22.8513 0.156124 22.4131 0.426741C21.975 0.697357 21.6463 1.03563 21.4272 1.44155L15.8404 0.0208167C15.4022 -0.0693888 15.1174 0.133573 14.9859 0.629704L13.277 7.25981C11.8748 7.30491 10.5274 7.53042 9.23474 7.93635C7.9421 8.34227 6.76995 8.88351 5.71831 9.56005C5.10485 8.97371 4.35994 8.68054 3.48357 8.68054C2.47574 8.72565 1.64319 9.07519 0.985916 9.72918C0.328639 10.3832 0 11.2289 0 12.2662C0 13.5742 0.503913 14.589 1.51174 15.3106L1.38028 16.5961C1.46792 19.2571 2.69484 21.4784 5.06103 23.26C7.42723 25.0416 10.4069 25.9549 14 26C17.5931 25.9549 20.5728 25.0416 22.939 23.26C25.3052 21.4784 26.5321 19.2571 26.6197 16.5961L26.4883 15.3106C27.4961 14.589 28 13.5742 28 12.2662ZM9.79343 12.7398C10.2754 12.7398 10.6698 12.9089 10.9765 13.2472C11.2833 13.5855 11.4366 13.9801 11.4366 14.4311C11.4366 14.8822 11.2833 15.2881 10.9765 15.6489C10.6698 16.0097 10.2754 16.1902 9.79343 16.1902C9.31142 16.1902 8.91706 16.0323 8.61033 15.7166C8.3036 15.4009 8.15023 14.9837 8.15023 14.465C8.15023 13.9463 8.3036 13.5291 8.61033 13.2134C8.91706 12.8977 9.31142 12.7398 9.79343 12.7398ZM19.3239 20.52C17.9218 21.3319 16.1471 21.7378 14 21.7378C11.8529 21.7378 10.0782 21.3319 8.67606 20.52C8.5446 20.3847 8.45696 20.2156 8.41315 20.0126C8.36933 19.8096 8.41314 19.6405 8.5446 19.5052C8.67606 19.3699 8.82942 19.2797 9.00469 19.2346C9.17997 19.1895 9.35524 19.2346 9.53052 19.3699C10.5383 20.0013 12.0282 20.3171 14 20.3171C15.9718 20.3171 17.4617 20.0013 18.4695 19.3699C18.6448 19.2346 18.82 19.1895 18.9953 19.2346C19.1706 19.2797 19.3239 19.3699 19.4554 19.5052C19.5869 19.6405 19.6307 19.8096 19.5869 20.0126C19.543 20.2156 19.4554 20.3847 19.3239 20.52ZM18.2066 16.1902C17.7246 16.1902 17.3302 16.0097 17.0235 15.6489C16.7167 15.2881 16.5634 14.8709 16.5634 14.3973C16.5634 13.9237 16.7277 13.5291 17.0563 13.2134C17.385 12.8977 17.7793 12.7398 18.2394 12.7398C18.6995 12.7398 19.0829 12.9089 19.3897 13.2472C19.6964 13.5855 19.8498 14.0027 19.8498 14.4988C19.8498 14.9949 19.6964 15.4009 19.3897 15.7166C19.0829 16.0323 18.6886 16.1902 18.2066 16.1902Z" fill="url(#paint0_linear)"/>
<defs>
<linearGradient id="paint0_linear" x1="13.9982" y1="1.11139e-07" x2="13.9982" y2="26" gradientUnits="userSpaceOnUse">
<stop stop-color="#A5AFFB"/>
<stop offset="1" stop-color="#6979F8"/>
</linearGradient>
</defs>
</svg>
