<svg width="70" height="70" viewBox="0 0 70 70" fill="none" xmlns="http://www.w3.org/2000/svg">
<circle cx="35" cy="35" r="35" fill="url(#paint0_linear)"/>
<mask id="mask0" mask-type="alpha" maskUnits="userSpaceOnUse" x="0" y="0" width="70" height="70">
<circle cx="35" cy="35" r="35" fill="black"/>
</mask>
<g mask="url(#mask0)">
<path d="M29.9462 49.8458C31.5768 49.8458 33.0791 50.6659 33.9648 52.0398C33.9866 52.0737 34.0232 52.0955 34.0634 52.0984C34.0666 52.0987 34.07 52.0988 34.0732 52.0988C34.1101 52.0988 34.1453 52.0831 34.1698 52.0552C35.4975 50.5534 37.4063 49.692 39.4068 49.692C40.0885 49.692 40.7469 49.7918 41.3702 49.9747L39.0697 44.0779H30.9298L28.6042 50.039C29.0303 49.914 29.4803 49.8458 29.9462 49.8458Z" fill="white"/>
<path d="M29.9462 49.8458C31.5768 49.8458 33.0791 50.6659 33.9648 52.0398C33.9866 52.0737 34.0232 52.0955 34.0634 52.0984C34.0666 52.0987 34.07 52.0988 34.0732 52.0988C34.1101 52.0988 34.1453 52.0831 34.1698 52.0552C35.4975 50.5534 37.4063 49.692 39.4068 49.692C40.0885 49.692 40.7469 49.7918 41.3702 49.9747L39.0697 44.0779H30.9298L28.6042 50.039C29.0303 49.914 29.4803 49.8458 29.9462 49.8458Z" fill="url(#paint1_linear)" fill-opacity="0.15" style="mix-blend-mode:multiply"/>
<path d="M31.9915 44.0776H30.9303L28.6047 50.0388C28.9667 49.9327 29.3467 49.8704 29.7383 49.8532L31.9915 44.0776Z" fill="url(#paint2_linear)" fill-opacity="0.2" style="mix-blend-mode:multiply"/>
<path d="M23.9913 56.5198C23.9989 56.5695 24.0258 56.6142 24.0663 56.644C24.0987 56.6679 24.1379 56.6805 24.1777 56.6805C24.1875 56.6805 24.1975 56.6798 24.2073 56.6783C24.8801 56.5712 25.5557 56.5169 26.2154 56.5169C29.4379 56.5169 32.5119 57.7278 34.8716 59.9264C34.9078 59.9601 34.954 59.9769 35.0002 59.9769C35.0463 59.9769 35.0925 59.9601 35.1287 59.9264C37.4882 57.7278 40.5624 56.5169 43.7849 56.5169C44.4444 56.5169 45.1202 56.5712 45.793 56.6783C45.803 56.6798 45.8128 56.6805 45.8226 56.6805C45.8624 56.6805 45.9016 56.6679 45.934 56.644C45.9745 56.6142 46.0014 56.5695 46.009 56.5198C46.3573 54.1757 47.2395 51.9556 48.563 50.018C46.7014 48.2706 44.1984 47.1982 41.4433 47.1982C38.338 47.1982 35.5522 48.5601 33.6455 50.717C32.3685 48.7361 30.1442 47.4231 27.6119 47.4231C25.1828 47.4231 23.0373 48.6313 21.739 50.4784C22.8943 52.3044 23.6704 54.359 23.9913 56.5198Z" fill="white"/>
<path d="M23.9913 56.5198C23.9989 56.5695 24.0258 56.6142 24.0663 56.644C24.0987 56.6679 24.1379 56.6805 24.1777 56.6805C24.1875 56.6805 24.1975 56.6798 24.2073 56.6783C24.8801 56.5712 25.5557 56.5169 26.2154 56.5169C29.4379 56.5169 32.5119 57.7278 34.8716 59.9264C34.9078 59.9601 34.954 59.9769 35.0002 59.9769C35.0463 59.9769 35.0925 59.9601 35.1287 59.9264C37.4882 57.7278 40.5624 56.5169 43.7849 56.5169C44.4444 56.5169 45.1202 56.5712 45.793 56.6783C45.803 56.6798 45.8128 56.6805 45.8226 56.6805C45.8624 56.6805 45.9016 56.6679 45.934 56.644C45.9745 56.6142 46.0014 56.5695 46.009 56.5198C46.3573 54.1757 47.2395 51.9556 48.563 50.018C46.7014 48.2706 44.1984 47.1982 41.4433 47.1982C38.338 47.1982 35.5522 48.5601 33.6455 50.717C32.3685 48.7361 30.1442 47.4231 27.6119 47.4231C25.1828 47.4231 23.0373 48.6313 21.739 50.4784C22.8943 52.3044 23.6704 54.359 23.9913 56.5198Z" fill="url(#paint3_linear)" fill-opacity="0.4" style="mix-blend-mode:multiply"/>
<path d="M62.4454 43.0294C62.1284 43.0105 61.8092 43 61.4873 43C53.5372 43 46.9567 48.8578 45.8225 56.4922C46.4135 56.586 46.9902 56.7225 47.5515 56.8938C49.1274 49.6797 55.0534 44.0935 62.4454 43.0294Z" fill="#293D7C"/>
<path d="M43.7849 56.3286C40.3896 56.3286 37.3027 57.6433 35.0003 59.7886C32.6979 57.6431 29.611 56.3286 26.2157 56.3286C19.726 56.3286 14.3577 61.1242 13.4578 67.3646C19.8896 70.7639 27.2193 72.6915 35.0003 72.6915C42.7813 72.6915 50.111 70.7639 56.5428 67.3646C55.6429 61.1242 50.2746 56.3286 43.7849 56.3286Z" fill="white"/>
<path d="M24.1777 56.4922C23.0435 48.8576 16.463 43 8.51292 43C2.9938 43 -1.86399 45.8239 -4.69922 50.1045C-0.358182 57.3955 5.93476 63.3863 13.458 67.3621C14.2625 61.79 18.6309 57.3734 24.1777 56.4922Z" fill="white"/>
<path d="M24.1777 56.4922C23.0435 48.8576 16.463 43 8.51292 43C2.9938 43 -1.86399 45.8239 -4.69922 50.1045C-0.358182 57.3955 5.93476 63.3863 13.458 67.3621C14.2625 61.79 18.6309 57.3734 24.1777 56.4922Z" fill="url(#paint4_linear)" fill-opacity="0.15" style="mix-blend-mode:multiply"/>
<path d="M10.0945 44.9474C14.1336 44.9474 17.8361 46.3801 20.7285 48.7613C17.8237 45.2436 13.4314 43 8.51291 43C2.9938 43 -1.864 45.8239 -4.69922 50.1045C-4.32474 50.7334 -3.93463 51.3521 -3.53151 51.9612C-0.493688 47.7159 4.47587 44.9474 10.0945 44.9474Z" fill="url(#paint5_linear)" fill-opacity="0.2" style="mix-blend-mode:multiply"/>
<path d="M61.4873 43C53.5372 43 46.9567 48.8578 45.8225 56.4922C51.3693 57.3734 55.7377 61.79 56.5422 67.3621C64.0653 63.3863 70.3584 57.3953 74.6994 50.1045C71.8642 45.8239 67.0064 43 61.4873 43Z" fill="white"/>
<path d="M61.4873 43C53.5372 43 46.9567 48.8578 45.8225 56.4922C51.3693 57.3734 55.7377 61.79 56.5422 67.3621C64.0653 63.3863 70.3584 57.3953 74.6994 50.1045C71.8642 45.8239 67.0064 43 61.4873 43Z" fill="url(#paint6_linear)" fill-opacity="0.15" style="mix-blend-mode:multiply"/>
<path d="M28.91 57.9313C30.6882 57.9313 32.3851 58.2771 33.9382 58.9041C31.7854 57.2892 29.1136 56.3286 26.2152 56.3286C19.7255 56.3286 14.3572 61.1242 13.4573 67.3646C14.2155 67.7652 14.9865 68.1448 15.7688 68.5036C17.0893 62.4587 22.4688 57.9313 28.91 57.9313Z" fill="url(#paint7_linear)" fill-opacity="0.2" style="mix-blend-mode:multiply"/>
<path d="M25.0879 26.2293C25.0879 25.1781 25.1274 24.1297 25.2011 23.0889C22.0996 24.8354 19.9629 28.7263 19.9629 33.231C19.9629 35.6101 20.5544 37.8789 21.6735 39.7923C21.7785 39.972 21.9687 40.0747 22.1662 40.0747C22.2383 40.0747 22.3114 40.0611 22.3817 40.0323C23.8524 39.4311 25.424 39.1222 27.0538 39.1094C25.7669 35.1483 25.0879 30.7248 25.0879 26.2293Z" fill="url(#paint8_linear)"/>
<path d="M21.4247 33.231C21.4247 29.5103 22.8832 26.2098 25.1382 24.1891C25.1555 23.8216 25.1755 23.4547 25.2014 23.0889C22.0999 24.8354 19.9631 28.7263 19.9631 33.231C19.9631 35.6101 20.5547 37.8789 21.6737 39.7923C21.7788 39.972 21.9689 40.0747 22.1664 40.0747C22.2386 40.0747 22.3117 40.0611 22.3819 40.0323C22.6243 39.9332 22.8705 39.845 23.1181 39.7619C22.0104 37.8548 21.4247 35.5976 21.4247 33.231Z" fill="url(#paint9_linear)" style="mix-blend-mode:multiply"/>
<path d="M44.7986 23.0889C44.8723 24.1298 44.9117 25.1782 44.9117 26.2293C44.9117 30.7246 44.2328 35.1482 42.9458 39.1094C44.5757 39.1222 46.1472 39.4311 47.6179 40.0323C47.6881 40.0611 47.7613 40.0747 47.8334 40.0747C48.031 40.0747 48.221 39.9719 48.3261 39.7923C49.4453 37.8789 50.0367 35.6101 50.0367 33.231C50.0368 28.7263 47.9001 24.8354 44.7986 23.0889Z" fill="url(#paint10_linear)"/>
<path d="M30.064 40.5903V43.5621C30.064 43.9166 30.354 44.2067 30.7085 44.2067H39.2915C39.6459 44.2067 39.936 43.9166 39.936 43.5621V40.5903H30.064Z" fill="url(#paint11_linear)"/>
<path d="M32.2563 43.5621V40.5903H30.064V43.5621C30.064 43.9166 30.354 44.2067 30.7085 44.2067H32.9008C32.5463 44.2067 32.2563 43.9166 32.2563 43.5621Z" fill="url(#paint12_linear)" style="mix-blend-mode:multiply"/>
<path d="M42.8445 12.6426H27.1554C25.7176 16.7873 24.9592 21.4524 24.9592 26.2292C24.9592 31.1949 25.7828 36.0759 27.3408 40.3444C27.423 40.5695 27.637 40.7193 27.8766 40.7193H42.1232C42.3629 40.7193 42.577 40.5695 42.6591 40.3444C44.217 36.0759 45.0406 31.1949 45.0406 26.2292C45.0408 21.4524 44.2824 16.7874 42.8445 12.6426Z" fill="#EEF6FF"/>
<path d="M29.1679 40.3444C27.6098 36.0759 26.7863 31.1949 26.7863 26.2292C26.7863 21.4524 27.5447 16.7873 28.9825 12.6426H27.1556C25.7178 16.7873 24.9595 21.4524 24.9595 26.2292C24.9595 31.1949 25.7831 36.0759 27.341 40.3444C27.4233 40.5695 27.6372 40.7193 27.8769 40.7193H29.7037C29.4641 40.7193 29.2501 40.5695 29.1679 40.3444Z" fill="#D9EAFC"/>
<path d="M31.2847 12.6426V14.7816C31.2847 15.1361 31.5747 15.4262 31.9292 15.4262H38.0705C38.425 15.4262 38.7151 15.1361 38.7151 14.7816V12.6426H31.2847Z" fill="url(#paint13_linear)"/>
<path d="M32.7462 14.7816V12.6426H31.2847V14.7816C31.2847 15.1361 31.5747 15.4262 31.9292 15.4262H33.3907C33.0362 15.4262 32.7462 15.1361 32.7462 14.7816Z" fill="url(#paint14_linear)" style="mix-blend-mode:multiply"/>
<path d="M35.0002 1C34.8729 1 34.7458 1.04241 34.6412 1.1271C31.7616 3.45889 29.3361 6.99607 27.6272 11.3563C27.4455 11.8203 27.2747 12.2933 27.1108 12.7715H42.8893C42.7255 12.2933 42.5547 11.8203 42.373 11.3563C40.664 6.99607 38.2387 3.45889 35.359 1.1271C35.2545 1.04241 35.1274 1 35.0002 1Z" fill="url(#paint15_linear)"/>
<path d="M35.9136 1.59658C35.7307 1.43532 35.5459 1.27844 35.3592 1.1271C35.2545 1.04241 35.1274 1 35.0002 1C34.8729 1 34.7458 1.04241 34.6412 1.1271C31.7616 3.45889 29.3361 6.99607 27.6272 11.3563C27.4455 11.8203 27.2747 12.2933 27.1108 12.7715H28.9377C29.1015 12.2933 29.2723 11.8203 29.4541 11.3563C31.0523 7.27889 33.2769 3.92192 35.9136 1.59658Z" fill="url(#paint16_linear)" style="mix-blend-mode:multiply"/>
<path d="M34.9999 30.8999C38.6322 30.8999 41.5767 27.9554 41.5767 24.3231C41.5767 20.6909 38.6322 17.7463 34.9999 17.7463C31.3676 17.7463 28.4231 20.6909 28.4231 24.3231C28.4231 27.9554 31.3676 30.8999 34.9999 30.8999Z" fill="url(#paint17_linear)"/>
<path d="M35 28.5422C37.3302 28.5422 39.2192 26.6532 39.2192 24.323C39.2192 21.9928 37.3302 20.1038 35 20.1038C32.6698 20.1038 30.7808 21.9928 30.7808 24.323C30.7808 26.6532 32.6698 28.5422 35 28.5422Z" fill="white"/>
<g opacity="0.15">
<path d="M32.3275 24.3235C32.3275 26.3895 33.8126 28.1075 35.7734 28.4709C35.5226 28.5173 35.2644 28.5428 35 28.5428C32.6696 28.5428 30.7808 26.6537 30.7808 24.3235C30.7808 21.9932 32.6697 20.1042 35 20.1042C35.2642 20.1042 35.5226 20.1298 35.7734 20.1762C33.8126 20.5396 32.3275 22.2575 32.3275 24.3235Z" fill="url(#paint18_linear)" style="mix-blend-mode:multiply"/>
</g>
<path d="M16.1974 24.0405C16.0495 24.0405 15.9162 23.9514 15.8596 23.8148C15.1399 22.0772 14.6094 21.5468 12.8718 20.8271C12.7352 20.7705 12.6462 20.6372 12.6462 20.4894C12.6462 20.3415 12.7353 20.2082 12.8718 20.1516C14.6095 19.4317 15.1399 18.9011 15.8596 17.1637C15.9162 17.0271 16.0495 16.938 16.1974 16.938C16.3452 16.938 16.4785 17.0271 16.5351 17.1637C17.2549 18.9011 17.7855 19.4317 19.523 20.1516C19.6596 20.2082 19.7487 20.3415 19.7487 20.4894C19.7487 20.6372 19.6596 20.7706 19.523 20.8271C17.7855 21.5466 17.2549 22.0772 16.5351 23.8148C16.4785 23.9514 16.3452 24.0405 16.1974 24.0405Z" fill="url(#paint19_linear)"/>
<path d="M16.5904 23.0839C15.8707 21.3463 15.3401 20.8159 13.6026 20.0962C13.5167 20.0608 13.4498 19.9948 13.4118 19.9141C13.245 19.9922 13.0671 20.0706 12.8718 20.1515C12.7352 20.2081 12.6462 20.3414 12.6462 20.4892C12.6462 20.6371 12.7353 20.7705 12.8718 20.827C14.6094 21.5467 15.1399 22.0771 15.8596 23.8146C15.9162 23.9513 16.0495 24.0404 16.1974 24.0404C16.3452 24.0404 16.4785 23.9513 16.5351 23.8146C16.6159 23.6193 16.6944 23.4415 16.7724 23.2748C16.6918 23.2368 16.626 23.1697 16.5904 23.0839Z" fill="url(#paint20_linear)" style="mix-blend-mode:multiply"/>
<path d="M55.0411 26.9622C54.9112 26.9622 54.794 26.8839 54.7443 26.7638C54.1117 25.2365 53.6453 24.7702 52.1181 24.1377C51.9981 24.0881 51.9197 23.9708 51.9197 23.8408C51.9197 23.7108 51.9979 23.5937 52.1181 23.544C53.6455 22.9112 54.1117 22.4448 54.7443 20.9176C54.794 20.7975 54.9112 20.7192 55.0411 20.7192C55.1711 20.7192 55.2883 20.7975 55.338 20.9176C55.9707 22.4449 56.4371 22.9112 57.9645 23.544C58.0845 23.5937 58.1627 23.7108 58.1627 23.8408C58.1627 23.9708 58.0845 24.0879 57.9643 24.1377C56.4371 24.7702 55.9707 25.2365 55.338 26.7638C55.2884 26.8838 55.1712 26.9622 55.0411 26.9622Z" fill="white"/>
<path d="M55.3865 26.1215C54.7538 24.5942 54.2876 24.128 52.7602 23.4953C52.6848 23.4641 52.6258 23.4062 52.5925 23.3352C52.4459 23.4038 52.2894 23.4727 52.1178 23.5439C51.9978 23.5937 51.9194 23.7107 51.9194 23.8408C51.9194 23.9707 51.9977 24.0879 52.1178 24.1376C53.6452 24.7702 54.1115 25.2364 54.744 26.7637C54.7938 26.8839 54.911 26.9621 55.0409 26.9621C55.1708 26.9621 55.288 26.8839 55.3378 26.7637C55.4088 26.5922 55.4778 26.4357 55.5465 26.2891C55.4757 26.2558 55.4178 26.1969 55.3865 26.1215Z" fill="#D9EAFC"/>
<path d="M51.6896 13.3842C51.5381 13.3842 51.4016 13.2929 51.3436 13.153C50.6065 11.3734 50.0632 10.83 48.2835 10.0931C48.1436 10.0352 48.0525 9.89855 48.0525 9.74721C48.0525 9.59562 48.1438 9.45923 48.2835 9.40123C50.0633 8.66388 50.6066 8.12054 51.3436 6.34112C51.4016 6.20113 51.5381 6.10986 51.6896 6.10986C51.841 6.10986 51.9776 6.20113 52.0356 6.34112C52.7728 8.12067 53.3161 8.66401 55.0958 9.40123C55.2357 9.45923 55.3268 9.59562 55.3268 9.74721C55.3268 9.89855 55.2355 10.0352 55.0957 10.0931C53.316 10.83 52.7728 11.3735 52.0354 13.153C51.9776 13.2929 51.841 13.3842 51.6896 13.3842Z" fill="url(#paint21_linear)"/>
<path d="M52.092 12.4045C51.3548 10.6249 50.8115 10.0816 49.0318 9.34449C48.9439 9.30814 48.8754 9.24059 48.8364 9.15796C48.6657 9.23801 48.4833 9.31832 48.2832 9.40108C48.1434 9.45908 48.0522 9.59547 48.0522 9.74706C48.0522 9.8984 48.1435 10.035 48.2832 10.0929C50.0629 10.83 50.6064 11.3733 51.3434 13.1529C51.4014 13.2928 51.5379 13.384 51.6893 13.384C51.8408 13.384 51.9773 13.2928 52.0353 13.1529C52.1182 12.9528 52.1985 12.7706 52.2784 12.5999C52.1958 12.561 52.1284 12.4924 52.092 12.4045Z" fill="url(#paint22_linear)" style="mix-blend-mode:multiply"/>
</g>
<defs>
<linearGradient id="paint0_linear" x1="38" y1="70" x2="38" y2="19.5" gradientUnits="userSpaceOnUse">
<stop stop-color="#32D5D5"/>
<stop offset="1" stop-color="#475ABA"/>
</linearGradient>
<linearGradient id="paint1_linear" x1="35.5343" y1="52.0988" x2="35.5343" y2="44.3071" gradientUnits="userSpaceOnUse">
<stop stop-color="#32D5D5"/>
<stop offset="1" stop-color="#475ABA"/>
</linearGradient>
<linearGradient id="paint2_linear" x1="30.4433" y1="50.0388" x2="30.4433" y2="44.248" gradientUnits="userSpaceOnUse">
<stop stop-color="#32D5D5"/>
<stop offset="1" stop-color="#475ABA"/>
</linearGradient>
<linearGradient id="paint3_linear" x1="36.3006" y1="59.9769" x2="36.3006" y2="47.5633" gradientUnits="userSpaceOnUse">
<stop stop-color="#32D5D5"/>
<stop offset="1" stop-color="#475ABA"/>
</linearGradient>
<linearGradient id="paint4_linear" x1="10.9768" y1="67.3621" x2="10.9768" y2="43.6961" gradientUnits="userSpaceOnUse">
<stop stop-color="#32D5D5"/>
<stop offset="1" stop-color="#475ABA"/>
</linearGradient>
<linearGradient id="paint5_linear" x1="9.10438" y1="51.9612" x2="9.10438" y2="43.256" gradientUnits="userSpaceOnUse">
<stop stop-color="#32D5D5"/>
<stop offset="1" stop-color="#475ABA"/>
</linearGradient>
<linearGradient id="paint6_linear" x1="61.4985" y1="67.3621" x2="61.4985" y2="43.6961" gradientUnits="userSpaceOnUse">
<stop stop-color="#32D5D5"/>
<stop offset="1" stop-color="#475ABA"/>
</linearGradient>
<linearGradient id="paint7_linear" x1="24.5755" y1="68.5036" x2="24.5755" y2="56.6765" gradientUnits="userSpaceOnUse">
<stop stop-color="#32D5D5"/>
<stop offset="1" stop-color="#475ABA"/>
</linearGradient>
<linearGradient id="paint8_linear" x1="23.5083" y1="23.0889" x2="23.5083" y2="40.0747" gradientUnits="userSpaceOnUse">
<stop stop-color="#F1408C"/>
<stop offset="1" stop-color="#FF8A8D"/>
</linearGradient>
<linearGradient id="paint9_linear" x1="22.5823" y1="23.0889" x2="22.5823" y2="40.0747" gradientUnits="userSpaceOnUse">
<stop stop-color="#F1408C"/>
<stop offset="1" stop-color="#FF8A8D"/>
</linearGradient>
<linearGradient id="paint10_linear" x1="46.4912" y1="23.0889" x2="46.4912" y2="40.0747" gradientUnits="userSpaceOnUse">
<stop stop-color="#F1408C"/>
<stop offset="1" stop-color="#FF8A8D"/>
</linearGradient>
<linearGradient id="paint11_linear" x1="35" y1="40.5903" x2="35" y2="44.2067" gradientUnits="userSpaceOnUse">
<stop stop-color="#F1408C"/>
<stop offset="1" stop-color="#FF8A8D"/>
</linearGradient>
<linearGradient id="paint12_linear" x1="31.4824" y1="40.5903" x2="31.4824" y2="44.2067" gradientUnits="userSpaceOnUse">
<stop stop-color="#F1408C"/>
<stop offset="1" stop-color="#FF8A8D"/>
</linearGradient>
<linearGradient id="paint13_linear" x1="34.9999" y1="12.6426" x2="34.9999" y2="15.4262" gradientUnits="userSpaceOnUse">
<stop stop-color="#F1408C"/>
<stop offset="1" stop-color="#FF8A8D"/>
</linearGradient>
<linearGradient id="paint14_linear" x1="32.3377" y1="12.6426" x2="32.3377" y2="15.4262" gradientUnits="userSpaceOnUse">
<stop stop-color="#F1408C"/>
<stop offset="1" stop-color="#FF8A8D"/>
</linearGradient>
<linearGradient id="paint15_linear" x1="35.0001" y1="1" x2="35.0001" y2="12.7715" gradientUnits="userSpaceOnUse">
<stop stop-color="#F1408C"/>
<stop offset="1" stop-color="#FF8A8D"/>
</linearGradient>
<linearGradient id="paint16_linear" x1="31.5122" y1="1" x2="31.5122" y2="12.7715" gradientUnits="userSpaceOnUse">
<stop stop-color="#F1408C"/>
<stop offset="1" stop-color="#FF8A8D"/>
</linearGradient>
<linearGradient id="paint17_linear" x1="34.9999" y1="17.7463" x2="34.9999" y2="30.8999" gradientUnits="userSpaceOnUse">
<stop stop-color="#F1408C"/>
<stop offset="1" stop-color="#FF8A8D"/>
</linearGradient>
<linearGradient id="paint18_linear" x1="33.2771" y1="20.1042" x2="33.2771" y2="28.5428" gradientUnits="userSpaceOnUse">
<stop stop-color="#F1408C"/>
<stop offset="1" stop-color="#FF8A8D"/>
</linearGradient>
<linearGradient id="paint19_linear" x1="12.6462" y1="24.0405" x2="19.7487" y2="24.0405" gradientUnits="userSpaceOnUse">
<stop stop-color="#FBDE8D"/>
<stop offset="1" stop-color="#FD7D52"/>
</linearGradient>
<linearGradient id="paint20_linear" x1="12.6462" y1="24.0404" x2="16.7724" y2="24.0404" gradientUnits="userSpaceOnUse">
<stop stop-color="#FBDE8D"/>
<stop offset="1" stop-color="#FD7D52"/>
</linearGradient>
<linearGradient id="paint21_linear" x1="48.0525" y1="13.3842" x2="55.3268" y2="13.3842" gradientUnits="userSpaceOnUse">
<stop stop-color="#FBDE8D"/>
<stop offset="1" stop-color="#FD7D52"/>
</linearGradient>
<linearGradient id="paint22_linear" x1="48.0522" y1="13.384" x2="52.2784" y2="13.384" gradientUnits="userSpaceOnUse">
<stop stop-color="#FBDE8D"/>
<stop offset="1" stop-color="#FD7D52"/>
</linearGradient>
</defs>
</svg>
