<svg width="70" height="70" viewBox="0 0 70 70" fill="none" xmlns="http://www.w3.org/2000/svg">
<circle cx="35" cy="35" r="35" fill="url(#paint0_linear)"/>
<path d="M46.7869 17.0674C45.4764 14.6168 43.9066 13.3748 42.1207 13.3748C40.0649 13.3748 37.9299 15.0545 35.7728 18.3698C35.4968 18.7942 35.2383 19.2185 35 19.628C34.7617 19.2185 34.5032 18.7942 34.2266 18.3698C32.0708 15.0545 29.9351 13.3748 27.8793 13.3748C26.0935 13.3748 24.5231 14.6168 23.2132 17.0674C22.2337 18.9016 22.5868 20.2189 23.0555 21.0004C23.9 22.409 25.788 23.3583 28.8273 23.9008C31.161 24.3184 33.6305 24.3801 34.8946 24.3801C34.9302 24.3801 34.9658 24.3801 35.0001 24.3801C35.035 24.3801 35.0699 24.3801 35.1055 24.3801C36.3698 24.3801 38.8392 24.3184 41.1729 23.9008C44.2116 23.3583 46.0996 22.409 46.9456 21.0004C47.4127 20.2189 47.7672 18.9016 46.7869 17.0674Z" fill="#FDA56D"/>
<path d="M54.25 31.0858C54.25 30.0734 53.4282 29.2529 52.4157 29.2529H17.5835C16.5711 29.2529 15.75 30.0734 15.75 31.0858V52.7917C15.75 53.8042 16.5711 54.6245 17.5835 54.6245H52.4158C53.4282 54.6245 54.2501 53.8042 54.2501 52.7917L54.25 31.0858Z" fill="#475ABB"/>
<path d="M56.9999 32.6261C56.9999 33.6386 56.1782 34.459 55.1657 34.459H14.8336C13.8212 34.4589 13 33.6385 13 32.626V23.459C13 22.4466 13.8212 21.6248 14.8336 21.6248H55.1658C56.1782 21.6248 57 22.4465 57 23.459L56.9999 32.6261Z" fill="#4568BE"/>
<path d="M39.5848 21.6245H30.4167V34.457H39.5848V21.6245Z" fill="#FEBD95"/>
<path d="M15.75 36.2716L54.25 39.7721V34.5166H15.75V36.2716Z" fill="#25499E"/>
<path d="M39.5848 34.4578H30.4167V54.6252H39.5848V34.4578Z" fill="#FDA269"/>
<path d="M30.4165 37.6049L39.5843 38.4388V34.5166H30.4165V37.6049Z" fill="#FD7E53"/>
<defs>
<linearGradient id="paint0_linear" x1="35" y1="0" x2="35" y2="56" gradientUnits="userSpaceOnUse">
<stop stop-color="#FF8A8D"/>
<stop offset="1" stop-color="#F2458D"/>
</linearGradient>
</defs>
</svg>
