<svg width="112" height="139" viewBox="0 0 112 139" fill="none" xmlns="http://www.w3.org/2000/svg">
<path fill-rule="evenodd" clip-rule="evenodd" d="M80.7031 0C82.8149 0 84.841 0.835007 86.3396 2.32291L109.637 25.4534C111.149 26.9553 112 28.9989 112 31.1305V125.1C112 132.745 105.7 139 98 139H14C6.3 139 0 132.745 0 125.1V13.9C0 6.255 6.3 0 14 0H80.7031ZM74.2 35.1825C74.2 36.2871 75.0954 37.1825 76.2 37.1825H100.847C102.632 37.1825 103.523 35.0211 102.256 33.7632L77.6091 9.29228C76.3472 8.03931 74.2 8.9332 74.2 10.7115V35.1825ZM33.3976 103.067V117.732L35.4428 117.69V102.92C35.4428 97.4395 32.8494 94.6781 27.6837 94.6781C23.8886 94.6781 21.253 95.8496 19.7771 98.2135H19.6506L19.25 95.1174H17.5V117.711H19.5663V105.243C19.5663 102.188 20.1988 99.9708 21.4639 98.611C22.7289 97.2512 24.7319 96.5609 27.4518 96.5609C29.4759 96.5609 30.9729 97.0838 31.9428 98.1089C32.9127 99.134 33.3976 100.787 33.3976 103.067ZM70.2531 102.502C70.2531 107.439 69.0091 111.288 66.5212 114.029C64.0332 116.769 60.491 118.15 55.9368 118.15C51.3193 118.15 47.7561 116.79 45.2892 114.071C42.8013 111.351 41.5784 107.481 41.5784 102.46C41.5784 97.4395 42.8224 93.5902 45.3103 90.9125C47.7983 88.2139 51.3615 86.875 55.979 86.875C60.5332 86.875 64.0543 88.2348 66.5422 90.9753C69.0091 93.6948 70.2531 97.544 70.2531 102.502ZM46.8705 102.502C46.8705 106.247 47.6296 109.071 49.1477 111.016C50.6657 112.941 52.9218 113.924 55.9157 113.924C58.8886 113.924 61.1447 112.962 62.6416 111.058C64.1597 109.154 64.9187 106.288 64.9187 102.523C64.9187 98.7992 64.1597 95.9751 62.6627 94.0504C61.1657 92.1258 58.9308 91.1635 55.9579 91.1635C52.9639 91.1635 50.6868 92.1258 49.1687 94.0504C47.6296 95.9541 46.8705 98.7783 46.8705 102.502ZM91.5482 115.849C93.509 114.322 94.5 112.188 94.5 109.489C94.5 108.108 94.247 106.916 93.762 105.912C93.2771 104.908 92.5181 103.987 91.4638 103.192C90.4096 102.397 88.765 101.519 86.509 100.598C84.506 99.7823 83.1144 99.1338 82.3554 98.6317C81.5753 98.1297 81.0271 97.6067 80.6898 97.0418C80.3524 96.477 80.1837 95.8076 80.1837 95.0126C80.1837 93.862 80.6054 92.9206 81.4488 92.2303C82.2922 91.5399 83.515 91.1843 85.1385 91.1843C87.2891 91.1843 89.7138 91.7491 92.4337 92.8788L94.0361 88.8204C91.1476 87.5443 88.2169 86.9167 85.2861 86.9167C82.2289 86.9167 79.7831 87.6279 77.9699 89.0923C76.1566 90.5358 75.25 92.5441 75.25 95.0754C75.25 97.0837 75.8193 98.82 76.9578 100.263C78.0964 101.707 80.0783 102.983 82.8614 104.113C85.5602 105.201 87.3524 106.121 88.2169 106.916C89.0813 107.711 89.5241 108.673 89.5241 109.803C89.5241 111.058 89.0602 112.062 88.1114 112.815C87.1626 113.568 85.7078 113.945 83.7259 113.945C82.3765 113.945 80.9217 113.757 79.3403 113.38C77.7801 113.004 76.2831 112.481 74.8916 111.832V116.539C77.0843 117.627 79.9307 118.15 83.3885 118.15C86.8675 118.15 89.5873 117.397 91.5482 115.849Z" fill="#9A99A5"/>
</svg>
