<svg width="1440" height="789" viewBox="0 0 1440 789" fill="none" xmlns="http://www.w3.org/2000/svg">
<path d="M1188.89 94.8232C1246 4.83299 1380.09 -4.8309 1440 1.58592V789H0V374.999C271.326 176.232 464.524 170.665 638.502 223.546C812.48 276.427 844.431 214.037 950.016 149.791C1055.6 85.5458 1117.5 207.311 1188.89 94.8232Z" fill="url(#paint0_linear)"/>
<path d="M1127.74 287.689C1243.76 178.011 1384.25 192.731 1440 213.8V789H0V591.527C168.736 365.284 410.608 536.165 602.059 420.428C793.51 304.69 982.714 424.787 1127.74 287.689Z" fill="url(#paint1_linear)"/>
<path d="M1233.4 450.481C1319.03 402.114 1405.82 426.431 1440 445V789H278.5C364.084 710.859 575.924 603.721 719.146 614.178C862.367 624.635 874.978 539.369 972.903 534.706C1108.64 528.242 1126.36 510.941 1233.4 450.481Z" fill="url(#paint2_linear)"/>
<defs>
<linearGradient id="paint0_linear" x1="624.5" y1="202.886" x2="660.426" y2="377.127" gradientUnits="userSpaceOnUse">
<stop stop-color="#F6F4FA"/>
<stop offset="1" stop-color="#E9E6EF"/>
</linearGradient>
<linearGradient id="paint1_linear" x1="635" y1="370.937" x2="700.86" y2="606.006" gradientUnits="userSpaceOnUse">
<stop stop-color="#F6F4FA"/>
<stop offset="1" stop-color="#E9E6EF"/>
</linearGradient>
<linearGradient id="paint2_linear" x1="790.087" y1="528.368" x2="807.044" y2="785.883" gradientUnits="userSpaceOnUse">
<stop stop-color="#F6F4FA"/>
<stop offset="1" stop-color="#E9E6EF"/>
</linearGradient>
</defs>
</svg>
