<svg width="98" height="51" viewBox="0 0 98 51" fill="none" xmlns="http://www.w3.org/2000/svg">
<path fill-rule="evenodd" clip-rule="evenodd" d="M0 25.5C0 11.417 11.4829 0 25.6479 0C39.813 0 51.2959 11.417 51.2959 25.5C51.2959 39.583 39.813 51 25.6479 51C11.4829 51 0 39.583 0 25.5ZM6.41211 25.5C6.41211 36.0625 15.0239 44.625 25.6479 44.625C36.272 44.625 44.8838 36.0625 44.8838 25.5C44.8838 14.9375 36.272 6.375 25.6479 6.375C15.0239 6.375 6.41211 14.9375 6.41211 25.5Z" fill="url(#paint0_linear)"/>
<path d="M67.1954 33.4714V26.1723C67.1954 25.0405 66.9523 24.2173 66.4665 23.7031C65.9805 23.1891 65.2268 22.9319 64.2058 22.9319C62.8325 22.9319 61.827 23.272 61.1897 23.9516C60.5522 24.6315 60.2336 25.7342 60.2336 27.2595V33.4714H59.1877V22.2175H60.0752L60.2759 23.7601H60.3393C61.0857 22.5868 62.4133 22 64.322 22C66.9277 22 68.2307 23.3701 68.2307 26.1102V33.4713H67.1954V33.4714Z" fill="#443562"/>
<path fill-rule="evenodd" clip-rule="evenodd" d="M83.8921 31.6279C85.1489 30.2617 85.7773 28.3467 85.7773 25.8818C85.7773 23.4111 85.1504 21.4961 83.897 20.1357C82.6436 18.7764 80.8687 18.0967 78.5728 18.0967C76.2417 18.0967 74.4478 18.7666 73.1904 20.1055C71.9331 21.4443 71.3047 23.3633 71.3047 25.8613C71.3047 28.3604 71.9297 30.2871 73.1797 31.6436C74.4297 33 76.2207 33.6777 78.5518 33.6777C80.855 33.6777 82.6348 32.9951 83.8921 31.6279ZM75.1396 30.1221C74.3721 29.1592 73.9883 27.7461 73.9883 25.8818C73.9883 24.0254 74.374 22.6172 75.145 21.6582C75.916 20.6982 77.0586 20.2188 78.5732 20.2188C80.0732 20.2188 81.2017 20.6982 81.959 21.6582C82.7158 22.6172 83.0947 24.0254 83.0947 25.8818C83.0947 27.7666 82.7124 29.1846 81.9482 30.1377C81.1841 31.0898 80.0522 31.5664 78.5522 31.5664C77.0449 31.5664 75.9072 31.085 75.1396 30.1221Z" fill="#443562"/>
<path d="M98.0001 29.3597C98.0001 30.7057 97.5035 31.7617 96.5105 32.5279C95.5175 33.294 94.1475 33.677 92.4011 33.677C90.6544 33.677 89.2248 33.4113 88.1121 32.8798V30.54C88.8162 30.8645 89.5647 31.1198 90.3569 31.3062C91.1492 31.4926 91.8869 31.5858 92.57 31.5858C93.57 31.5858 94.3079 31.3994 94.7832 31.0267C95.2585 30.654 95.4963 30.1537 95.4963 29.5255C95.4963 28.9596 95.2779 28.4799 94.8413 28.0864C94.4046 27.6931 93.5031 27.2271 92.1369 26.6887C90.7282 26.1296 89.7351 25.4913 89.1578 24.7733C88.5802 24.0556 88.2916 23.1928 88.2916 22.1851C88.2916 20.9219 88.7493 19.928 89.6649 19.2034C90.5803 18.4786 91.8094 18.1162 93.3519 18.1162C94.8308 18.1162 96.3027 18.4338 97.7676 19.0687L96.9647 21.0876C95.5914 20.5217 94.366 20.2387 93.2884 20.2387C92.4713 20.2387 91.8516 20.4132 91.4291 20.7616C91.0065 21.1102 90.7953 21.571 90.7953 22.1438C90.7953 22.5371 90.8798 22.8737 91.0488 23.1532C91.2179 23.4329 91.496 23.6968 91.8835 23.9453C92.2707 24.1938 92.9679 24.5217 93.9752 24.9288C95.1091 25.3913 95.9401 25.8228 96.4683 26.223C96.9966 26.6234 97.3837 27.0756 97.6304 27.5793C97.8767 28.0831 98.0001 28.6765 98.0001 29.3597Z" fill="#443562"/>
<defs>
<linearGradient id="paint0_linear" x1="-2.41023e-05" y1="51" x2="51.2959" y2="51" gradientUnits="userSpaceOnUse">
<stop stop-color="#B9D532"/>
<stop offset="1" stop-color="#5BBA47"/>
</linearGradient>
</defs>
</svg>
