<svg width="145" height="73" viewBox="0 0 145 73" fill="none" xmlns="http://www.w3.org/2000/svg">
<path d="M109.959 69.5947C106.858 62.5894 90.1622 58.3582 84.9544 57.1942C83.9842 56.9774 83.1591 56.3227 82.8255 55.3862V55.3862C82.3758 54.1236 82.9478 52.761 83.9685 51.8922C86.2353 49.9627 87.8952 47.3864 89.0376 44.3525C90.1628 41.3646 92.6788 38.557 93.9479 35.6273C94.3316 34.7415 94.6221 33.7362 94.7843 32.6548C95.3869 28.6131 93.9596 25.0585 91.6079 24.7066V24.7066C91.4732 24.6932 91.3796 24.5742 91.3938 24.4395C92.8612 10.5167 90.7568 6.77959 86.9997 5.12471V5.12471C84.0501 3.83249 79.9281 1.4057 76.8264 0.539809C75.9608 0.298185 74.9215 0.123287 73.6735 0.0544429C66.5596 -0.338007 49.1599 1.2363 50.7413 9.89275C51.7881 15.6379 52.8304 21.4189 53.4253 24.67C53.4293 24.6919 53.4114 24.7111 53.3891 24.7111V24.7111C53.3874 24.7111 53.3866 24.7113 53.3848 24.7115C51.0302 25.0656 49.6087 28.6146 50.2111 32.6594C50.3706 33.7414 50.6599 34.7474 51.0434 35.6336C52.3118 38.5648 54.8332 41.37 55.959 44.3589C57.1014 47.3921 58.7604 49.9693 61.024 51.8988C62.0426 52.7672 62.6166 54.1231 62.1657 55.3834V55.3834C61.8294 56.3232 61.0003 56.9824 60.0262 57.2004C54.8125 58.3672 38.1305 62.6005 35.0271 69.5993C33.2258 73.6756 31.1703 78.4217 29.6629 85.1503C28.9284 88.429 30.628 91.6726 33.811 92.7487C40.2353 94.9206 52.8149 98 72.5 98C92.1828 98 104.762 94.9213 111.187 92.7494C114.371 91.6731 116.07 88.4279 115.335 85.1483C113.825 78.4174 111.768 73.6711 109.959 69.5947Z" fill="url(#paint0_linear)"/>
<path d="M95.793 18.2626C95.7139 20.8463 96.9066 23.3213 97.9049 25.7056C98.7825 27.8015 99.0938 30.4105 98.6776 33.228C98.6173 33.6253 98.5443 34.0146 98.4594 34.3951C98.0648 36.1635 97.9658 38.0887 99.0135 39.567C99.6171 40.4187 100.306 41.1857 101.088 41.8543C101.899 42.548 102.353 43.6366 101.992 44.6414V44.6414C101.728 45.3795 101.079 45.8941 100.314 46.0664C98.7102 46.4277 95.7235 47.1594 92.5282 48.2416C91.8301 48.478 91.2432 49.0211 90.8687 49.6559V49.6559C89.6992 51.6379 90.573 54.4835 92.7796 55.1371C100.527 57.4319 110.708 61.5699 113.563 68.0117C114.147 69.3276 114.786 70.7833 115.441 72.4127C116.801 75.7971 120.091 78.1388 123.719 77.7585C130.978 76.9975 136.275 75.725 139.768 74.6365C142.987 73.6334 144.72 70.3791 143.916 67.1048C142.751 62.3613 141.257 58.9066 139.929 55.9089C137.466 50.3542 124.216 46.995 120.083 46.0706C119.312 45.8983 118.657 45.38 118.392 44.6364V44.6364C118.035 43.6352 118.49 42.5548 119.299 41.8653C120.837 40.5544 122.022 38.8669 122.9 36.8981C124.202 33.9755 126.687 30.997 127.586 27.9264C127.71 27.5043 127.808 27.0593 127.877 26.597C128.352 23.3897 127.229 20.5704 125.362 20.2997V20.2997C125.253 20.2862 125.176 20.1892 125.188 20.0804C126.473 8.03717 126.992 0.00344007 110.998 0.523877C104.825 0.725151 99.9893 0.456567 96.5726 3.12529C94.4675 4.7696 94.733 7.82216 95.2748 10.4379C95.7441 12.7037 95.8831 15.3184 95.793 18.2626Z" fill="url(#paint1_linear)"/>
<path d="M52.2207 55.1357C54.4215 54.4836 55.289 51.6422 54.1287 49.6618V49.6618C53.7545 49.0232 53.1675 48.4774 52.4665 48.2401C49.2781 47.1608 46.2949 46.4303 44.6877 46.0685C43.9163 45.8949 43.2594 45.3725 42.9941 44.6276C42.9626 44.5391 42.9316 44.4505 42.9012 44.3616C42.6109 43.514 42.9927 42.601 43.6874 42.0353V42.0353C44.3933 41.4604 45.3698 41.2922 46.1699 41.7263C48.134 42.792 50.0926 43.8632 51.7983 44.8157C51.8643 44.8526 51.9454 44.8162 51.9454 44.7406V44.7406C51.9454 44.7299 51.9437 44.7078 51.9403 44.6977C51.8513 44.4318 51.7627 44.1651 51.6761 43.8958C51.2753 42.649 50.4795 41.5654 49.5916 40.6028C47.9411 38.8135 46.7604 36.2352 46.3131 33.2237C45.9315 30.6689 46.1522 28.2831 46.851 26.297C47.7336 23.7885 48.7803 21.1405 48.3058 18.524C47.8581 16.0547 47.3617 13.3178 46.8705 10.5879C46.8476 10.465 46.8272 10.3425 46.8091 10.2204C46.4288 7.65107 46.282 4.75375 44.1696 3.24243C41.7842 1.53571 38.6964 0.519531 34.7994 0.519531C24.9849 0.519531 20.277 6.92053 19.0445 14.7425C18.9084 15.5997 18.7859 16.6318 18.6753 17.7903C18.484 19.7954 17.4611 21.7215 17.1258 23.7076C16.9781 24.5822 16.9652 25.5674 17.1143 26.5926C17.1612 26.9027 17.2222 27.2033 17.2952 27.4939C17.6187 28.7798 17.971 30.0804 17.9283 31.4057C17.836 34.2732 17.7734 37.0181 17.7317 39.2746C17.6853 41.7833 20.3785 43.384 22.583 42.1855C22.8643 42.0326 23.1465 41.8793 23.4289 41.7262C24.2291 41.2922 25.2056 41.4604 25.9115 42.0353V42.0353C26.6062 42.601 26.9887 43.5143 26.6967 44.3613C26.6652 44.4525 26.6332 44.5435 26.6006 44.6343C26.3336 45.3764 25.6756 45.8936 24.906 46.0658C20.7769 46.9896 7.52998 50.349 5.06586 55.9046C3.74056 58.9074 2.24135 62.3653 1.07781 67.1135C0.276448 70.3836 2.00812 73.6323 5.22235 74.6347C8.71291 75.7232 14.0077 76.9961 21.269 77.7577C24.9024 78.1387 28.1954 75.7891 29.5606 72.4005C30.215 70.7761 30.8547 69.3244 31.4373 68.0119C34.2923 61.5687 44.477 57.4302 52.2207 55.1357Z" fill="url(#paint2_linear)"/>
<defs>
<linearGradient id="paint0_linear" x1="54.5005" y1="7.5" x2="0.864037" y2="54.6044" gradientUnits="userSpaceOnUse">
<stop stop-color="#5ABA47"/>
<stop offset="1" stop-color="#B6D433"/>
</linearGradient>
<linearGradient id="paint1_linear" x1="104.5" y1="9.50001" x2="62.3544" y2="52.8754" gradientUnits="userSpaceOnUse">
<stop stop-color="#5ABA47"/>
<stop offset="1" stop-color="#B6D433"/>
</linearGradient>
<linearGradient id="paint2_linear" x1="33" y1="18.9995" x2="-13.6643" y2="24.7929" gradientUnits="userSpaceOnUse">
<stop stop-color="#5ABA47"/>
<stop offset="1" stop-color="#B6D433"/>
</linearGradient>
</defs>
</svg>
