<svg width="180" height="143" viewBox="0 0 180 143" fill="none" xmlns="http://www.w3.org/2000/svg">
<g filter="url(#filter0_dddd)">
<circle cx="66" cy="61" r="50" fill="url(#paint0_linear)"/>
</g>
<path d="M65.9943 28L65.5576 29.5039V73.1447L65.9943 73.5864L85.9886 61.6122L65.9943 28Z" fill="#656565"/>
<path d="M65.9942 28L46 61.6122L65.9942 73.5866V52.4046V28Z" fill="#D6D6D6"/>
<path d="M65.9937 77.4218L65.7476 77.7257V93.2715L65.9937 93.9999L85.9998 65.4536L65.9937 77.4218Z" fill="#444444"/>
<path d="M65.9942 93.9999V77.4218L46 65.4536L65.9942 93.9999Z" fill="#D6D6D6"/>
<path d="M65.9937 73.5864L85.9876 61.6124L65.9937 52.4048V73.5864Z" fill="#444444"/>
<path d="M46 61.6124L65.9939 73.5864V52.4048L46 61.6124Z" fill="#757575"/>
<circle cx="130" cy="63" r="50" fill="url(#paint1_linear)"/>
<path d="M152 45.9722V80.11L133.899 71.6381V52.42L152 45.9722Z" fill="url(#paint2_linear)"/>
<path d="M108 80.737L125.659 89.0001V55.0293L108 46.7661V80.737Z" fill="url(#paint3_linear)"/>
<path d="M151.263 45.3049L151.558 45.2006L151.726 45.1588L134.298 37L134.151 37.0626L133.689 37.2295L133.478 37.2921L108.693 46.1187L126.12 54.2776L133.478 51.6484L133.899 51.5023L151.263 45.3049Z" fill="url(#paint4_linear)"/>
<defs>
<filter id="filter0_dddd" x="0" y="11" width="132" height="132" filterUnits="userSpaceOnUse" color-interpolation-filters="sRGB">
<feFlood flood-opacity="0" result="BackgroundImageFix"/>
<feColorMatrix in="SourceAlpha" type="matrix" values="0 0 0 0 0 0 0 0 0 0 0 0 0 0 0 0 0 0 127 0"/>
<feOffset dy="16"/>
<feGaussianBlur stdDeviation="8"/>
<feColorMatrix type="matrix" values="0 0 0 0 0.403922 0 0 0 0 0.431373 0 0 0 0 0.564706 0 0 0 0.05 0"/>
<feBlend mode="normal" in2="BackgroundImageFix" result="effect1_dropShadow"/>
<feColorMatrix in="SourceAlpha" type="matrix" values="0 0 0 0 0 0 0 0 0 0 0 0 0 0 0 0 0 0 127 0"/>
<feOffset dy="8"/>
<feGaussianBlur stdDeviation="4"/>
<feColorMatrix type="matrix" values="0 0 0 0 0.403922 0 0 0 0 0.431373 0 0 0 0 0.564706 0 0 0 0.05 0"/>
<feBlend mode="normal" in2="effect1_dropShadow" result="effect2_dropShadow"/>
<feColorMatrix in="SourceAlpha" type="matrix" values="0 0 0 0 0 0 0 0 0 0 0 0 0 0 0 0 0 0 127 0"/>
<feOffset dy="4"/>
<feGaussianBlur stdDeviation="2"/>
<feColorMatrix type="matrix" values="0 0 0 0 0.403922 0 0 0 0 0.431373 0 0 0 0 0.564706 0 0 0 0.05 0"/>
<feBlend mode="normal" in2="effect2_dropShadow" result="effect3_dropShadow"/>
<feColorMatrix in="SourceAlpha" type="matrix" values="0 0 0 0 0 0 0 0 0 0 0 0 0 0 0 0 0 0 127 0"/>
<feOffset dy="2"/>
<feGaussianBlur stdDeviation="1"/>
<feColorMatrix type="matrix" values="0 0 0 0 0.403922 0 0 0 0 0.431373 0 0 0 0 0.564706 0 0 0 0.05 0"/>
<feBlend mode="normal" in2="effect3_dropShadow" result="effect4_dropShadow"/>
<feBlend mode="normal" in="SourceGraphic" in2="effect4_dropShadow" result="shape"/>
</filter>
<linearGradient id="paint0_linear" x1="128" y1="98" x2="35" y2="31" gradientUnits="userSpaceOnUse">
<stop stop-color="#141414"/>
<stop offset="1" stop-color="#5B5B5B"/>
</linearGradient>
<linearGradient id="paint1_linear" x1="73.5" y1="13" x2="295.747" y2="14.4625" gradientUnits="userSpaceOnUse">
<stop stop-color="#BEEB00"/>
<stop offset="0.23" stop-color="#58BF00"/>
<stop offset="0.42" stop-color="#58BF00"/>
<stop offset="0.61" stop-color="#29B800"/>
<stop offset="0.78" stop-color="#00AE1D"/>
<stop offset="0.99" stop-color="#00A62C"/>
</linearGradient>
<linearGradient id="paint2_linear" x1="143" y1="81.5" x2="133.684" y2="37.471" gradientUnits="userSpaceOnUse">
<stop stop-color="white"/>
<stop offset="0.99" stop-color="white" stop-opacity="0.2"/>
</linearGradient>
<linearGradient id="paint3_linear" x1="111.5" y1="82" x2="115.137" y2="24.9769" gradientUnits="userSpaceOnUse">
<stop offset="0.392259" stop-color="white"/>
<stop offset="0.99" stop-color="white" stop-opacity="0.2"/>
</linearGradient>
<linearGradient id="paint4_linear" x1="98.4995" y1="44.5" x2="106.74" y2="17.9415" gradientUnits="userSpaceOnUse">
<stop stop-color="white"/>
<stop offset="1" stop-color="white" stop-opacity="0.2"/>
</linearGradient>
</defs>
</svg>
