<svg width="30" height="21" viewBox="0 0 30 21" fill="none" xmlns="http://www.w3.org/2000/svg">
<g clip-path="url(#clip0)">
<path d="M15 1C12.4989 1.04018 10.0206 1.4825 7.66 2.31C6.68423 2.59609 5.75715 3.0276 4.91 3.59C6.09681 2.60395 7.42929 1.80783 8.86 1.23C9.60261 0.901921 10.3679 0.627875 11.15 0.41L10.73 0C9.02435 0.0929039 7.35774 0.546194 5.84 1.33C5.06539 1.69351 4.33412 2.143 3.66 2.67C2.10064 5.9189 1.01301 9.37374 0.43 12.93C0.190483 14.3588 0.0468285 15.802 0 17.25C1.30047 18.8869 3.08576 20.0701 5.1 20.63C6.76 20.98 7.66 21.08 7.8 20.94L9.36 18.94C8.157 18.6371 7.04093 18.0585 6.1 17.25L4.8 16C4.87 16.07 5.8 16.52 7.66 17.34C9.99803 18.266 12.4855 18.7574 15 18.79C17.5139 18.7606 20.0013 18.2726 22.34 17.35C24.17 16.53 25.13 16.08 25.2 16.01L23.9 17.25C22.9593 18.0828 21.8356 18.6823 20.62 19L22.18 21C22.32 21.14 23.18 21 24.88 20.69C26.9095 20.1178 28.7032 18.9127 30 17.25C29.9598 15.8025 29.8228 14.3593 29.59 12.93C29.0006 9.37272 27.9063 5.91784 26.34 2.67C25.6659 2.143 24.9346 1.69351 24.16 1.33C22.6423 0.546194 20.9757 0.0929039 19.27 0L18.85 0.41C19.6321 0.627875 20.3974 0.901921 21.14 1.23C22.5707 1.80783 23.9032 2.60395 25.09 3.59C24.2428 3.0276 23.3158 2.59609 22.34 2.31C19.9794 1.4825 17.5011 1.04018 15 1V1ZM10.42 9.34C10.7729 9.33008 11.1236 9.39846 11.447 9.54025C11.7703 9.68203 12.0582 9.89368 12.29 10.16C12.765 10.6966 13.0188 11.3935 13 12.11C13.0295 12.8468 12.7672 13.5655 12.27 14.11C12.0396 14.378 11.7519 14.5908 11.4283 14.7327C11.1046 14.8746 10.7532 14.9421 10.4 14.93C10.0469 14.9413 9.69571 14.8736 9.37216 14.7317C9.04861 14.5898 8.76087 14.3774 8.53 14.11C8.03281 13.5655 7.77049 12.8468 7.8 12.11C7.78669 11.3908 8.0477 10.6936 8.53 10.16C8.76439 9.89158 9.05562 9.67872 9.38254 9.53688C9.70945 9.39505 10.0639 9.32779 10.42 9.34V9.34ZM19.68 9.34C20.0239 9.34128 20.3637 9.41496 20.6773 9.55624C20.9909 9.69751 21.2712 9.90323 21.5 10.16C21.7519 10.4178 21.9504 10.7227 22.0843 11.0573C22.2181 11.3919 22.2846 11.7496 22.28 12.11C22.2931 12.4789 22.2306 12.8466 22.0965 13.1905C21.9624 13.5344 21.7594 13.8473 21.5 14.11C21.2648 14.3721 20.9762 14.5809 20.6537 14.7223C20.3312 14.8637 19.9821 14.9345 19.63 14.93C19.2846 14.9381 18.9418 14.8687 18.6269 14.7267C18.3119 14.5848 18.0327 14.3741 17.81 14.11C17.3128 13.5655 17.0505 12.8468 17.08 12.11C17.0667 11.3908 17.3277 10.6936 17.81 10.16C18.0422 9.89423 18.3302 9.68295 18.6534 9.54121C18.9767 9.39948 19.3272 9.33077 19.68 9.34V9.34Z" fill="white"/>
</g>
<defs>
<clipPath id="clip0">
<rect width="30" height="21" fill="white"/>
</clipPath>
</defs>
</svg>
