<svg width="324" height="75" viewBox="0 0 324 75" fill="none" xmlns="http://www.w3.org/2000/svg">
<g filter="url(#filter0_ddd)">
<path d="M21.4165 62L50.9707 21.2456L43.3244 21.1603H42.8089L2.08591 20.9045L2 27.9811L37.6541 28.2369L13.2547 61.9147L21.4165 62Z" fill="#88C773"/>
<path d="M15.832 36.7631L40.2315 3.08526L32.0697 3L2.60132 43.7544L10.2476 43.8397H10.7631L51.4861 44.0954L51.572 37.0188L15.832 36.7631Z" fill="white"/>
<path d="M83.532 21.5867C82.2433 21.5015 80.9546 21.9278 79.9236 22.6951C78.9786 23.4624 78.4631 24.5708 78.549 25.7645C78.4631 26.8729 78.8067 27.9812 79.58 28.8338C80.3532 29.6012 81.2982 30.198 82.3292 30.539C83.532 30.9653 84.7348 31.3064 86.0235 31.5622C87.3122 31.9032 88.6868 32.2442 89.9755 32.6706C91.2642 33.0969 92.467 33.6937 93.6698 34.3758C94.7866 35.0578 95.7317 36.081 96.419 37.2746C97.1063 38.724 97.5359 40.2587 97.45 41.8787C97.45 44.8628 96.1613 47.6764 93.8416 49.5521C91.436 51.6836 88.2572 52.792 84.3052 52.792C80.3532 52.792 77.0885 51.8541 74.6829 50.0636C72.1914 48.1879 70.8168 45.2891 70.9886 42.2197H78.8926C79.1504 45.3743 81.0405 46.9943 84.3911 46.9943C85.8516 47.0795 87.2263 46.568 88.3431 45.7154C89.2882 44.8628 89.8896 43.5839 89.8037 42.2197C89.8037 40.8555 89.1164 39.4914 87.8277 38.8093C86.3671 37.9567 84.8207 37.2746 83.1024 36.9336C81.2982 36.5073 79.4081 35.9957 77.6039 35.3989C75.7998 34.8021 74.1674 33.7789 72.8787 32.3295C71.5041 30.7096 70.8168 28.5781 70.9027 26.4466C70.8168 23.3772 72.1055 20.4783 74.5111 18.5174C77.1744 16.4711 80.4391 15.448 83.8756 15.5332C87.6558 15.5332 90.7487 16.3858 93.0684 18.0911C95.388 19.7963 96.6768 22.4393 96.8486 25.935H88.7727C88.6868 24.6561 88.1713 23.4624 87.2263 22.6098C86.1094 21.9278 84.8207 21.5015 83.532 21.5867Z" fill="#88C773"/>
<path d="M137.4 23.7183H144.445L135.51 52.5362H127.606L122.623 33.1822L117.554 52.5362H109.65L100.715 23.7183H108.189L113.688 45.6301L119.014 23.7183H126.747L131.987 45.6301L137.4 23.7183Z" fill="#88C773"/>
<path d="M156.902 16.3859C156.902 18.8585 154.926 20.8195 152.435 20.8195C149.943 20.8195 147.967 18.8585 147.967 16.3859C147.967 13.9134 149.943 11.9524 152.435 11.9524C154.926 11.9524 156.902 13.9134 156.902 16.3859ZM148.741 52.5363V23.7183H156.129V52.5363H148.741Z" fill="#88C773"/>
<path d="M175.288 46.4827H178.81V52.6215H174.171C171.164 52.6215 168.93 51.9394 167.298 50.5752C165.665 49.2111 164.892 46.9943 164.892 43.8397V29.6865H161.799V23.7183H164.892V16.5564H172.281V23.7183H178.81V29.6865H172.281V43.8397C172.195 44.607 172.453 45.2891 172.968 45.8007C173.569 46.3122 174.429 46.4827 175.288 46.4827Z" fill="#88C773"/>
<path d="M186.543 48.9552C183.88 46.2269 182.591 42.646 182.591 38.2124C182.591 33.7789 183.88 30.1127 186.543 27.4696C189.292 24.7413 192.986 23.2919 196.852 23.3772C200.031 23.2919 203.124 24.1445 205.702 25.935C208.107 27.7254 209.825 30.2832 210.513 33.1821H202.523C201.578 30.7948 199.688 29.6012 196.852 29.6012C194.876 29.5159 193.072 30.3685 191.869 31.9032C190.581 33.7789 189.893 35.9957 190.065 38.2124C189.979 40.4292 190.581 42.7312 191.869 44.5217C193.072 46.0564 194.962 46.909 196.852 46.8237C199.688 46.8237 201.578 45.6301 202.523 43.1575H210.513C209.74 46.0564 208.021 48.6142 205.616 50.3194C203.038 52.1099 199.945 53.0477 196.852 52.9625C192.986 53.133 189.206 51.6836 186.543 48.9552Z" fill="#88C773"/>
<path d="M222.454 13.9985V27.9812C224.345 24.8266 227.352 23.2066 231.475 23.2066C234.568 23.1214 237.489 24.315 239.637 26.4465C241.699 28.578 242.816 31.6474 242.816 35.4841V52.4509H235.513V36.6778C235.685 34.802 234.998 32.9263 233.795 31.4769C232.506 30.198 230.788 29.6012 229.07 29.6864C227.266 29.6012 225.547 30.2832 224.345 31.4769C223.142 32.9263 222.454 34.802 222.626 36.6778V52.6214H215.066V13.9985H222.454Z" fill="#88C773"/>
<path d="M261.545 52.9627C257.679 53.1332 253.899 51.5985 251.235 48.8702C248.572 46.1418 247.283 42.5609 247.283 38.0421C247.283 33.5233 248.658 29.9424 251.321 27.2993C254.07 24.571 257.851 23.1216 261.717 23.2921C265.583 23.1216 269.363 24.571 272.198 27.2141C274.947 29.8571 276.322 33.3528 276.322 37.7011C276.322 38.6389 276.236 39.5768 276.15 40.5147H254.93C255.015 42.2199 255.789 43.8398 256.991 45.0335C258.28 46.2271 259.913 46.8239 261.631 46.7387C263.95 46.8239 266.184 45.6303 267.301 43.584H275.291C274.432 46.3124 272.714 48.6996 270.394 50.3196C267.731 52.1953 264.724 53.0479 261.545 52.9627ZM266.442 31.2213C265.153 30.1129 263.435 29.4308 261.717 29.5161C259.998 29.4308 258.366 30.1129 257.077 31.2213C255.789 32.4149 255.015 34.0349 254.844 35.8253H268.59C268.504 34.0349 267.731 32.4149 266.442 31.2213Z" fill="#88C773"/>
<path d="M284.312 48.8699C281.477 46.1415 280.016 42.5606 280.016 38.0418C280.016 33.523 281.477 30.0274 284.312 27.299C290.412 21.8424 299.604 21.8424 305.704 27.299C308.539 30.0274 310 33.6083 310 38.0418C310 42.4754 308.539 46.0563 305.704 48.8699C302.783 51.5982 298.917 53.1329 294.965 52.9624C291.013 53.1329 287.147 51.5982 284.312 48.8699ZM294.965 46.8236C296.941 46.8236 298.917 46.0563 300.292 44.5216C301.752 42.9869 302.525 40.8554 302.525 38.1271C302.525 35.3988 301.752 33.2673 300.292 31.7326C298.917 30.2831 296.941 29.4305 294.965 29.5158C292.989 29.5158 291.013 30.2831 289.724 31.7326C288.264 33.2673 287.576 35.3988 287.576 38.1271C287.576 40.9407 288.264 43.0722 289.724 44.5216C291.099 46.0563 292.989 46.8236 294.965 46.8236Z" fill="#88C773"/>
</g>
<defs>
<filter id="filter0_ddd" x="0" y="0" width="324" height="75" filterUnits="userSpaceOnUse" color-interpolation-filters="sRGB">
<feFlood flood-opacity="0" result="BackgroundImageFix"/>
<feColorMatrix in="SourceAlpha" type="matrix" values="0 0 0 0 0 0 0 0 0 0 0 0 0 0 0 0 0 0 127 0"/>
<feOffset dx="6" dy="5"/>
<feGaussianBlur stdDeviation="4"/>
<feColorMatrix type="matrix" values="0 0 0 0 0.266667 0 0 0 0 0.207843 0 0 0 0 0.384314 0 0 0 0.65 0"/>
<feBlend mode="normal" in2="BackgroundImageFix" result="effect1_dropShadow"/>
<feColorMatrix in="SourceAlpha" type="matrix" values="0 0 0 0 0 0 0 0 0 0 0 0 0 0 0 0 0 0 127 0"/>
<feOffset dx="3" dy="3"/>
<feGaussianBlur stdDeviation="2"/>
<feColorMatrix type="matrix" values="0 0 0 0 0.266667 0 0 0 0 0.207843 0 0 0 0 0.384314 0 0 0 0.6 0"/>
<feBlend mode="normal" in2="effect1_dropShadow" result="effect2_dropShadow"/>
<feColorMatrix in="SourceAlpha" type="matrix" values="0 0 0 0 0 0 0 0 0 0 0 0 0 0 0 0 0 0 127 0"/>
<feOffset dx="1" dy="1"/>
<feGaussianBlur stdDeviation="1"/>
<feColorMatrix type="matrix" values="0 0 0 0 0.266667 0 0 0 0 0.207843 0 0 0 0 0.384314 0 0 0 0.8 0"/>
<feBlend mode="normal" in2="effect2_dropShadow" result="effect3_dropShadow"/>
<feBlend mode="normal" in="SourceGraphic" in2="effect3_dropShadow" result="shape"/>
</filter>
</defs>
</svg>
