<svg width="660" height="350" viewBox="0 0 660 350" fill="none" xmlns="http://www.w3.org/2000/svg">
<g clip-path="url(#clip0)">
<path d="M60 0H660V350H60V0Z" fill="#F6F4FA"/>
<path d="M60 0H660V350H60V0Z" fill="#EEEBF3"/>
<path d="M0 0H60V350H0V0Z" fill="url(#paint0_linear)"/>
<circle cx="13" cy="13" r="5" fill="#D0CDD8"/>
<circle cx="30" cy="13" r="5" fill="#D0CDD8"/>
<circle cx="47" cy="13" r="5" fill="#D0CDD8"/>
<circle cx="30" cy="74" r="16" fill="#D0CDD8"/>
<circle cx="30" cy="122" r="16" fill="#D0CDD8"/>
<circle cx="30" cy="170" r="16" fill="#D0CDD8"/>
<circle cx="30" cy="310" r="16" fill="#D0CDD8"/>
<path d="M60 24H660V350H60V24Z" fill="#F6F4FA"/>
<path d="M524 52C524 49.7909 525.791 48 528 48H612C614.209 48 616 49.7909 616 52V52C616 54.2091 614.209 56 612 56H528C525.791 56 524 54.2091 524 52V52Z" fill="#A6A0B3"/>
<path d="M524 92C524 89.7909 525.791 88 528 88H578C580.209 88 582 89.7909 582 92V92C582 94.2091 580.209 96 578 96H528C525.791 96 524 94.2091 524 92V92Z" fill="#D0CDD8"/>
<path d="M616 92C616 89.7909 617.791 88 620 88H632C634.209 88 636 89.7909 636 92V92C636 94.2091 634.209 96 632 96H620C617.791 96 616 94.2091 616 92V92Z" fill="url(#paint1_linear)"/>
<path d="M524 164C524 161.791 525.791 160 528 160H587C589.209 160 591 161.791 591 164V164C591 166.209 589.209 168 587 168H528C525.791 168 524 166.209 524 164V164Z" fill="#D0CDD8"/>
<path d="M616 164C616 161.791 617.791 160 620 160H632C634.209 160 636 161.791 636 164V164C636 166.209 634.209 168 632 168H620C617.791 168 616 166.209 616 164V164Z" fill="url(#paint2_linear)"/>
<path d="M524 128C524 125.791 525.791 124 528 124H587C589.209 124 591 125.791 591 128V128C591 130.209 589.209 132 587 132H528C525.791 132 524 130.209 524 128V128Z" fill="#D0CDD8"/>
<path d="M616 128C616 125.791 617.791 124 620 124H632C634.209 124 636 125.791 636 128V128C636 130.209 634.209 132 632 132H620C617.791 132 616 130.209 616 128V128Z" fill="url(#paint3_linear)"/>
<path d="M524 272C524 269.791 525.791 268 528 268H578C580.209 268 582 269.791 582 272V272C582 274.209 580.209 276 578 276H528C525.791 276 524 274.209 524 272V272Z" fill="#D0CDD8"/>
<path d="M616 272C616 269.791 617.791 268 620 268H632C634.209 268 636 269.791 636 272V272C636 274.209 634.209 276 632 276H620C617.791 276 616 274.209 616 272V272Z" fill="url(#paint4_linear)"/>
<path d="M524 308C524 305.791 525.791 304 528 304H587C589.209 304 591 305.791 591 308V308C591 310.209 589.209 312 587 312H528C525.791 312 524 310.209 524 308V308Z" fill="#D0CDD8"/>
<path d="M616 308C616 305.791 617.791 304 620 304H632C634.209 304 636 305.791 636 308V308C636 310.209 634.209 312 632 312H620C617.791 312 616 310.209 616 308V308Z" fill="url(#paint5_linear)"/>
<path d="M524 200C524 197.791 525.791 196 528 196H578C580.209 196 582 197.791 582 200V200C582 202.209 580.209 204 578 204H528C525.791 204 524 202.209 524 200V200Z" fill="#D0CDD8"/>
<path d="M616 200C616 197.791 617.791 196 620 196H632C634.209 196 636 197.791 636 200V200C636 202.209 634.209 204 632 204H620C617.791 204 616 202.209 616 200V200Z" fill="url(#paint6_linear)"/>
<path d="M524 236C524 233.791 525.791 232 528 232H587C589.209 232 591 233.791 591 236V236C591 238.209 589.209 240 587 240H528C525.791 240 524 238.209 524 236V236Z" fill="#D0CDD8"/>
<path d="M616 236C616 233.791 617.791 232 620 232H632C634.209 232 636 233.791 636 236V236C636 238.209 634.209 240 632 240H620C617.791 240 616 238.209 616 236V236Z" fill="url(#paint7_linear)"/>
<rect x="84" y="198" width="416" height="128" rx="8" fill="url(#paint8_linear)"/>
<g filter="url(#filter0_ddd)">
<rect x="96" y="210" width="190" height="104" rx="4" fill="#F6F4FA"/>
</g>
<path d="M153.826 226C153.826 223.791 155.617 222 157.826 222H269.608C271.817 222 273.608 223.791 273.608 226V238C273.608 240.209 271.817 242 269.608 242H157.826C155.617 242 153.826 240.209 153.826 238V226Z" fill="white"/>
<path d="M160.021 232C160.021 229.791 161.812 228 164.021 228H263.413C265.622 228 267.413 229.791 267.413 232V232C267.413 234.209 265.622 236 263.413 236H164.021C161.812 236 160.021 234.209 160.021 232V232Z" fill="#D0CDD8"/>
<path d="M108.391 232C108.391 229.791 110.182 228 112.391 228H141.565C143.774 228 145.565 229.791 145.565 232V232C145.565 234.209 143.774 236 141.565 236H112.391C110.182 236 108.391 234.209 108.391 232V232Z" fill="#D0CDD8"/>
<path d="M153.826 254C153.826 251.791 155.617 250 157.826 250H269.608C271.817 250 273.608 251.791 273.608 254V266C273.608 268.209 271.817 270 269.608 270H157.826C155.617 270 153.826 268.209 153.826 266V254Z" fill="white"/>
<path d="M160.021 260C160.021 257.791 161.812 256 164.021 256H263.413C265.622 256 267.413 257.791 267.413 260V260C267.413 262.21 265.622 264 263.413 264H164.021C161.812 264 160.021 262.21 160.021 260V260Z" fill="#D0CDD8"/>
<path d="M108.391 260C108.391 257.791 110.182 256 112.391 256H132.272C134.481 256 136.272 257.791 136.272 260V260C136.272 262.21 134.481 264 132.272 264H112.391C110.182 264 108.391 262.21 108.391 260V260Z" fill="#D0CDD8"/>
<rect x="154" y="282" width="119.783" height="20" rx="4" fill="url(#paint9_linear)"/>
<path d="M186.011 292C186.011 290.343 187.354 289 189.011 289H238.772C240.428 289 241.772 290.343 241.772 292V292C241.772 293.657 240.428 295 238.772 295H189.011C187.354 295 186.011 293.657 186.011 292V292Z" fill="white"/>
<g filter="url(#filter1_ddd)">
<rect x="298" y="210" width="190" height="104" rx="4" fill="#F6F4FA"/>
</g>
<path d="M355.826 226C355.826 223.791 357.617 222 359.826 222H471.608C473.817 222 475.608 223.791 475.608 226V238C475.608 240.209 473.817 242 471.608 242H359.826C357.617 242 355.826 240.209 355.826 238V226Z" fill="white"/>
<path d="M362.021 232C362.021 229.791 363.812 228 366.021 228H465.413C467.622 228 469.413 229.791 469.413 232V232C469.413 234.209 467.622 236 465.413 236H366.021C363.812 236 362.021 234.209 362.021 232V232Z" fill="#D0CDD8"/>
<path d="M310.391 232C310.391 229.791 312.182 228 314.391 228H343.565C345.774 228 347.565 229.791 347.565 232V232C347.565 234.209 345.774 236 343.565 236H314.391C312.182 236 310.391 234.209 310.391 232V232Z" fill="#D0CDD8"/>
<path d="M355.826 254C355.826 251.791 357.617 250 359.826 250H471.608C473.817 250 475.608 251.791 475.608 254V266C475.608 268.209 473.817 270 471.608 270H359.826C357.617 270 355.826 268.209 355.826 266V254Z" fill="white"/>
<path d="M362.021 260C362.021 257.791 363.812 256 366.021 256H465.413C467.622 256 469.413 257.791 469.413 260V260C469.413 262.21 467.622 264 465.413 264H366.021C363.812 264 362.021 262.21 362.021 260V260Z" fill="#D0CDD8"/>
<path d="M310.391 260C310.391 257.791 312.182 256 314.391 256H334.272C336.481 256 338.272 257.791 338.272 260V260C338.272 262.21 336.481 264 334.272 264H314.391C312.182 264 310.391 262.21 310.391 260V260Z" fill="#D0CDD8"/>
<rect x="356" y="282" width="119.783" height="20" rx="2" fill="url(#paint10_linear)"/>
<path d="M388.011 292C388.011 290.343 389.354 289 391.011 289H440.772C442.428 289 443.772 290.343 443.772 292V292C443.772 293.657 442.428 295 440.772 295H391.011C389.354 295 388.011 293.657 388.011 292V292Z" fill="white"/>
<g filter="url(#filter2_ddd)">
<path d="M84 20C84 15.5817 87.5817 12 92 12H492C496.418 12 500 15.5817 500 20V172C500 176.418 496.418 180 492 180H92C87.5817 180 84 176.418 84 172V20Z" fill="white"/>
</g>
<path d="M117 30C117 28.8954 117.895 28 119 28H482C483.105 28 484 28.8954 484 30V36C484 37.1046 483.105 38 482 38H119C117.895 38 117 37.1046 117 36V30Z" fill="url(#paint11_linear)"/>
<path fill-rule="evenodd" clip-rule="evenodd" d="M107.491 27.9165H109.625V37.5415H107.491L101.375 29.3794V27.9165H103.224L107.491 33.6143V27.9165ZM103.58 37.5415H101.446V30.2266L103.58 32.9214V37.5415Z" fill="url(#paint12_linear)"/>
<path d="M468 73C468 70.7909 469.791 69 472 69H480C482.209 69 484 70.7909 484 73V73C484 75.2091 482.209 77 480 77H472C469.791 77 468 75.2091 468 73V73Z" fill="#D0CDD8"/>
<path d="M468 112C468 109.791 469.791 108 472 108H480C482.209 108 484 109.791 484 112V112C484 114.209 482.209 116 480 116H472C469.791 116 468 114.209 468 112V112Z" fill="#D0CDD8"/>
<path d="M468 151C468 148.791 469.791 147 472 147H480C482.209 147 484 148.791 484 151V151C484 153.209 482.209 155 480 155H472C469.791 155 468 153.209 468 151V151Z" fill="#D0CDD8"/>
<rect x="100" y="115" width="16" height="48" rx="2" fill="url(#paint13_linear)"/>
<rect x="132" y="99" width="16" height="32" rx="2" fill="url(#paint14_linear)"/>
<rect x="164" y="115" width="16" height="32" rx="2" fill="url(#paint15_linear)"/>
<rect x="196" y="131" width="16" height="32" rx="2" fill="url(#paint16_linear)"/>
<rect x="228" y="115" width="16" height="32" rx="2" fill="url(#paint17_linear)"/>
<rect x="260" y="83" width="16" height="48" rx="2" fill="url(#paint18_linear)"/>
<rect x="299" y="84" width="2" height="25" rx="1" fill="url(#paint19_linear)"/>
<rect x="292" y="99" width="16" height="16" rx="2" fill="url(#paint20_linear)"/>
<rect x="331" y="84" width="2" height="53" rx="1" fill="url(#paint21_linear)"/>
<rect x="324" y="99" width="16" height="32" rx="2" fill="url(#paint22_linear)"/>
<rect x="363" y="111" width="2" height="55" rx="1" fill="url(#paint23_linear)"/>
<rect x="356" y="115" width="16" height="32" rx="2" fill="url(#paint24_linear)"/>
<rect x="395" y="89" width="2" height="58" rx="1" fill="url(#paint25_linear)"/>
<rect x="388" y="99" width="16" height="32" rx="2" fill="url(#paint26_linear)"/>
<rect x="427" y="51" width="2" height="80" rx="1" fill="url(#paint27_linear)"/>
<rect x="420" y="67" width="16" height="48" rx="2" fill="url(#paint28_linear)"/>
</g>
<defs>
<filter id="filter0_ddd" x="78" y="192" width="286" height="200" filterUnits="userSpaceOnUse" color-interpolation-filters="sRGB">
<feFlood flood-opacity="0" result="BackgroundImageFix"/>
<feColorMatrix in="SourceAlpha" type="matrix" values="0 0 0 0 0 0 0 0 0 0 0 0 0 0 0 0 0 0 127 0"/>
<feOffset dx="6" dy="6"/>
<feGaussianBlur stdDeviation="6"/>
<feColorMatrix type="matrix" values="0 0 0 0 0.396078 0 0 0 0 0.34902 0 0 0 0 0.486275 0 0 0 0.06 0"/>
<feBlend mode="normal" in2="BackgroundImageFix" result="effect1_dropShadow"/>
<feColorMatrix in="SourceAlpha" type="matrix" values="0 0 0 0 0 0 0 0 0 0 0 0 0 0 0 0 0 0 127 0"/>
<feOffset dx="20" dy="20"/>
<feGaussianBlur stdDeviation="16"/>
<feColorMatrix type="matrix" values="0 0 0 0 0.394405 0 0 0 0 0.34925 0 0 0 0 0.484716 0 0 0 0.06 0"/>
<feBlend mode="normal" in2="effect1_dropShadow" result="effect2_dropShadow"/>
<feColorMatrix in="SourceAlpha" type="matrix" values="0 0 0 0 0 0 0 0 0 0 0 0 0 0 0 0 0 0 127 0"/>
<feOffset dx="30" dy="30"/>
<feGaussianBlur stdDeviation="24"/>
<feColorMatrix type="matrix" values="0 0 0 0 0.394405 0 0 0 0 0.34925 0 0 0 0 0.484716 0 0 0 0.06 0"/>
<feBlend mode="normal" in2="effect2_dropShadow" result="effect3_dropShadow"/>
<feBlend mode="normal" in="SourceGraphic" in2="effect3_dropShadow" result="shape"/>
</filter>
<filter id="filter1_ddd" x="280" y="192" width="286" height="200" filterUnits="userSpaceOnUse" color-interpolation-filters="sRGB">
<feFlood flood-opacity="0" result="BackgroundImageFix"/>
<feColorMatrix in="SourceAlpha" type="matrix" values="0 0 0 0 0 0 0 0 0 0 0 0 0 0 0 0 0 0 127 0"/>
<feOffset dx="6" dy="6"/>
<feGaussianBlur stdDeviation="6"/>
<feColorMatrix type="matrix" values="0 0 0 0 0.396078 0 0 0 0 0.34902 0 0 0 0 0.486275 0 0 0 0.06 0"/>
<feBlend mode="normal" in2="BackgroundImageFix" result="effect1_dropShadow"/>
<feColorMatrix in="SourceAlpha" type="matrix" values="0 0 0 0 0 0 0 0 0 0 0 0 0 0 0 0 0 0 127 0"/>
<feOffset dx="20" dy="20"/>
<feGaussianBlur stdDeviation="16"/>
<feColorMatrix type="matrix" values="0 0 0 0 0.394405 0 0 0 0 0.34925 0 0 0 0 0.484716 0 0 0 0.06 0"/>
<feBlend mode="normal" in2="effect1_dropShadow" result="effect2_dropShadow"/>
<feColorMatrix in="SourceAlpha" type="matrix" values="0 0 0 0 0 0 0 0 0 0 0 0 0 0 0 0 0 0 127 0"/>
<feOffset dx="30" dy="30"/>
<feGaussianBlur stdDeviation="24"/>
<feColorMatrix type="matrix" values="0 0 0 0 0.394405 0 0 0 0 0.34925 0 0 0 0 0.484716 0 0 0 0.06 0"/>
<feBlend mode="normal" in2="effect2_dropShadow" result="effect3_dropShadow"/>
<feBlend mode="normal" in="SourceGraphic" in2="effect3_dropShadow" result="shape"/>
</filter>
<filter id="filter2_ddd" x="66" y="-6" width="512" height="264" filterUnits="userSpaceOnUse" color-interpolation-filters="sRGB">
<feFlood flood-opacity="0" result="BackgroundImageFix"/>
<feColorMatrix in="SourceAlpha" type="matrix" values="0 0 0 0 0 0 0 0 0 0 0 0 0 0 0 0 0 0 127 0"/>
<feOffset dx="6" dy="6"/>
<feGaussianBlur stdDeviation="6"/>
<feColorMatrix type="matrix" values="0 0 0 0 0.396078 0 0 0 0 0.34902 0 0 0 0 0.486275 0 0 0 0.06 0"/>
<feBlend mode="normal" in2="BackgroundImageFix" result="effect1_dropShadow"/>
<feColorMatrix in="SourceAlpha" type="matrix" values="0 0 0 0 0 0 0 0 0 0 0 0 0 0 0 0 0 0 127 0"/>
<feOffset dx="20" dy="20"/>
<feGaussianBlur stdDeviation="16"/>
<feColorMatrix type="matrix" values="0 0 0 0 0.394405 0 0 0 0 0.34925 0 0 0 0 0.484716 0 0 0 0.06 0"/>
<feBlend mode="normal" in2="effect1_dropShadow" result="effect2_dropShadow"/>
<feColorMatrix in="SourceAlpha" type="matrix" values="0 0 0 0 0 0 0 0 0 0 0 0 0 0 0 0 0 0 127 0"/>
<feOffset dx="30" dy="30"/>
<feGaussianBlur stdDeviation="24"/>
<feColorMatrix type="matrix" values="0 0 0 0 0.394405 0 0 0 0 0.34925 0 0 0 0 0.484716 0 0 0 0.06 0"/>
<feBlend mode="normal" in2="effect2_dropShadow" result="effect3_dropShadow"/>
<feBlend mode="normal" in="SourceGraphic" in2="effect3_dropShadow" result="shape"/>
</filter>
<linearGradient id="paint0_linear" x1="30" y1="350" x2="-141.605" y2="209.304" gradientUnits="userSpaceOnUse">
<stop stop-color="#EFECF4"/>
<stop offset="1" stop-color="#E9E6EF"/>
</linearGradient>
<linearGradient id="paint1_linear" x1="636" y1="92" x2="616" y2="92" gradientUnits="userSpaceOnUse">
<stop stop-color="#F1408C"/>
<stop offset="1" stop-color="#FF8A8D"/>
</linearGradient>
<linearGradient id="paint2_linear" x1="636" y1="164" x2="616" y2="164" gradientUnits="userSpaceOnUse">
<stop stop-color="#F1408C"/>
<stop offset="1" stop-color="#FF8A8D"/>
</linearGradient>
<linearGradient id="paint3_linear" x1="616" y1="132" x2="636" y2="132" gradientUnits="userSpaceOnUse">
<stop stop-color="#B9D532"/>
<stop offset="1" stop-color="#5BBA47"/>
</linearGradient>
<linearGradient id="paint4_linear" x1="636" y1="272" x2="616" y2="272" gradientUnits="userSpaceOnUse">
<stop stop-color="#F1408C"/>
<stop offset="1" stop-color="#FF8A8D"/>
</linearGradient>
<linearGradient id="paint5_linear" x1="616" y1="312" x2="636" y2="312" gradientUnits="userSpaceOnUse">
<stop stop-color="#B9D532"/>
<stop offset="1" stop-color="#5BBA47"/>
</linearGradient>
<linearGradient id="paint6_linear" x1="636" y1="200" x2="616" y2="200" gradientUnits="userSpaceOnUse">
<stop stop-color="#F1408C"/>
<stop offset="1" stop-color="#FF8A8D"/>
</linearGradient>
<linearGradient id="paint7_linear" x1="616" y1="240" x2="636" y2="240" gradientUnits="userSpaceOnUse">
<stop stop-color="#B9D532"/>
<stop offset="1" stop-color="#5BBA47"/>
</linearGradient>
<linearGradient id="paint8_linear" x1="292" y1="326" x2="283.799" y2="198.528" gradientUnits="userSpaceOnUse">
<stop stop-color="#EFECF4"/>
<stop offset="1" stop-color="#E9E6EF"/>
</linearGradient>
<linearGradient id="paint9_linear" x1="154" y1="302" x2="273.783" y2="302" gradientUnits="userSpaceOnUse">
<stop stop-color="#B9D532"/>
<stop offset="1" stop-color="#5BBA47"/>
</linearGradient>
<linearGradient id="paint10_linear" x1="455" y1="286" x2="356" y2="292" gradientUnits="userSpaceOnUse">
<stop offset="0.147932" stop-color="#F1408C"/>
<stop offset="1" stop-color="#FF8A8D"/>
</linearGradient>
<linearGradient id="paint11_linear" x1="410.5" y1="37.9994" x2="144" y2="28.0017" gradientUnits="userSpaceOnUse">
<stop stop-color="#3DD9EA"/>
<stop offset="1" stop-color="#44ACD9"/>
</linearGradient>
<linearGradient id="paint12_linear" x1="114.5" y1="42.5032" x2="104.447" y2="44.0401" gradientUnits="userSpaceOnUse">
<stop stop-color="#3DD9EA"/>
<stop offset="1" stop-color="#44ACD9"/>
</linearGradient>
<linearGradient id="paint13_linear" x1="108" y1="163" x2="108" y2="115" gradientUnits="userSpaceOnUse">
<stop stop-color="#B9D532"/>
<stop offset="1" stop-color="#5BBA47"/>
</linearGradient>
<linearGradient id="paint14_linear" x1="140" y1="131" x2="140" y2="99" gradientUnits="userSpaceOnUse">
<stop stop-color="#B9D532"/>
<stop offset="1" stop-color="#5BBA47"/>
</linearGradient>
<linearGradient id="paint15_linear" x1="172" y1="115" x2="172" y2="147" gradientUnits="userSpaceOnUse">
<stop offset="0.147932" stop-color="#F1408C"/>
<stop offset="1" stop-color="#FF8A8D"/>
</linearGradient>
<linearGradient id="paint16_linear" x1="204" y1="131" x2="204" y2="163" gradientUnits="userSpaceOnUse">
<stop offset="0.147932" stop-color="#F1408C"/>
<stop offset="1" stop-color="#FF8A8D"/>
</linearGradient>
<linearGradient id="paint17_linear" x1="236" y1="147" x2="236" y2="115" gradientUnits="userSpaceOnUse">
<stop stop-color="#B9D532"/>
<stop offset="1" stop-color="#5BBA47"/>
</linearGradient>
<linearGradient id="paint18_linear" x1="268" y1="131" x2="268" y2="83" gradientUnits="userSpaceOnUse">
<stop stop-color="#B9D532"/>
<stop offset="1" stop-color="#5BBA47"/>
</linearGradient>
<linearGradient id="paint19_linear" x1="300" y1="84" x2="300" y2="109" gradientUnits="userSpaceOnUse">
<stop offset="0.147932" stop-color="#F1408C"/>
<stop offset="1" stop-color="#FF8A8D"/>
</linearGradient>
<linearGradient id="paint20_linear" x1="300" y1="99" x2="300" y2="115" gradientUnits="userSpaceOnUse">
<stop offset="0.147932" stop-color="#F1408C"/>
<stop offset="1" stop-color="#FF8A8D"/>
</linearGradient>
<linearGradient id="paint21_linear" x1="332" y1="84" x2="332" y2="137" gradientUnits="userSpaceOnUse">
<stop offset="0.147932" stop-color="#F1408C"/>
<stop offset="1" stop-color="#FF8A8D"/>
</linearGradient>
<linearGradient id="paint22_linear" x1="332" y1="99" x2="332" y2="131" gradientUnits="userSpaceOnUse">
<stop offset="0.147932" stop-color="#F1408C"/>
<stop offset="1" stop-color="#FF8A8D"/>
</linearGradient>
<linearGradient id="paint23_linear" x1="364" y1="111" x2="364" y2="166" gradientUnits="userSpaceOnUse">
<stop offset="0.147932" stop-color="#F1408C"/>
<stop offset="1" stop-color="#FF8A8D"/>
</linearGradient>
<linearGradient id="paint24_linear" x1="364" y1="115" x2="364" y2="147" gradientUnits="userSpaceOnUse">
<stop offset="0.147932" stop-color="#F1408C"/>
<stop offset="1" stop-color="#FF8A8D"/>
</linearGradient>
<linearGradient id="paint25_linear" x1="396" y1="147" x2="396" y2="89" gradientUnits="userSpaceOnUse">
<stop stop-color="#B9D532"/>
<stop offset="1" stop-color="#5BBA47"/>
</linearGradient>
<linearGradient id="paint26_linear" x1="396" y1="131" x2="396" y2="99" gradientUnits="userSpaceOnUse">
<stop stop-color="#B9D532"/>
<stop offset="1" stop-color="#5BBA47"/>
</linearGradient>
<linearGradient id="paint27_linear" x1="428" y1="131" x2="428" y2="51" gradientUnits="userSpaceOnUse">
<stop stop-color="#B9D532"/>
<stop offset="1" stop-color="#5BBA47"/>
</linearGradient>
<linearGradient id="paint28_linear" x1="428" y1="115" x2="428" y2="67" gradientUnits="userSpaceOnUse">
<stop stop-color="#B9D532"/>
<stop offset="1" stop-color="#5BBA47"/>
</linearGradient>
<clipPath id="clip0">
<rect width="660" height="350" fill="white"/>
</clipPath>
</defs>
</svg>
