<svg width="660" height="350" viewBox="0 0 660 350" fill="none" xmlns="http://www.w3.org/2000/svg">
<path d="M60 0H660V350H60V0Z" fill="#F6F4FA"/>
<path d="M60 0H660V350H60V0Z" fill="#EEEBF3"/>
<path d="M0 0H60V350H0V0Z" fill="url(#paint0_linear)"/>
<circle cx="13" cy="13" r="5" fill="#D0CDD8"/>
<circle cx="30" cy="13" r="5" fill="#D0CDD8"/>
<circle cx="47" cy="13" r="5" fill="#D0CDD8"/>
<circle cx="30" cy="74" r="16" fill="#D0CDD8"/>
<circle cx="30" cy="122" r="16" fill="#D0CDD8"/>
<circle cx="30" cy="170" r="16" fill="#D0CDD8"/>
<circle cx="30" cy="310" r="16" fill="#D0CDD8"/>
<path d="M60 24H660V350H60V24Z" fill="#F6F4FA"/>
<path d="M84 52C84 49.7909 85.7909 48 88 48H332V316H88C85.7909 316 84 314.209 84 312V52Z" fill="white"/>
<path d="M172 80C172 76.6863 174.686 74 178 74H242C245.314 74 248 76.6863 248 80C248 83.3137 245.314 86 242 86H178C174.686 86 172 83.3137 172 80Z" fill="#D0CDD8"/>
<path d="M332 48H468C470.209 48 472 49.7909 472 52V312C472 314.209 470.209 316 468 316H332V48Z" fill="white"/>
<g clip-path="url(#clip0)">
<rect x="340" y="64" width="124" height="36" rx="4" fill="#F6F4FA"/>
<path d="M380 82C380 78.6863 382.686 76 386 76H450C453.314 76 456 78.6863 456 82C456 85.3137 453.314 88 450 88H386C382.686 88 380 85.3137 380 82Z" fill="#D0CDD8"/>
<path d="M360 70C353.372 70 348 75.3726 348 82C348 88.6274 353.372 94 360 94C366.628 94 372 88.6274 372 82C372.004 75.3726 366.632 70 360 70ZM360 90.9981C355.03 90.9981 351 86.9668 351 82C351 77.0332 355.03 72.9981 360 72.9981C364.97 72.9981 369 77.0257 369 81.9962C369 86.9668 364.974 90.9981 360 90.9981Z" fill="url(#paint1_linear)"/>
<rect x="340" y="112" width="124" height="36" rx="4" fill="#F6F4FA"/>
<path d="M380 130C380 126.686 382.686 124 386 124H450C453.314 124 456 126.686 456 130C456 133.314 453.314 136 450 136H386C382.686 136 380 133.314 380 130Z" fill="#D0CDD8"/>
<path d="M371 121.659V139.384L361.95 134.985V125.007L371 121.659Z" fill="url(#paint2_linear)"/>
<path d="M349 139.709L357.829 144V126.361L349 122.07V139.709Z" fill="url(#paint3_linear)"/>
<path d="M370.632 121.312L370.779 121.258L370.864 121.236L362.15 117L362.076 117.033L361.845 117.119L361.74 117.152L349.347 121.735L358.061 125.971L361.74 124.606L361.95 124.53L370.632 121.312Z" fill="url(#paint4_linear)"/>
<rect x="340" y="160" width="124" height="36" rx="4" fill="#F6F4FA"/>
<path d="M380 178C380 174.686 382.686 172 386 172H450C453.314 172 456 174.686 456 178C456 181.314 453.314 184 450 184H386C382.686 184 380 181.314 380 178Z" fill="#D0CDD8"/>
<path fill-rule="evenodd" clip-rule="evenodd" d="M364.345 168H369V189H364.345L351 171.192V168H355.035L364.345 180.432V168ZM355.811 189H351.155V173.04L355.811 178.92V189Z" fill="#0052F3"/>
<rect x="340" y="256" width="124" height="36" rx="4" fill="#F6F4FA"/>
<path d="M380 274C380 270.686 382.686 268 386 268H450C453.314 268 456 270.686 456 274C456 277.314 453.314 280 450 280H386C382.686 280 380 277.314 380 274Z" fill="#D0CDD8"/>
<path d="M366.898 275.4C362.306 279.605 355.154 279.317 350.905 274.773C350.203 274.018 349.63 273.203 349.187 272.347C348.539 275.709 349.455 279.313 351.988 282.007C356.218 286.552 363.389 286.839 367.982 282.634C371.812 279.142 372.627 273.622 370.333 269.25C369.909 271.528 368.749 273.702 366.898 275.4Z" fill="url(#paint5_radial)"/>
<path d="M349.182 272.345C349.188 272.314 349.194 272.282 349.2 272.251C349.645 272.959 350.17 273.63 350.789 274.237C354.156 277.583 358.772 278.661 362.768 276.988C364.485 276.264 365.205 275.315 363.622 275.07C359.444 274.419 356.668 270.146 354.45 268.904C353.739 268.501 352.965 268.192 352.227 268.192C350.931 268.186 349.743 269.155 349.182 272.345Z" fill="url(#paint6_radial)"/>
<path d="M367.59 274.684C367.476 274.807 367.363 274.93 367.258 275.037C367.381 274.918 367.503 274.8 367.617 274.677C367.603 274.681 367.603 274.681 367.59 274.684Z" fill="url(#paint7_radial)"/>
<path d="M363.964 267.379C363.889 267.829 364.196 268.255 364.651 268.33C365.106 268.404 365.536 268.1 365.612 267.649C365.687 267.199 365.38 266.773 364.925 266.699C364.469 266.624 364.039 266.929 363.964 267.379Z" fill="#FFA400"/>
<path d="M359.062 264.542C358.893 265.547 359.58 266.496 360.595 266.663C361.61 266.829 362.569 266.15 362.737 265.146C362.906 264.141 362.219 263.192 361.204 263.025C360.189 262.859 359.23 263.538 359.062 264.542Z" fill="#1A5296"/>
<rect x="340" y="208" width="124" height="36" rx="4" fill="#F6F4FA"/>
<path d="M380 226C380 222.686 382.686 220 386 220H450C453.314 220 456 222.686 456 226C456 229.314 453.314 232 450 232H386C382.686 232 380 229.314 380 226Z" fill="#D0CDD8"/>
<path d="M357 216H363V235C363 235.552 362.552 236 362 236H360C358.343 236 357 234.657 357 233V216Z" fill="#1181FB"/>
<path d="M367 216C368.657 216 370 217.343 370 219L370 221C370 221.552 369.552 222 369 222L352 222C351.448 222 351 221.552 351 221L351 217C351 216.448 351.448 216 352 216L367 216Z" fill="#1181FB"/>
</g>
<ellipse cx="210" cy="174" rx="62" ry="61.9999" stroke="#0B99E3" stroke-width="18"/>
<path d="M210 236C175.758 236 148 208.241 148 174C148 163.799 150.463 154.174 154.828 145.687" stroke="#B5D433" stroke-width="18"/>
<path d="M210 236C244.242 236 272 208.242 272 174C272 139.758 244.242 112 210 112" stroke="#5EBB46" stroke-width="18"/>
<rect x="100" y="267" width="216" height="24" rx="12" fill="#EEEBF3"/>
<rect x="496" y="48" width="140" height="268" rx="4" fill="white"/>
<path d="M514.414 66.6426C513.752 66.3417 513 66.8257 513 67.553V72.0536C513 73.0222 513.694 73.8516 514.647 74.0223L525.692 76L514.647 77.9777C513.694 78.1484 513 78.9778 513 79.9464V84.447C513 85.1743 513.752 85.6583 514.414 85.3574L532.997 76.9104C533.779 76.5551 533.779 75.4449 532.997 75.0896L514.414 66.6426Z" fill="#D0CDD8"/>
<path d="M565.18 66C563.7 66 562.501 67.2439 562.501 68.779C562.501 70.3141 563.7 71.5579 565.18 71.5579C565.365 71.5579 565.546 71.5382 565.72 71.5015C565.733 69.8285 566.342 68.3058 567.336 67.142C566.849 66.4517 566.068 66 565.18 66ZM572.146 67.1116C569.779 67.1116 567.859 69.1024 567.859 71.5579C567.859 74.0134 569.779 76.0043 572.146 76.0043C574.513 76.0043 576.432 74.0134 576.432 71.5579C576.432 69.1024 574.513 67.1116 572.146 67.1116ZM560.358 74.8927C560.025 74.8941 559.695 74.949 559.379 75.0555L556.526 75.7514C555.63 75.9699 555 76.7724 555 77.6944V84.1284L559.286 82.6738L568.027 85.8457C568.726 86.0992 569.495 86.0387 570.149 85.6764L577.195 81.768C577.65 81.5155 577.835 80.9562 577.621 80.4819L577.158 79.4566C576.927 78.9462 576.323 78.7247 575.817 78.9652L569.021 82.1983L568.623 81.6556L568.937 80.9261C569.425 79.7978 568.932 78.4735 567.838 77.9799L561.679 75.1901C561.641 75.172 561.602 75.1546 561.564 75.138C561.181 74.9766 560.771 74.8933 560.358 74.8927Z" fill="#D0CDD8"/>
<path fill-rule="evenodd" clip-rule="evenodd" d="M597 69C597 67.3433 598.343 66 600 66H616C617.657 66 619 67.3433 619 69V83C619 84.6567 617.657 86 616 86H600C598.343 86 597 84.6567 597 83V69ZM606 81C606 80.4478 606.448 80 607 80H614C614.552 80 615 80.4478 615 81C615 81.5522 614.552 82 614 82H607C606.448 82 606 81.5522 606 81ZM607 75C606.448 75 606 75.4478 606 76C606 76.5522 606.448 77 607 77H614C614.268 77 614.511 76.8945 614.691 76.7231C614.774 76.6436 614.844 76.5493 614.896 76.4448C614.962 76.3105 615 76.1597 615 76C615 75.4478 614.552 75 614 75H607ZM606 71C606 70.4478 606.448 70 607 70H614C614.552 70 615 70.4478 615 71C615 71.1592 614.963 71.3096 614.897 71.4429C614.733 71.7729 614.393 72 614 72H607C606.691 72 606.415 71.8599 606.231 71.6396C606.169 71.5645 606.117 71.48 606.079 71.3887C606.028 71.269 606 71.1377 606 71ZM602.5 72.5C603.329 72.5 604 71.8286 604 71C604 70.1714 603.329 69.5 602.5 69.5C601.671 69.5 601 70.1714 601 71C601 71.8286 601.671 72.5 602.5 72.5ZM604 76C604 76.8286 603.329 77.5 602.5 77.5C601.671 77.5 601 76.8286 601 76C601 75.1714 601.671 74.5 602.5 74.5C603.329 74.5 604 75.1714 604 76ZM602.5 82.5C603.329 82.5 604 81.8286 604 81C604 80.1714 603.329 79.5 602.5 79.5C601.671 79.5 601 80.1714 601 81C601 81.8286 601.671 82.5 602.5 82.5Z" fill="#D0CDD8"/>
<rect x="508" y="126" width="116" height="20" rx="2" fill="#F6F4FA"/>
<path d="M614.39 138.512C614.19 138.762 613.81 138.762 613.61 138.512L610.65 134.812C610.388 134.485 610.621 134 611.04 134H616.96C617.379 134 617.612 134.485 617.35 134.812L614.39 138.512Z" fill="#D0CDD8"/>
<path d="M514 136C514 133.791 515.791 132 518 132H586C588.209 132 590 133.791 590 136C590 138.209 588.209 140 586 140H518C515.791 140 514 138.209 514 136Z" fill="#D0CDD8"/>
<rect x="508" y="220" width="116" height="20" rx="2" fill="#F6F4FA"/>
<path d="M514 230C514 227.791 515.791 226 518 226H586C588.209 226 590 227.791 590 230C590 232.209 588.209 234 586 234H518C515.791 234 514 232.209 514 230Z" fill="#D0CDD8"/>
<circle cx="614" cy="230" r="4" fill="#D0CDD8"/>
<rect x="508" y="284" width="116" height="20" rx="4" fill="url(#paint8_linear)"/>
<path d="M539 294C539 292.343 540.343 291 542 291H590C591.657 291 593 292.343 593 294C593 295.657 591.657 297 590 297H542C540.343 297 539 295.657 539 294Z" fill="white"/>
<rect x="509" y="257" width="114" height="18" rx="3" stroke="url(#paint9_linear)" stroke-width="2"/>
<path d="M539 266C539 264.343 540.343 263 542 263H590C591.657 263 593 264.343 593 266C593 267.657 591.657 269 590 269H542C540.343 269 539 267.657 539 266Z" fill="url(#paint10_linear)"/>
<path d="M508 164C508 162.895 508.895 162 510 162H622C623.105 162 624 162.895 624 164V182H508V164Z" fill="#F6F4FA"/>
<path d="M514 172C514 169.791 515.791 168 518 168H548C550.209 168 552 169.791 552 172C552 174.209 550.209 176 548 176H518C515.791 176 514 174.209 514 172Z" fill="#D0CDD8"/>
<path d="M560 172C560 169.791 561.791 168 564 168H594C596.209 168 598 169.791 598 172C598 174.209 596.209 176 594 176H564C561.791 176 560 174.209 560 172Z" fill="#D0CDD8"/>
<path d="M508 184H624V202C624 203.105 623.105 204 622 204H510C508.895 204 508 203.105 508 202V184Z" fill="#F6F4FA"/>
<path d="M514 194C514 191.791 515.791 190 518 190H532C534.209 190 536 191.791 536 194C536 196.209 534.209 198 532 198H518C515.791 198 514 196.209 514 194Z" fill="#D0CDD8"/>
<path d="M544 194C544 191.791 545.791 190 548 190H594C596.209 190 598 191.791 598 194C598 196.209 596.209 198 594 198H548C545.791 198 544 196.209 544 194Z" fill="#D0CDD8"/>
<defs>
<linearGradient id="paint0_linear" x1="30" y1="350" x2="-141.605" y2="209.304" gradientUnits="userSpaceOnUse">
<stop stop-color="#EFECF4"/>
<stop offset="1" stop-color="#E9E6EF"/>
</linearGradient>
<linearGradient id="paint1_linear" x1="348" y1="81.9982" x2="372.003" y2="81.9982" gradientUnits="userSpaceOnUse">
<stop stop-color="#B9D532"/>
<stop offset="1" stop-color="#5BBA47"/>
</linearGradient>
<linearGradient id="paint2_linear" x1="350.11" y1="141.694" x2="401.889" y2="113.402" gradientUnits="userSpaceOnUse">
<stop stop-color="#BEEB00"/>
<stop offset="0.23" stop-color="#58BF00"/>
<stop offset="0.42" stop-color="#58BF00"/>
<stop offset="0.61" stop-color="#29B800"/>
<stop offset="0.78" stop-color="#00AE1D"/>
<stop offset="0.99" stop-color="#00A62C"/>
</linearGradient>
<linearGradient id="paint3_linear" x1="347.313" y1="136.575" x2="399.092" y2="108.282" gradientUnits="userSpaceOnUse">
<stop stop-color="#BEEB00"/>
<stop offset="0.23" stop-color="#58BF00"/>
<stop offset="0.42" stop-color="#58BF00"/>
<stop offset="0.61" stop-color="#29B800"/>
<stop offset="0.78" stop-color="#00AE1D"/>
<stop offset="0.99" stop-color="#00A62C"/>
</linearGradient>
<linearGradient id="paint4_linear" x1="344.135" y1="130.758" x2="395.914" y2="102.466" gradientUnits="userSpaceOnUse">
<stop stop-color="#BEEB00"/>
<stop offset="0.23" stop-color="#58BF00"/>
<stop offset="0.42" stop-color="#58BF00"/>
<stop offset="0.61" stop-color="#29B800"/>
<stop offset="0.78" stop-color="#00AE1D"/>
<stop offset="0.99" stop-color="#00A62C"/>
</linearGradient>
<radialGradient id="paint5_radial" cx="0" cy="0" r="1" gradientUnits="userSpaceOnUse" gradientTransform="translate(369.214 279.36) rotate(177.994) scale(18.7333 18.5399)">
<stop stop-color="#1A5296"/>
<stop offset="1" stop-color="#1A2C59"/>
</radialGradient>
<radialGradient id="paint6_radial" cx="0" cy="0" r="1" gradientUnits="userSpaceOnUse" gradientTransform="translate(351.818 271.654) rotate(28.8023) scale(10.2098 10.1534)">
<stop stop-color="#FFE259"/>
<stop offset="1" stop-color="#FFA400"/>
</radialGradient>
<radialGradient id="paint7_radial" cx="0" cy="0" r="1" gradientUnits="userSpaceOnUse" gradientTransform="translate(352.548 271.758) rotate(28.8023) scale(9.74511 9.56301)">
<stop stop-color="#FFE259"/>
<stop offset="1" stop-color="#FFA400"/>
</radialGradient>
<linearGradient id="paint8_linear" x1="508" y1="304" x2="624" y2="304" gradientUnits="userSpaceOnUse">
<stop stop-color="#B9D532"/>
<stop offset="1" stop-color="#5BBA47"/>
</linearGradient>
<linearGradient id="paint9_linear" x1="508" y1="276" x2="624" y2="276" gradientUnits="userSpaceOnUse">
<stop stop-color="#B9D532"/>
<stop offset="1" stop-color="#5BBA47"/>
</linearGradient>
<linearGradient id="paint10_linear" x1="539" y1="269" x2="593" y2="269" gradientUnits="userSpaceOnUse">
<stop stop-color="#B9D532"/>
<stop offset="1" stop-color="#5BBA47"/>
</linearGradient>
<clipPath id="clip0">
<rect width="124" height="228" fill="white" transform="translate(340 64)"/>
</clipPath>
</defs>
</svg>
