<svg width="660" height="350" viewBox="0 0 660 350" fill="none" xmlns="http://www.w3.org/2000/svg">
<g clip-path="url(#clip0)">
<path d="M60 0H660V350H60V0Z" fill="#F6F4FA"/>
<path d="M60 0H660V350H60V0Z" fill="#EEEBF3"/>
<rect x="60" width="192" height="24" fill="#F6F4FA"/>
<path d="M60 24H660V350H60V24Z" fill="#F6F4FA"/>
<path d="M349.655 269.223C358.444 285.513 355.514 322.087 355.593 326H324V171C335.877 171 340.865 182.26 340.865 208.612C340.865 234.964 351.08 234.006 351.08 245.985C351.08 254.849 344.835 260.29 349.655 269.223Z" fill="url(#paint0_linear)"/>
<path d="M298.345 269.223C289.556 285.513 292.486 322.087 292.407 326H324V171C312.123 171 307.135 182.26 307.135 208.612C307.135 234.964 296.92 234.006 296.92 245.985C296.92 254.849 303.165 260.29 298.345 269.223Z" fill="#D0CDD8"/>
<path d="M324 234V313.5" stroke="#A69FB3" stroke-linecap="round" stroke-linejoin="bevel"/>
<path d="M335 283L324 294" stroke="#A69FB3" stroke-linecap="round" stroke-linejoin="bevel"/>
<path d="M324 267L329.5 261.5" stroke="#A69FB3" stroke-linecap="round" stroke-linejoin="bevel"/>
<path d="M324 282.5L318.5 277" stroke="#A69FB3" stroke-linecap="round" stroke-linejoin="bevel"/>
<path opacity="0.8" d="M173.443 263.32C173.637 262.795 173.983 262.119 174.502 261.346C196.836 219.974 204.129 222.311 206.817 226.976C209.548 231.713 200.618 247.231 188.401 251.572C180.705 254.306 176.422 258.487 174.502 261.346C174.152 261.993 173.799 262.651 173.443 263.32Z" fill="url(#paint1_linear)"/>
<path opacity="0.8" d="M189.841 186.238C178.831 206.272 174.714 247.795 174.032 266.053C187.586 231.871 191.644 224.71 205.126 198.374C218.608 172.038 203.603 161.196 189.841 186.238Z" fill="url(#paint2_linear)"/>
<path opacity="0.8" d="M171.354 180.352C164.335 207.093 169.403 247.668 172.815 264.613C200.404 169.864 194.518 139.282 189.117 138.766C183.716 138.251 180.128 146.925 171.354 180.352Z" fill="url(#paint3_linear)"/>
<path opacity="0.8" d="M152.873 221.35C161.033 233.076 170.51 258.115 174.229 269.168C171.493 196.686 149.023 179.759 143.739 182.112C138.455 184.465 142.673 206.693 152.873 221.35Z" fill="url(#paint4_linear)"/>
<path d="M569.5 284.983C590.3 329.275 639.5 339.149 663 350.483H56V232.983C148 232.983 321.5 313.5 321.5 313.5C321.5 313.5 347 314.4 393 250C450.5 169.5 531 203 569.5 284.983Z" fill="#EDEBF3"/>
<path d="M118.933 339.728L93.7289 349.5L50.0031 349.5C57.6395 328.06 73.5737 278.027 74.657 279.334C75.7402 280.641 67.237 308.602 62.8499 322.418C83.2544 293.192 96.0147 264.994 97.4464 266.174C98.5918 267.118 84.1532 300.668 76.7907 317.326C84.2508 306.917 99.4041 286.374 100.337 287.468C101.27 288.562 92.016 306.999 87.2723 316.081C97.9153 304.348 118.994 281.546 118.165 284.209C117.336 286.871 92.6087 323.538 80.3488 341.538C85.5465 336.258 112.754 320.831 125.707 313.778L83.7695 346.097L118.933 339.728Z" fill="url(#paint5_linear)"/>
<path opacity="0.8" d="M567.833 378.124C561.365 345.57 530.847 305.997 516.397 290.28C529.723 352.679 549.307 379.761 557.433 385.501L567.833 378.124Z" fill="url(#paint6_linear)"/>
<path d="M562.931 357.887C564.723 332.392 550.075 296.81 542.527 282.206C539.783 331.262 548.841 355.349 553.713 361.26L562.931 357.887Z" fill="url(#paint7_linear)"/>
<path d="M558.518 360.891C556.982 339.031 569.542 308.522 576.014 296C578.367 338.062 570.6 358.715 566.423 363.784L558.518 360.891Z" fill="url(#paint8_linear)"/>
<path d="M564.406 363.431C567.157 348.049 581.163 329.147 587.822 321.618C582.111 351.11 573.138 364.034 569.366 366.81L564.406 363.431Z" fill="url(#paint9_linear)"/>
<path opacity="0.7" d="M530.658 331.447C526.317 328.417 516.69 322.112 512.42 319.338C516.837 330.863 532.195 353.418 539.323 363.255L548.186 359.82C543.821 347.773 536.084 335.234 530.658 331.447Z" fill="url(#paint10_linear)"/>
<path opacity="0.7" d="M515.31 339.897C510.868 339.984 505.773 338.909 503.78 338.36C509.852 347.039 524.774 354.211 531.475 356.712L539.769 351.296C530.157 337.224 520.862 339.788 515.31 339.897Z" fill="url(#paint11_linear)"/>
<path d="M322.5 313.5C302.166 317.5 242.3 325.5 169.5 325.5C78.4998 325.5 177.5 248.5 322.5 313.5Z" fill="url(#paint12_linear)"/>
<path d="M0 0H60V350H0V0Z" fill="url(#paint13_linear)"/>
<circle cx="13" cy="13" r="5" fill="#D0CDD8"/>
<circle cx="30" cy="13" r="5" fill="#D0CDD8"/>
<circle cx="47" cy="13" r="5" fill="#D0CDD8"/>
<circle cx="30" cy="74" r="16" fill="#D0CDD8"/>
<circle cx="30" cy="122" r="16" fill="#D0CDD8"/>
<circle cx="30" cy="170" r="16" fill="#D0CDD8"/>
<circle cx="30" cy="310" r="16" fill="#D0CDD8"/>
<rect x="100" y="147" width="72" height="72" rx="8" fill="white"/>
<rect x="100" y="147" width="72" height="72" rx="8" fill="white"/>
<path fill-rule="evenodd" clip-rule="evenodd" d="M115 183C115 171.402 124.402 162 136 162C147.598 162 157 171.402 157 183C157 194.598 147.598 204 136 204C124.402 204 115 194.598 115 183ZM120.25 183C120.25 191.699 127.301 198.75 136 198.75C144.699 198.75 151.75 191.699 151.75 183C151.75 174.301 144.699 167.25 136 167.25C127.301 167.25 120.25 174.301 120.25 183Z" fill="url(#paint14_linear)"/>
<rect x="548" y="147" width="72" height="72" rx="8" fill="white"/>
<path d="M588.056 159C597.242 161.461 604.406 170.562 604.926 179.491C605.792 192.427 598.975 200.842 589.269 204.505C580.43 207.825 569.279 205.764 562 196.835C573.266 199.239 582.279 196.091 588.576 187.161C594.815 178.175 594.122 168.731 588.056 159Z" fill="#FFE063"/>
<rect x="436" y="147" width="72" height="72" rx="8" fill="white"/>
<path d="M456 171.041L464.599 182.425V201H456V171.041Z" fill="#0052F3"/>
<path d="M480.548 164H489V201H481.209L456 167.67V164H463.791L480.548 186.02V164Z" fill="#0052F3"/>
<rect x="324" y="147" width="72" height="72" rx="8" fill="url(#paint15_linear)" fill-opacity="0.25" style="mix-blend-mode:multiply"/>
<rect x="324" y="147" width="72" height="72" rx="8" fill="white"/>
<path d="M354 164H365V202C365 202.552 364.552 203 364 203H358C355.791 203 354 201.209 354 199V164Z" fill="#1181FB"/>
<path d="M372 164C374.209 164 376 165.791 376 168L376 173C376 173.552 375.552 174 375 174L345 174C344.448 174 344 173.552 344 173L344 165C344 164.448 344.448 164 345 164L372 164Z" fill="#1181FB"/>
<rect x="212" y="147" width="72" height="72" rx="8" fill="white"/>
<g clip-path="url(#clip1)">
<path d="M243.995 177.494V164.353C243.995 163.847 243.651 163.644 243.204 163.914L241.278 165.029C241.106 165.13 241.003 165.299 241.003 165.468V177.291C241.003 177.562 241.243 177.798 241.519 177.798C242.138 177.832 242.757 177.899 243.376 178.001C243.72 178.065 243.995 177.829 243.995 177.494ZM250.013 180.058V162.053C250.013 161.85 249.91 161.681 249.738 161.614L248.775 161.073C248.603 160.972 248.397 160.972 248.259 161.073L247.296 161.614C247.124 161.715 247.021 161.884 247.021 162.053V178.876C247.021 179.078 247.124 179.247 247.296 179.349C247.95 179.687 248.569 180.058 249.188 180.497C249.635 180.805 250.013 180.636 250.013 180.058ZM238.011 177.626V167.762C238.011 167.255 237.667 167.052 237.22 167.323L235.259 168.404C235.087 168.505 234.984 168.674 234.984 168.843V178.2C234.984 178.606 235.294 178.842 235.706 178.707C236.325 178.504 236.944 178.301 237.598 178.166C237.839 178.099 238.011 177.862 238.011 177.626ZM266.04 178.741C266.796 178.065 267.415 177.423 267.862 176.916C267.966 176.815 268 176.68 268 176.579V172.221C268 172.018 267.897 171.849 267.725 171.782L265.799 170.667C265.352 170.43 265.008 170.633 265.008 171.106V178.47C265.008 179.112 265.421 179.281 265.902 178.876C265.971 178.845 266.005 178.774 266.04 178.741ZM231.992 180.197V171.143C231.992 170.637 231.648 170.434 231.201 170.704L229.275 171.785C229.103 171.886 229 172.055 229 172.258V181.514C229 182.088 229.378 182.257 229.86 181.919C230.444 181.48 231.063 181.041 231.751 180.636C231.889 180.534 231.992 180.366 231.992 180.197ZM261.981 181.409V168.843C261.981 168.64 261.878 168.471 261.706 168.404L259.78 167.289C259.333 167.052 258.989 167.255 258.989 167.728V182.254C258.989 182.659 259.299 182.896 259.712 182.761C260.399 182.49 261.087 182.186 261.706 181.849C261.878 181.781 261.981 181.612 261.981 181.409ZM255.997 182.899V165.434C255.997 165.232 255.894 165.063 255.722 164.995L253.796 163.88C253.349 163.644 253.005 163.847 253.005 164.319V182.494C253.005 182.73 253.143 182.933 253.349 183C254.037 183.237 254.725 183.372 255.413 183.406C255.722 183.436 255.997 183.234 255.997 182.899ZM253.005 188.541V201.681C253.005 202.188 253.349 202.391 253.796 202.121L255.722 201.006C255.894 200.904 255.997 200.736 255.997 200.567V188.743C255.997 188.473 255.757 188.237 255.481 188.237C254.862 188.203 254.243 188.135 253.624 188.034C253.28 187.966 253.005 188.203 253.005 188.541ZM246.987 185.939V203.945C246.987 204.147 247.09 204.316 247.262 204.384L248.225 204.924C248.397 205.026 248.603 205.026 248.741 204.924L249.704 204.384C249.876 204.283 249.979 204.114 249.979 203.945V187.122C249.979 186.919 249.876 186.75 249.704 186.649C249.05 186.311 248.431 185.939 247.812 185.5C247.365 185.193 246.987 185.396 246.987 185.939ZM258.989 188.372V198.27C258.989 198.776 259.333 198.979 259.78 198.709L261.706 197.594C261.878 197.493 261.981 197.324 261.981 197.155V187.797C261.981 187.392 261.672 187.156 261.259 187.291C260.64 187.493 260.021 187.696 259.368 187.831C259.161 187.932 258.989 188.135 258.989 188.372ZM230.96 187.257C230.204 187.932 229.585 188.574 229.138 189.081C229.034 189.182 229 189.318 229 189.419V193.777C229 193.979 229.103 194.148 229.275 194.216L231.201 195.331C231.648 195.567 231.992 195.364 231.992 194.891V187.493C231.992 186.851 231.579 186.683 231.098 187.088C231.029 187.189 230.96 187.223 230.96 187.257ZM265.008 185.838V194.858C265.008 195.364 265.352 195.567 265.799 195.297L267.725 194.182C267.897 194.081 268 193.912 268 193.743V184.521C268 183.946 267.622 183.744 267.14 184.115C266.556 184.554 265.902 184.994 265.249 185.399C265.077 185.5 265.008 185.669 265.008 185.838ZM234.984 184.622V197.189C234.984 197.391 235.087 197.56 235.259 197.628L237.185 198.742C237.632 198.979 237.976 198.776 237.976 198.303V183.777C237.976 183.372 237.667 183.136 237.254 183.271C236.566 183.541 235.878 183.845 235.259 184.183C235.122 184.247 234.984 184.416 234.984 184.622ZM241.003 183.102V200.567C241.003 200.769 241.106 200.938 241.278 201.006L243.204 202.121C243.651 202.357 243.995 202.154 243.995 201.681V183.507C243.995 183.271 243.857 183.068 243.651 183C242.963 182.764 242.275 182.629 241.587 182.595C241.243 182.558 241.003 182.798 241.003 183.102Z" fill="#BE0104"/>
</g>
<rect x="106" y="8" width="100" height="10" rx="5" fill="#D0CDD8"/>
<g filter="url(#filter0_ddd)">
<rect x="100" y="66" width="520" height="42" rx="8" fill="white"/>
</g>
<path d="M142.278 93H146.739C149.443 93 150.665 91.6534 150.665 89.8693C150.665 88.0682 149.403 87.0511 148.25 86.9886V86.875C149.318 86.6023 150.21 85.875 150.21 84.4205C150.21 82.6989 149.017 81.3636 146.54 81.3636H142.278V93ZM144.034 91.4943V87.767H146.631C148.04 87.767 148.92 88.6761 148.92 89.7841C148.92 90.7614 148.256 91.4943 146.568 91.4943H144.034ZM144.034 86.3977V82.858H146.432C147.824 82.858 148.489 83.5909 148.489 84.5568C148.489 85.6818 147.568 86.3977 146.386 86.3977H144.034ZM152.611 93H154.31V87.6705C154.31 86.5284 155.19 85.7045 156.395 85.7045C156.747 85.7045 157.145 85.767 157.281 85.8068V84.1818C157.111 84.1591 156.776 84.142 156.56 84.142C155.537 84.142 154.662 84.7216 154.344 85.6591H154.253V84.2727H152.611V93ZM162.115 93.1761C164.575 93.1761 166.183 91.375 166.183 88.6761C166.183 85.9602 164.575 84.1591 162.115 84.1591C159.655 84.1591 158.047 85.9602 158.047 88.6761C158.047 91.375 159.655 93.1761 162.115 93.1761ZM162.121 91.75C160.513 91.75 159.763 90.3466 159.763 88.6705C159.763 87 160.513 85.5795 162.121 85.5795C163.717 85.5795 164.467 87 164.467 88.6705C164.467 90.3466 163.717 91.75 162.121 91.75ZM169.706 93H171.433L173.206 86.6989H173.337L175.109 93H176.842L179.405 84.2727H177.649L175.95 90.6534H175.865L174.161 84.2727H172.405L170.689 90.6818H170.604L168.893 84.2727H167.138L169.706 93ZM187.557 86.4034C187.205 85.0455 186.142 84.1591 184.256 84.1591C182.284 84.1591 180.886 85.1989 180.886 86.7443C180.886 87.983 181.636 88.8068 183.273 89.1705L184.75 89.4943C185.591 89.6818 185.983 90.0568 185.983 90.6023C185.983 91.2784 185.261 91.8068 184.148 91.8068C183.131 91.8068 182.477 91.3693 182.273 90.5114L180.631 90.7614C180.915 92.3068 182.199 93.1761 184.159 93.1761C186.267 93.1761 187.727 92.0568 187.727 90.4773C187.727 89.2443 186.943 88.483 185.341 88.1136L183.955 87.7955C182.994 87.5682 182.58 87.2443 182.585 86.6534C182.58 85.983 183.307 85.5057 184.273 85.5057C185.33 85.5057 185.818 86.0909 186.017 86.6761L187.557 86.4034ZM193.357 93.1761C195.26 93.1761 196.607 92.2386 196.993 90.8182L195.385 90.5284C195.078 91.3523 194.339 91.7727 193.374 91.7727C191.919 91.7727 190.942 90.8295 190.896 89.1477H197.101V88.5455C197.101 85.392 195.214 84.1591 193.237 84.1591C190.805 84.1591 189.203 86.0114 189.203 88.6932C189.203 91.4034 190.783 93.1761 193.357 93.1761ZM190.902 87.875C190.97 86.6364 191.868 85.5625 193.249 85.5625C194.567 85.5625 195.43 86.5398 195.436 87.875H190.902ZM207.294 84.2727H205.504V82.1818H203.805V84.2727H202.527V85.6364H203.805V90.7898C203.8 92.375 205.01 93.142 206.351 93.1136C206.891 93.108 207.254 93.0057 207.453 92.9318L207.146 91.5284C207.033 91.5511 206.822 91.6023 206.55 91.6023C205.999 91.6023 205.504 91.4205 205.504 90.4375V85.6364H207.294V84.2727ZM211.06 87.8182C211.06 86.4261 211.94 85.6307 213.151 85.6307C214.321 85.6307 215.02 86.375 215.02 87.6534V93H216.719V87.4489C216.719 85.2727 215.526 84.1591 213.73 84.1591C212.372 84.1591 211.554 84.75 211.145 85.6932H211.037V81.3636H209.361V93H211.06V87.8182ZM222.747 93.1761C224.651 93.1761 225.997 92.2386 226.384 90.8182L224.776 90.5284C224.469 91.3523 223.73 91.7727 222.764 91.7727C221.31 91.7727 220.332 90.8295 220.287 89.1477H226.491V88.5455C226.491 85.392 224.605 84.1591 222.628 84.1591C220.196 84.1591 218.594 86.0114 218.594 88.6932C218.594 91.4034 220.173 93.1761 222.747 93.1761ZM220.293 87.875C220.361 86.6364 221.259 85.5625 222.639 85.5625C223.957 85.5625 224.821 86.5398 224.827 87.875H220.293ZM235.026 93H236.798L239.247 84.2841H239.338L241.787 93H243.554L246.787 81.3636H244.935L242.673 90.3807H242.565L240.207 81.3636H238.378L236.02 90.375H235.912L233.645 81.3636H231.798L235.026 93ZM251.153 93.1761C253.057 93.1761 254.403 92.2386 254.79 90.8182L253.182 90.5284C252.875 91.3523 252.136 91.7727 251.17 91.7727C249.716 91.7727 248.739 90.8295 248.693 89.1477H254.898V88.5455C254.898 85.392 253.011 84.1591 251.034 84.1591C248.602 84.1591 247 86.0114 247 88.6932C247 91.4034 248.58 93.1761 251.153 93.1761ZM248.699 87.875C248.767 86.6364 249.665 85.5625 251.045 85.5625C252.364 85.5625 253.227 86.5398 253.233 87.875H248.699ZM256.919 93H258.578V91.642H258.72C259.027 92.1989 259.652 93.1705 261.243 93.1705C263.357 93.1705 264.891 91.4773 264.891 88.6534C264.891 85.8239 263.334 84.1591 261.226 84.1591C259.607 84.1591 259.021 85.1477 258.72 85.6875H258.618V81.3636H256.919V93ZM258.584 88.6364C258.584 86.8125 259.379 85.6023 260.862 85.6023C262.402 85.6023 263.175 86.9034 263.175 88.6364C263.175 90.3864 262.379 91.7216 260.862 91.7216C259.402 91.7216 258.584 90.4716 258.584 88.6364ZM267.918 93.108C268.537 93.108 269.054 92.6023 269.054 91.9716C269.054 91.3523 268.537 90.8409 267.918 90.8409C267.293 90.8409 266.781 91.3523 266.781 91.9716C266.781 92.6023 267.293 93.108 267.918 93.108ZM277.075 87.8182C277.075 86.4261 277.956 85.6307 279.166 85.6307C280.337 85.6307 281.036 86.375 281.036 87.6534V93H282.734V87.4489C282.734 85.2727 281.541 84.1591 279.746 84.1591C278.388 84.1591 277.57 84.75 277.161 85.6932H277.053V81.3636H275.376V93H277.075V87.8182ZM289.075 84.2727H287.286V82.1818H285.587V84.2727H284.308V85.6364H285.587V90.7898C285.581 92.375 286.791 93.142 288.132 93.1136C288.672 93.108 289.036 93.0057 289.234 92.9318L288.928 91.5284C288.814 91.5511 288.604 91.6023 288.331 91.6023C287.78 91.6023 287.286 91.4205 287.286 90.4375V85.6364H289.075V84.2727ZM295.028 84.2727H293.239V82.1818H291.54V84.2727H290.261V85.6364H291.54V90.7898C291.534 92.375 292.744 93.142 294.085 93.1136C294.625 93.108 294.989 93.0057 295.188 92.9318L294.881 91.5284C294.767 91.5511 294.557 91.6023 294.284 91.6023C293.733 91.6023 293.239 91.4205 293.239 90.4375V85.6364H295.028V84.2727ZM296.908 96.2727H298.607V91.642H298.709C299.016 92.1989 299.641 93.1705 301.232 93.1705C303.345 93.1705 304.879 91.4773 304.879 88.6534C304.879 85.8239 303.322 84.1591 301.214 84.1591C299.595 84.1591 299.01 85.1477 298.709 85.6875H298.567V84.2727H296.908V96.2727ZM298.572 88.6364C298.572 86.8125 299.368 85.6023 300.851 85.6023C302.391 85.6023 303.163 86.9034 303.163 88.6364C303.163 90.3864 302.368 91.7216 300.851 91.7216C299.391 91.7216 298.572 90.4716 298.572 88.6364ZM314.403 93.1648C315.455 93.1648 316.619 92.8125 317.403 92.0795L318.188 93H320.108L318.455 91.0227C318.949 90.3636 319.42 89.3295 319.42 87.7159H317.886C317.886 88.4943 317.705 89.1875 317.403 89.767L315.074 86.983L315.869 86.3977C316.835 85.6932 317.415 84.8807 317.415 83.7727C317.415 82.4148 316.318 81.2386 314.528 81.2386C312.756 81.2386 311.591 82.3807 311.591 83.9886C311.591 85.0284 312.136 85.8523 312.869 86.7443C311.54 87.6648 310.636 88.5227 310.636 89.9091C310.636 91.7784 312.062 93.1648 314.403 93.1648ZM316.449 90.9545C315.847 91.4545 315.125 91.7273 314.409 91.7273C313.148 91.7273 312.324 90.8693 312.324 89.8636C312.324 89.5057 312.625 88.7898 313.534 88.1193L313.841 87.892L316.449 90.9545ZM314.136 85.8523C313.608 85.2045 313.193 84.608 313.193 84.017C313.193 83.3409 313.75 82.6591 314.568 82.6591C315.352 82.6591 315.864 83.2727 315.864 83.8182C315.864 84.5114 315.483 84.9318 314.852 85.3466L314.136 85.8523ZM327.372 87.8182C327.372 86.4261 328.224 85.6307 329.406 85.6307C330.56 85.6307 331.259 86.3864 331.259 87.6534V93H332.957V87.4489C332.957 85.2898 331.77 84.1591 329.986 84.1591C328.673 84.1591 327.815 84.767 327.412 85.6932H327.304V84.2727H325.673V93H327.372V87.8182ZM338.912 93.1761C341.372 93.1761 342.98 91.375 342.98 88.6761C342.98 85.9602 341.372 84.1591 338.912 84.1591C336.452 84.1591 334.844 85.9602 334.844 88.6761C334.844 91.375 336.452 93.1761 338.912 93.1761ZM338.918 91.75C337.31 91.75 336.56 90.3466 336.56 88.6705C336.56 87 337.31 85.5795 338.918 85.5795C340.514 85.5795 341.264 87 341.264 88.6705C341.264 90.3466 340.514 91.75 338.918 91.75ZM351.416 86.4034C351.064 85.0455 350.001 84.1591 348.115 84.1591C346.143 84.1591 344.746 85.1989 344.746 86.7443C344.746 87.983 345.496 88.8068 347.132 89.1705L348.609 89.4943C349.45 89.6818 349.842 90.0568 349.842 90.6023C349.842 91.2784 349.121 91.8068 348.007 91.8068C346.99 91.8068 346.337 91.3693 346.132 90.5114L344.49 90.7614C344.774 92.3068 346.058 93.1761 348.018 93.1761C350.126 93.1761 351.587 92.0568 351.587 90.4773C351.587 89.2443 350.803 88.483 349.2 88.1136L347.814 87.7955C346.854 87.5682 346.439 87.2443 346.445 86.6534C346.439 85.983 347.166 85.5057 348.132 85.5057C349.189 85.5057 349.678 86.0909 349.876 86.6761L351.416 86.4034Z" fill="#968FA6"/>
<path d="M116.5 93C120.642 93 124 89.6421 124 85.5C124 81.3579 120.642 78 116.5 78C112.358 78 109 81.3579 109 85.5C109 89.6421 112.358 93 116.5 93Z" stroke="#968FA6" stroke-width="2" stroke-linecap="round" stroke-linejoin="round"/>
<path d="M127 95.9998L121.8 90.7998" stroke="#968FA6" stroke-width="2" stroke-linecap="round" stroke-linejoin="round"/>
</g>
<defs>
<filter id="filter0_ddd" x="82" y="48" width="616" height="138" filterUnits="userSpaceOnUse" color-interpolation-filters="sRGB">
<feFlood flood-opacity="0" result="BackgroundImageFix"/>
<feColorMatrix in="SourceAlpha" type="matrix" values="0 0 0 0 0 0 0 0 0 0 0 0 0 0 0 0 0 0 127 0"/>
<feOffset dx="6" dy="6"/>
<feGaussianBlur stdDeviation="6"/>
<feColorMatrix type="matrix" values="0 0 0 0 0.396078 0 0 0 0 0.34902 0 0 0 0 0.486275 0 0 0 0.06 0"/>
<feBlend mode="normal" in2="BackgroundImageFix" result="effect1_dropShadow"/>
<feColorMatrix in="SourceAlpha" type="matrix" values="0 0 0 0 0 0 0 0 0 0 0 0 0 0 0 0 0 0 127 0"/>
<feOffset dx="20" dy="20"/>
<feGaussianBlur stdDeviation="16"/>
<feColorMatrix type="matrix" values="0 0 0 0 0.394405 0 0 0 0 0.34925 0 0 0 0 0.484716 0 0 0 0.06 0"/>
<feBlend mode="normal" in2="effect1_dropShadow" result="effect2_dropShadow"/>
<feColorMatrix in="SourceAlpha" type="matrix" values="0 0 0 0 0 0 0 0 0 0 0 0 0 0 0 0 0 0 127 0"/>
<feOffset dx="30" dy="30"/>
<feGaussianBlur stdDeviation="24"/>
<feColorMatrix type="matrix" values="0 0 0 0 0.394405 0 0 0 0 0.34925 0 0 0 0 0.484716 0 0 0 0.06 0"/>
<feBlend mode="normal" in2="effect2_dropShadow" result="effect3_dropShadow"/>
<feBlend mode="normal" in="SourceGraphic" in2="effect3_dropShadow" result="shape"/>
</filter>
<linearGradient id="paint0_linear" x1="337.5" y1="306" x2="330.5" y2="205.5" gradientUnits="userSpaceOnUse">
<stop stop-color="#D0CDD8"/>
<stop offset="1" stop-color="#EDEBF3"/>
</linearGradient>
<linearGradient id="paint1_linear" x1="187.483" y1="209.995" x2="187.916" y2="263.239" gradientUnits="userSpaceOnUse">
<stop stop-color="#B9B5C5"/>
<stop offset="1" stop-color="#D0CDD8" stop-opacity="0.5"/>
</linearGradient>
<linearGradient id="paint2_linear" x1="137.011" y1="102.189" x2="185.587" y2="254.022" gradientUnits="userSpaceOnUse">
<stop stop-color="#B9B5C5"/>
<stop offset="1" stop-color="#D0CDD8" stop-opacity="0.5"/>
</linearGradient>
<linearGradient id="paint3_linear" x1="117.654" y1="118.567" x2="181.299" y2="264.726" gradientUnits="userSpaceOnUse">
<stop stop-color="#B9B5C5"/>
<stop offset="1" stop-color="#D0CDD8" stop-opacity="0.5"/>
</linearGradient>
<linearGradient id="paint4_linear" x1="143.707" y1="111.999" x2="183.943" y2="266.253" gradientUnits="userSpaceOnUse">
<stop stop-color="#B9B5C5"/>
<stop offset="1" stop-color="#D0CDD8" stop-opacity="0.5"/>
</linearGradient>
<linearGradient id="paint5_linear" x1="61.0349" y1="350.317" x2="105.924" y2="316.576" gradientUnits="userSpaceOnUse">
<stop stop-color="#B9B5C5"/>
<stop offset="1" stop-color="#D0CDD8" stop-opacity="0.5"/>
</linearGradient>
<linearGradient id="paint6_linear" x1="513.156" y1="267.779" x2="574.84" y2="363.74" gradientUnits="userSpaceOnUse">
<stop stop-color="#B9B5C5"/>
<stop offset="1" stop-color="#D0CDD8" stop-opacity="0.5"/>
</linearGradient>
<linearGradient id="paint7_linear" x1="544.679" y1="264.834" x2="571.067" y2="348.615" gradientUnits="userSpaceOnUse">
<stop stop-color="#B9B5C5"/>
<stop offset="1" stop-color="#D0CDD8" stop-opacity="0.5"/>
</linearGradient>
<linearGradient id="paint8_linear" x1="574.169" y1="281.104" x2="551.543" y2="352.941" gradientUnits="userSpaceOnUse">
<stop stop-color="#B9B5C5"/>
<stop offset="1" stop-color="#D0CDD8" stop-opacity="0.5"/>
</linearGradient>
<linearGradient id="paint9_linear" x1="589.146" y1="310.998" x2="560.97" y2="356.717" gradientUnits="userSpaceOnUse">
<stop stop-color="#B9B5C5"/>
<stop offset="1" stop-color="#D0CDD8" stop-opacity="0.5"/>
</linearGradient>
<linearGradient id="paint10_linear" x1="511.139" y1="308.598" x2="534.368" y2="360.628" gradientUnits="userSpaceOnUse">
<stop stop-color="#B9B5C5"/>
<stop offset="1" stop-color="#D0CDD8" stop-opacity="0.5"/>
</linearGradient>
<linearGradient id="paint11_linear" x1="503.207" y1="332.86" x2="513.277" y2="360.702" gradientUnits="userSpaceOnUse">
<stop stop-color="#B9B5C5"/>
<stop offset="1" stop-color="#D0CDD8" stop-opacity="0.5"/>
</linearGradient>
<linearGradient id="paint12_linear" x1="238" y1="356" x2="229.5" y2="309" gradientUnits="userSpaceOnUse">
<stop stop-color="#D0CDD8"/>
<stop offset="1" stop-color="#D0CDD8" stop-opacity="0"/>
</linearGradient>
<linearGradient id="paint13_linear" x1="30" y1="350" x2="-141.605" y2="209.304" gradientUnits="userSpaceOnUse">
<stop stop-color="#EFECF4"/>
<stop offset="1" stop-color="#E9E6EF"/>
</linearGradient>
<linearGradient id="paint14_linear" x1="115" y1="204" x2="157" y2="204" gradientUnits="userSpaceOnUse">
<stop stop-color="#A5AFFB"/>
<stop offset="1" stop-color="#6979F8"/>
</linearGradient>
<linearGradient id="paint15_linear" x1="360" y1="147" x2="360" y2="219" gradientUnits="userSpaceOnUse">
<stop stop-color="white"/>
<stop offset="0.546961" stop-color="#DA3D50"/>
<stop offset="0.80663" stop-color="#F16830"/>
<stop offset="1" stop-color="#F5A63D"/>
</linearGradient>
<clipPath id="clip0">
<rect width="660" height="350" fill="white"/>
</clipPath>
<clipPath id="clip1">
<rect width="39" height="44" fill="white" transform="translate(229 161)"/>
</clipPath>
</defs>
</svg>
