<svg width="660" height="350" viewBox="0 0 660 350" fill="none" xmlns="http://www.w3.org/2000/svg">
<g clip-path="url(#clip0)">
<path d="M60 0H660V350H60V0Z" fill="#F6F4FA"/>
<path d="M60 0H660V350H60V0Z" fill="#EEEBF3"/>
<path d="M0 0H60V350H0V0Z" fill="url(#paint0_linear)"/>
<circle cx="13" cy="13" r="5" fill="#D0CDD8"/>
<circle cx="30" cy="13" r="5" fill="#D0CDD8"/>
<circle cx="47" cy="13" r="5" fill="#D0CDD8"/>
<circle cx="30" cy="74" r="16" fill="#D0CDD8"/>
<circle cx="30" cy="122" r="16" fill="#D0CDD8"/>
<circle cx="30" cy="170" r="16" fill="#D0CDD8"/>
<circle cx="30" cy="310" r="16" fill="#D0CDD8"/>
<rect x="60" width="192" height="24" fill="#F6F4FA"/>
<path d="M60 24H660V350H60V24Z" fill="#F6F4FA"/>
<rect x="106" y="8" width="100" height="10" rx="5" fill="#D0CDD8"/>
<rect x="100" y="148" width="72" height="72" rx="8" fill="white"/>
<rect x="100" y="148" width="72" height="72" rx="8" fill="white"/>
<path fill-rule="evenodd" clip-rule="evenodd" d="M115 184C115 172.402 124.402 163 136 163C147.598 163 157 172.402 157 184C157 195.598 147.598 205 136 205C124.402 205 115 195.598 115 184ZM120.25 184C120.25 192.699 127.301 199.75 136 199.75C144.699 199.75 151.75 192.699 151.75 184C151.75 175.302 144.699 168.25 136 168.25C127.301 168.25 120.25 175.302 120.25 184Z" fill="url(#paint1_linear)"/>
<rect x="548" y="148" width="72" height="72" rx="8" fill="white"/>
<path d="M588.056 160C597.242 162.461 604.406 171.562 604.926 180.491C605.792 193.427 598.975 201.842 589.269 205.505C580.43 208.825 569.279 206.764 562 197.835C573.266 200.239 582.279 197.091 588.576 188.161C594.815 179.175 594.122 169.731 588.056 160Z" fill="#FFE063"/>
<rect x="324" y="148" width="72" height="72" rx="8" fill="white"/>
<path d="M344 172.041L352.599 183.425V202H344V172.041Z" fill="#0052F3"/>
<path d="M368.548 165H377V202H369.209L344 168.67V165H351.791L368.548 187.02V165Z" fill="#0052F3"/>
<rect x="212" y="148" width="72" height="72" rx="8" fill="url(#paint2_linear)" fill-opacity="0.25" style="mix-blend-mode:multiply"/>
<rect x="212" y="148" width="72" height="72" rx="8" fill="white"/>
<circle cx="248" cy="184" r="19.5" stroke="#6804EA" stroke-width="3"/>
<circle cx="248" cy="184" r="19.5" stroke="#6D48B8" stroke-width="3"/>
<path d="M257.5 184C257.5 189.607 256.306 194.608 254.449 198.153C252.555 201.769 250.2 203.5 248 203.5C245.8 203.5 243.445 201.769 241.551 198.153C239.694 194.608 238.5 189.607 238.5 184C238.5 178.393 239.694 173.392 241.551 169.847C243.445 166.231 245.8 164.5 248 164.5C250.2 164.5 252.555 166.231 254.449 169.847C256.306 173.392 257.5 178.393 257.5 184Z" stroke="#6804EA" stroke-width="3"/>
<path d="M257.5 184C257.5 189.607 256.306 194.608 254.449 198.153C252.555 201.769 250.2 203.5 248 203.5C245.8 203.5 243.445 201.769 241.551 198.153C239.694 194.608 238.5 189.607 238.5 184C238.5 178.393 239.694 173.392 241.551 169.847C243.445 166.231 245.8 164.5 248 164.5C250.2 164.5 252.555 166.231 254.449 169.847C256.306 173.392 257.5 178.393 257.5 184Z" stroke="#6D48B8" stroke-width="3"/>
<line x1="268" y1="178.5" x2="229" y2="178.5" stroke="#6804EA" stroke-width="3"/>
<line x1="268" y1="178.5" x2="229" y2="178.5" stroke="#6D48B8" stroke-width="3"/>
<path d="M267 190.5H229" stroke="#6804EA" stroke-width="3"/>
<path d="M267 190.5H229" stroke="#6D48B8" stroke-width="3"/>
<g filter="url(#filter0_ddd)">
<rect x="100" y="66" width="520" height="42" rx="8" fill="white"/>
</g>
<path d="M146.608 93C149.307 93 150.528 91.6818 150.528 89.8864C150.528 88.1534 149.381 87.125 148.21 87.0227V86.9148C149.295 86.6364 150.148 85.9432 150.148 84.483C150.148 82.7273 148.938 81.3636 146.381 81.3636H142.222V93H146.608ZM144.023 82.9091H146.364C147.824 82.9091 148.398 83.6818 148.398 84.6023C148.398 85.7159 147.551 86.392 146.278 86.392H144.023V82.9091ZM148.79 89.7727C148.79 90.733 148.159 91.4545 146.54 91.4545H144.023V87.8068H146.614C148 87.8068 148.79 88.7102 148.79 89.7727ZM157.555 84.4489C157.283 84.2898 156.828 84.142 156.374 84.142C155.43 84.142 154.504 84.7841 154.254 85.6477H154.152V84.2727H152.425V93H154.175V88.0625C154.186 86.983 154.964 85.8295 156.214 85.8295C156.584 85.8295 156.862 85.9432 156.993 86.0114L157.555 84.4489ZM162.082 93.1761C164.509 93.1761 166.088 91.3523 166.088 88.6648C166.088 85.9716 164.509 84.1591 162.082 84.1591C159.651 84.1591 158.077 85.9716 158.077 88.6648C158.077 91.3523 159.651 93.1761 162.082 93.1761ZM162.082 91.6875C160.48 91.6875 159.781 90.3239 159.781 88.6648C159.781 87.0114 160.48 85.642 162.082 85.642C163.679 85.642 164.384 87.0114 164.384 88.6648C164.384 90.3239 163.679 91.6875 162.082 91.6875ZM178.786 84.2727H177.03L175.462 90.4602H175.365L173.683 84.2727H172.143L170.445 90.4886H170.348L168.786 84.2727H167.03L169.524 93H171.092L172.837 86.892H172.973L174.723 93H176.297L178.786 84.2727ZM186.651 86.4261C186.276 85.0057 185.247 84.1591 183.429 84.1591C181.423 84.1591 179.997 85.1989 179.997 86.7784C179.997 88 180.849 88.858 182.355 89.2273L183.844 89.5852C184.56 89.7557 185.009 90.0398 185.009 90.6193C185.009 91.25 184.321 91.7898 183.264 91.7898C182.168 91.7898 181.537 91.2102 181.27 90.4148L179.628 90.767C180.014 92.1193 181.094 93.1761 183.224 93.1761C185.395 93.1761 186.793 92.0398 186.793 90.483C186.793 89.2955 185.974 88.5 184.497 88.1591L183.048 87.8239C182.219 87.625 181.741 87.2216 181.741 86.6705C181.741 86.0114 182.469 85.5341 183.384 85.5341C184.491 85.5341 184.929 86.2273 185.065 86.6989L186.651 86.4261ZM192.416 93.1761C194.422 93.1761 195.649 92.0966 196.013 90.8409L194.399 90.3977C194.109 91.1818 193.473 91.6875 192.411 91.6875C190.979 91.6875 190.132 90.7898 189.996 89.1761H196.126V88.4432C196.126 85.4034 194.314 84.1591 192.303 84.1591C189.825 84.1591 188.28 86.0511 188.28 88.7273C188.28 91.4318 189.854 93.1761 192.416 93.1761ZM192.297 85.642C193.615 85.642 194.422 86.5852 194.422 87.8523H190.036C190.268 86.4489 191.104 85.642 192.297 85.642ZM206.362 84.2727H204.658V82.4091H202.908V84.2727H201.697V85.7045H202.908V90.767C202.908 92.3011 204.101 93.1136 205.322 93.1136C205.97 93.1136 206.396 92.9943 206.572 92.9261L206.26 91.4886C206.135 91.517 205.936 91.5568 205.686 91.5568C205.146 91.5568 204.658 91.4034 204.658 90.4205V85.7045H206.362V84.2727ZM209.94 87.9318C209.94 86.4318 210.849 85.7045 211.889 85.7045C212.912 85.7045 213.503 86.3636 213.503 87.4773V93H215.247V87.483C215.247 85.2727 214.094 84.1591 212.48 84.1591C211.281 84.1591 210.452 84.7443 210.003 85.4034H209.912V81.3636H208.19V93H209.94V87.9318ZM221.151 93.1761C223.156 93.1761 224.384 92.0966 224.747 90.8409L223.134 90.3977C222.844 91.1818 222.207 91.6875 221.145 91.6875C219.713 91.6875 218.866 90.7898 218.73 89.1761H224.861V88.4432C224.861 85.4034 223.048 84.1591 221.037 84.1591C218.56 84.1591 217.014 86.0511 217.014 88.7273C217.014 91.4318 218.588 93.1761 221.151 93.1761ZM221.031 85.642C222.349 85.642 223.156 86.5852 223.156 87.8523H218.77C219.003 86.4489 219.838 85.642 221.031 85.642ZM232.227 81.3636H230.489L233.602 93H235.449L237.812 84.358H237.903L240.267 93H242.114L245.222 81.3636H243.489L241.205 90.3182H241.102L238.767 81.3636H236.943L234.614 90.3125H234.506L232.227 81.3636ZM249.697 93.1761C251.703 93.1761 252.93 92.0966 253.294 90.8409L251.68 90.3977C251.391 91.1818 250.754 91.6875 249.692 91.6875C248.26 91.6875 247.413 90.7898 247.277 89.1761H253.408V88.4432C253.408 85.4034 251.595 84.1591 249.584 84.1591C247.107 84.1591 245.561 86.0511 245.561 88.7273C245.561 91.4318 247.135 93.1761 249.697 93.1761ZM249.578 85.642C250.896 85.642 251.703 86.5852 251.703 87.8523H247.317C247.55 86.4489 248.385 85.642 249.578 85.642ZM255.253 81.3636V93H256.963V91.8068H257.105C257.401 92.3409 258.031 93.1648 259.463 93.1648C261.537 93.1648 263.06 91.4886 263.06 88.6534C263.06 85.8068 261.509 84.1591 259.446 84.1591C257.997 84.1591 257.401 84.9943 257.105 85.5114H257.003V81.3636H255.253ZM261.361 88.6364C261.361 90.392 260.594 91.6875 259.094 91.6875C257.605 91.6875 256.889 90.4034 256.889 88.6364C256.889 86.8807 257.594 85.642 259.094 85.642C260.611 85.642 261.361 86.8977 261.361 88.6364ZM265.837 93.1136C266.467 93.1136 266.984 92.6023 266.984 91.9602C266.984 91.3409 266.467 90.8295 265.837 90.8295C265.217 90.8295 264.689 91.3239 264.689 91.9602C264.689 92.6023 265.2 93.1136 265.837 93.1136ZM275.362 87.9318C275.362 86.4318 276.271 85.7045 277.311 85.7045C278.334 85.7045 278.925 86.3636 278.925 87.4773V93H280.669V87.483C280.669 85.2727 279.516 84.1591 277.902 84.1591C276.703 84.1591 275.874 84.7443 275.425 85.4034H275.334V81.3636H273.612V93H275.362V87.9318ZM286.659 84.2727H284.955V82.4091H283.205V84.2727H281.994V85.7045H283.205V90.767C283.205 92.3011 284.398 93.1136 285.619 93.1136C286.267 93.1136 286.693 92.9943 286.869 92.9261L286.557 91.4886C286.432 91.517 286.233 91.5568 285.983 91.5568C285.443 91.5568 284.955 91.4034 284.955 90.4205V85.7045H286.659V84.2727ZM292.362 84.2727H290.658V82.4091H288.908V84.2727H287.697V85.7045H288.908V90.767C288.908 92.3011 290.101 93.1136 291.322 93.1136C291.97 93.1136 292.396 92.9943 292.572 92.9261L292.26 91.4886C292.135 91.517 291.936 91.5568 291.686 91.5568C291.146 91.5568 290.658 91.4034 290.658 90.4205V85.7045H292.362V84.2727ZM294.222 96.2727H295.972V91.8068H296.074C296.369 92.3409 297 93.1648 298.432 93.1648C300.506 93.1648 302.028 91.4886 302.028 88.6534C302.028 85.8068 300.477 84.1591 298.415 84.1591C296.966 84.1591 296.369 84.9943 296.074 85.5114H295.932V84.2727H294.222V96.2727ZM300.33 88.6364C300.33 90.392 299.562 91.6875 298.062 91.6875C296.574 91.6875 295.858 90.4034 295.858 88.6364C295.858 86.8807 296.562 85.642 298.062 85.642C299.58 85.642 300.33 86.8977 300.33 88.6364ZM315.395 93H317.401L315.747 91.0057C316.429 90.108 316.719 89.017 316.719 87.6818H315.162C315.162 88.4602 314.986 89.1477 314.69 89.7273L312.389 86.9602L313.19 86.3693C314.116 85.6818 314.724 84.8807 314.724 83.7841C314.724 82.4148 313.634 81.233 311.901 81.233C310.094 81.233 308.935 82.3295 308.935 84.142C308.935 85.0114 309.446 85.8182 310.185 86.7557C308.878 87.6648 307.98 88.5114 307.98 89.892C307.98 91.7955 309.389 93.1591 311.685 93.1591C312.776 93.1591 313.844 92.8352 314.679 92.1477L315.395 93ZM310.56 84.1023C310.56 83.3409 311.088 82.6932 311.895 82.6932C312.651 82.6932 313.151 83.3068 313.151 83.8466C313.151 84.5 312.827 84.9148 312.168 85.3466L311.469 85.8409C310.957 85.2045 310.56 84.625 310.56 84.1023ZM309.713 89.8409C309.713 89.4659 309.923 88.8125 310.793 88.1364L311.122 87.892L313.69 90.9659C313.111 91.4375 312.418 91.6932 311.736 91.6932C310.509 91.6932 309.713 90.8466 309.713 89.8409ZM325.159 88.0057C325.159 86.5 326.108 85.7045 327.102 85.7045C328.085 85.7045 328.801 86.4091 328.801 87.5739V93H330.545V87.483C330.545 85.1591 329.278 84.1591 327.693 84.1591C326.477 84.1591 325.619 84.767 325.182 85.5739H325.091V84.2727H323.409V93H325.159V88.0057ZM336.317 93.1761C338.743 93.1761 340.322 91.3523 340.322 88.6648C340.322 85.9716 338.743 84.1591 336.317 84.1591C333.885 84.1591 332.311 85.9716 332.311 88.6648C332.311 91.3523 333.885 93.1761 336.317 93.1761ZM336.317 91.6875C334.714 91.6875 334.016 90.3239 334.016 88.6648C334.016 87.0114 334.714 85.642 336.317 85.642C337.913 85.642 338.618 87.0114 338.618 88.6648C338.618 90.3239 337.913 91.6875 336.317 91.6875ZM348.604 86.4261C348.229 85.0057 347.2 84.1591 345.382 84.1591C343.376 84.1591 341.95 85.1989 341.95 86.7784C341.95 88 342.803 88.858 344.308 89.2273L345.797 89.5852C346.513 89.7557 346.962 90.0398 346.962 90.6193C346.962 91.25 346.274 91.7898 345.217 91.7898C344.121 91.7898 343.49 91.2102 343.223 90.4148L341.581 90.767C341.967 92.1193 343.047 93.1761 345.178 93.1761C347.348 93.1761 348.746 92.0398 348.746 90.483C348.746 89.2955 347.928 88.5 346.45 88.1591L345.001 87.8239C344.172 87.625 343.695 87.2216 343.695 86.6705C343.695 86.0114 344.422 85.5341 345.337 85.5341C346.445 85.5341 346.882 86.2273 347.018 86.6989L348.604 86.4261Z" fill="#968FA6"/>
<g clip-path="url(#clip1)">
<path d="M116.5 93C120.642 93 124 89.6421 124 85.5C124 81.3579 120.642 78 116.5 78C112.358 78 109 81.3579 109 85.5C109 89.6421 112.358 93 116.5 93Z" stroke="#968FA6" stroke-width="2" stroke-linecap="round" stroke-linejoin="round"/>
<path d="M127 96L121.8 90.8" stroke="#968FA6" stroke-width="2" stroke-linecap="round" stroke-linejoin="round"/>
</g>
<rect x="436" y="148" width="72" height="72" rx="8" fill="white"/>
<path d="M479.834 164.332L479.833 164.332C479.583 164.225 479.372 164.145 479.199 164.105C479.028 164.066 478.868 164.06 478.736 164.132C478.601 164.206 478.528 164.343 478.488 164.511C478.447 164.679 478.433 164.9 478.433 165.175V165.192V165.21V165.227V165.245V165.263V165.28V165.298V165.315V165.333V165.351V165.368V165.386V165.403V165.421V165.439V165.456V165.474V165.491V165.509V165.527V165.544V165.562V165.579V165.597V165.615V165.632V165.65V165.667V165.685V165.703V165.72V165.738V165.755V165.773V165.791V165.808V165.826V165.844V165.861V165.879V165.896V165.914V165.932V165.949V165.967V165.984V166.002V166.02V166.037V166.055V166.072V166.09V166.108V166.125V166.143V166.16V166.178V166.196V166.213V166.231V166.248V166.266V166.284V166.301V166.319V166.336V166.354V166.372V166.389V166.407V166.424V166.442V166.46V166.477V166.495V166.512V166.53V166.548V166.565V166.583V166.601V166.618V166.636V166.653V166.671V166.689V166.706V166.724V166.741V166.759V166.777V166.794V166.812V166.829V166.847V166.865V166.882V166.9V166.917V166.935V166.953V166.97V166.988V167.005V167.023V167.041V167.058V167.076V167.093V167.111V167.129V167.146V167.164V167.181V167.199V167.217V167.234V167.252V167.269V167.287V167.305V167.322V167.34V167.358V167.375V167.393V167.41V167.428V167.446V167.463V167.481V167.498V167.516V167.534V167.551V167.569V167.586V167.604V167.622V167.639V167.657V167.674V167.692V167.71V167.727V167.745V167.762V167.78V167.798V167.815V167.833V167.85V167.868V167.886V167.903V167.921V167.938V167.956V167.974V167.991V168.009V168.026V168.044V168.062V168.079V168.097V168.115V168.132V168.15V168.167V168.185V168.203V168.22V168.238V168.255V168.273V168.291V168.308V168.326V168.343V168.361V168.379V168.396V168.414V168.431V168.449V168.467V168.484V168.502V168.519V168.537V168.555V168.572V168.59V168.607V168.625V168.643V168.66V168.678V168.695V168.713V168.731V168.748V168.766V168.784V168.801V168.819V168.836V168.854V168.872V168.889V168.907V168.924V168.942V168.96V168.977V168.995V169.012V169.03V169.048V169.065V169.083V169.1V169.118V169.136V169.153V169.171V169.188V169.206V169.224V169.241V169.259V169.276V169.294V169.312V169.329V169.347V169.364V169.382V169.4V169.417V169.435V169.452V169.47V169.488V169.505V169.523V169.541V169.558V169.576V169.593V169.611V169.629V169.646V169.664V169.681V169.699V169.717V169.734V169.752V169.769V169.787V169.805V169.822V169.84V169.857V169.875V169.893V169.91V169.928V169.945V169.963V169.981V169.998V170.016V170.033V170.051V170.069V170.086V170.104V170.121V170.139V170.157V170.174V170.192V170.209V170.227V170.245V170.262V170.28V170.298V170.315V170.333V170.35V170.368V170.386V170.403V170.421V170.438V170.456V170.474V170.491V170.509V170.526V170.544V170.562V170.579V170.597V170.614V170.632V170.65V170.667V170.685V170.702V170.72V170.738V170.755V170.773V170.79V170.808V170.826V170.843V170.861V170.878V170.896V170.914V170.931V170.949V170.966V170.984V171.002V171.019V171.037V171.055V171.072V171.09V171.107V171.125V171.143V171.16V171.178V171.195V171.213V171.231V171.248V171.266V171.283V171.301V171.319V171.336V171.354V171.371V171.389V171.407V171.424V171.442V171.459V171.477V171.495V171.512V171.53V171.547V171.565V171.583V171.6V171.618V171.635V171.653V171.671V171.688V171.706V171.723V171.741V171.759V171.776V171.794V171.812V171.829V171.847V171.864V171.882V171.9V171.917V171.935V171.952V171.97V171.988V172.005V172.023V172.04V172.058V172.076V172.093V172.111V172.128V172.146V172.164V172.181V172.199V172.216V172.234V172.252V172.269V172.287V172.304V172.322V172.34V172.357V172.375V172.392V172.41V172.428V172.445V172.463V172.48V172.498V172.516V172.533V172.551V172.569V172.586V172.604V172.621V172.639V172.657V172.674V172.692V172.709V172.727V172.745V172.762V172.78V172.797V172.815V172.833V172.85V172.868V172.885V172.903V172.921V172.938V172.956V172.973V172.991V173.009V173.026V173.044V173.061V173.079V173.097V173.114V173.132V173.149V173.167V173.185V173.202V173.22V173.237V173.255V173.273V173.29V173.308V173.326V173.343V173.361V173.378V173.396V173.414V173.431V173.449V173.466V173.484V173.502V173.519V173.537V173.554V173.572V173.59V173.607V173.625V173.642V173.66V173.678V173.695V173.713V173.73V173.748V173.766V173.783V173.801V173.818V173.836V173.854V173.871V173.889V173.906V173.924V173.942V173.959V173.977V173.995V174.012V174.03V174.047V174.065V174.083V174.1V174.118V174.135V174.153V174.171V174.188V174.205V174.223V174.24V174.257V174.275V174.292V174.309V174.327V174.344V174.361V174.379V174.396V174.413V174.431V174.448V174.465V174.483V174.5V174.517V174.535V174.552V174.569V174.587V174.604V174.621V174.639V174.656V174.673V174.691V174.708V174.725V174.743V174.76V174.777V174.795V174.812V174.829V174.847V174.864V174.881V174.899V174.916V174.933V174.951V174.968V174.985V175.002V175.02V175.037V175.054V175.072V175.089V175.106V175.124V175.141V175.158V175.176V175.193V175.21V175.228V175.245V175.262V175.28V175.297V175.314V175.332V175.349V175.366V175.384V175.401V175.418V175.436V175.453V175.47V175.488V175.505V175.522V175.54V175.557V175.574V175.592V175.609V175.626V175.644V175.661V175.678V175.696V175.713V175.73V175.747V175.765V175.782V175.799V175.817V175.834V175.851V175.869V175.886V175.903V175.921V175.938V175.955V175.973V175.99V176.007V176.025V176.042V176.059V176.077V176.094V176.111V176.129V176.146V176.163V176.181V176.198V176.215V176.233V176.25V176.267V176.284V176.302V176.319V176.336V176.354V176.371V176.388V176.406V176.423V176.44V176.458V176.475V176.492V176.51V176.527V176.544V176.562V176.579V176.596V176.614V176.631V176.648V176.666V176.683V176.7V176.717V176.735V176.752V176.769V176.787V176.804V176.821V176.839V176.856V176.873V176.891V176.908V176.925V176.943V176.96V176.977V176.995V177.012V177.029V177.047V177.064V177.081V177.098V177.116V177.133V177.15V177.168V177.185V177.202V177.22V177.237V177.254V177.272V177.289V177.306V177.324V177.341V177.358V177.376V177.393V177.41V177.427V177.445V177.462V177.479V177.497V177.514V177.531V177.549V177.566V177.583V177.601V177.618V177.635V177.653V177.67V177.687V177.705V177.722V177.739V177.756V177.774V177.791V177.808V177.826V177.843V177.86V177.878V177.895V177.912V177.93V177.947V177.964V177.981V177.999V178.016V178.033V178.051V178.068V178.085V178.103V178.12V178.137V178.155V178.172V178.189V178.206V178.224V178.241V178.258V178.276V178.293V178.31V178.328V178.345V178.362V178.38V178.397V178.414V178.431V178.449V178.466V178.483V178.501V178.518V178.535V178.553V178.57V178.587V178.605V178.622V178.639V178.656V178.674V178.691V178.708V178.726V178.743V178.76V178.778V178.795V178.812V178.829V178.847V178.864V178.881V178.899V178.916V178.933V178.951V178.968V178.985V179.002V179.02V179.037V179.054V179.072V179.089V179.106V179.124V179.141V179.158V179.175V179.193V179.21V179.227V179.245V179.262V179.279V179.297V179.314V179.331V179.348V179.366V179.383V179.4V179.418V179.435V179.452V179.469V179.487V179.504V179.521V179.539V179.556V179.573V179.591V179.608V179.625V179.642V179.66V179.677V179.694V179.712V179.729V179.746V179.763V179.781V179.798V179.815V179.833V179.85V179.867V179.884V179.902V179.919V179.936V179.954V179.971V179.988V180.005V180.023V180.04V180.057V180.075V180.092V180.109V180.126V180.144V180.161V180.178V180.196V180.213V180.23V180.247V180.265V180.282V180.299V180.317V180.334V180.351V180.368V180.386V180.403V180.42V180.438V180.455V180.472V180.489V180.507V180.524V180.541V180.559V180.576V180.593V180.61V180.628V180.645V180.662V180.679V180.697V180.714V180.731V180.749V180.766V180.783V180.8V180.818V180.835V180.852V180.87V180.887V180.904V180.921V180.939V180.956V180.973V180.99V181.008V181.025V181.042V181.06V181.077V181.094V181.111V181.129V181.146V181.163V181.18V181.198V181.215V181.232V181.249V181.267V181.284V181.301V181.319V181.336V181.353V181.37V181.388V181.405V181.422V181.439V181.457V181.474V181.491V181.508V181.526V181.543V181.56V181.578V181.595V181.612V181.629V181.647V181.664V181.681V181.698V181.716V181.733V181.75V181.767V181.785V181.802V181.819V181.836V181.854V181.871V181.888V181.905V181.923V181.94V181.957V181.974V181.992V182.009V182.026V182.043V182.061V182.078V182.095V182.112V182.13V182.147V182.164V182.181V182.199V182.216V182.233V182.25V182.268V182.285V182.302V182.319V182.337V182.354V182.371V182.388V182.406V182.423V182.44V182.457V182.475V182.492V182.509V182.526V182.544V182.561V182.578V182.595V182.613V182.63V182.647V182.664V182.682V182.699V182.716V182.733V182.751V182.768V182.785V182.802V182.82V182.837V182.854V182.871V182.889V182.906V182.923V182.94V182.957V182.975V182.992V183.009V183.026V183.044C478.433 183.377 478.435 183.64 478.46 183.845C478.486 184.051 478.537 184.218 478.649 184.348C478.76 184.479 478.918 184.557 479.12 184.62C479.322 184.682 479.586 184.732 479.923 184.795L479.923 184.795C480.206 184.847 480.436 184.88 480.621 184.881C480.805 184.882 480.963 184.852 481.085 184.754C481.207 184.656 481.269 184.509 481.303 184.331C481.336 184.153 481.345 183.926 481.345 183.645C481.345 182.116 481.342 180.59 481.338 179.064C481.329 174.999 481.319 170.942 481.378 166.884L481.378 166.884C481.386 166.265 481.304 165.753 481.063 165.33C480.819 164.904 480.423 164.585 479.834 164.332Z" fill="#BE0104" stroke="#BE0104" stroke-width="0.25"/>
<path d="M466.973 203.692L466.976 203.694C467.267 203.86 467.508 203.982 467.705 204.048C467.899 204.112 468.079 204.133 468.227 204.053C468.377 203.972 468.452 203.811 468.494 203.618C468.537 203.423 468.55 203.163 468.55 202.842V202.825V202.807V202.79V202.772V202.755V202.738V202.72V202.703V202.685V202.668V202.65V202.633V202.616V202.598V202.581V202.563V202.546V202.528V202.511V202.494V202.476V202.459V202.441V202.424V202.406V202.389V202.372V202.354V202.337V202.319V202.302V202.284V202.267V202.25V202.232V202.215V202.197V202.18V202.162V202.145V202.128V202.11V202.093V202.075V202.058V202.04V202.023V202.006V201.988V201.971V201.953V201.936V201.918V201.901V201.883V201.866V201.849V201.831V201.814V201.796V201.779V201.761V201.744V201.727V201.709V201.692V201.674V201.657V201.639V201.622V201.604V201.587V201.57V201.552V201.535V201.517V201.5V201.482V201.465V201.447V201.43V201.413V201.395V201.378V201.36V201.343V201.325V201.308V201.29V201.273V201.256V201.238V201.221V201.203V201.186V201.168V201.151V201.133V201.116V201.099V201.081V201.064V201.046V201.029V201.011V200.994V200.976V200.959V200.941V200.924V200.907V200.889V200.872V200.854V200.837V200.819V200.802V200.784V200.767V200.75V200.732V200.715V200.697V200.68V200.662V200.645V200.627V200.61V200.592V200.575V200.558V200.54V200.523V200.505V200.488V200.47V200.453V200.435V200.418V200.4V200.383V200.366V200.348V200.331V200.313V200.296V200.278V200.261V200.243V200.226V200.208V200.191V200.173V200.156V200.139V200.121V200.104V200.086V200.069V200.051V200.034V200.016V199.999V199.981V199.964V199.947V199.929V199.912V199.894V199.877V199.859V199.842V199.824V199.807V199.789V199.772V199.754V199.737V199.72V199.702V199.685V199.667V199.65V199.632V199.615V199.597V199.58V199.562V199.545V199.527V199.51V199.493V199.475V199.458V199.44V199.423V199.405V199.388V199.37V199.353V199.335V199.318V199.3V199.283V199.265V199.248V199.231V199.213V199.196V199.178V199.161V199.143V199.126V199.108V199.091V199.073V199.056V199.038V199.021V199.004V198.986V198.969V198.951V198.934V198.916V198.899V198.881V198.864V198.846V198.829V198.811V198.794V198.776V198.759V198.742V198.724V198.707V198.689V198.672V198.654V198.637V198.619V198.602V198.584V198.567V198.549V198.532V198.514V198.497V198.48V198.462V198.445V198.427V198.41V198.392V198.375V198.357V198.34V198.322V198.305V198.287V198.27V198.252V198.235V198.218V198.2V198.183V198.165V198.148V198.13V198.113V198.095V198.078V198.06V198.043V198.025V198.008V197.991V197.973V197.956V197.938V197.921V197.903V197.886V197.868V197.851V197.833V197.816V197.798V197.781V197.763V197.746V197.729V197.711V197.694V197.676V197.659V197.641V197.624V197.606V197.589V197.571V197.554V197.536V197.519V197.501V197.484V197.467V197.449V197.432V197.414V197.397V197.379V197.362V197.344V197.327V197.309V197.292V197.274V197.257V197.24V197.222V197.205V197.187V197.17V197.152V197.135V197.117V197.1V197.082V197.065V197.047V197.03V197.013V196.995V196.978V196.96V196.943V196.925V196.908V196.89V196.873V196.855V196.838V196.82V196.803V196.786V196.768V196.751V196.733V196.716V196.698V196.681V196.663V196.646V196.628V196.611V196.593V196.576V196.559V196.541V196.524V196.506V196.489V196.471V196.454V196.436V196.419V196.401V196.384V196.367V196.349V196.332V196.314V196.297V196.279V196.262V196.244V196.227V196.209V196.192V196.175V196.157V196.14V196.122V196.105V196.087V196.07V196.052V196.035V196.017V196V195.983V195.965V195.948V195.93V195.913V195.895V195.878V195.86V195.843V195.825V195.808V195.791V195.773V195.756V195.738V195.721V195.703V195.686V195.668V195.651V195.634V195.616V195.599V195.581V195.564V195.546V195.529V195.511V195.494V195.477V195.459V195.442V195.424V195.407V195.389V195.372V195.354V195.337V195.32V195.302V195.285V195.267V195.25V195.232V195.215V195.197V195.18V195.163V195.145V195.128V195.11V195.093V195.075V195.058V195.04V195.023V195.006V194.988V194.971V194.953V194.936V194.918V194.901V194.883V194.866V194.849V194.831V194.814V194.796V194.779V194.761V194.744V194.727V194.709V194.692V194.674V194.657V194.639V194.622V194.605V194.587V194.57V194.552V194.535V194.517V194.5V194.483V194.465V194.448V194.43V194.413V194.395V194.378V194.361V194.343V194.326V194.308V194.291V194.273V194.256V194.239V194.221V194.204V194.186V194.169V194.151V194.134V194.117V194.099V194.082V194.064V194.047V194.029V194.012V193.995V193.977V193.96V193.942V193.925V193.908C468.559 192.406 468.554 190.904 468.55 189.401L468.55 189.398C468.546 187.894 468.542 186.389 468.55 184.88C468.559 184.44 468.481 184.088 468.27 183.834C468.057 183.577 467.73 183.443 467.294 183.394L467.294 183.394L467.291 183.394C467.12 183.378 466.933 183.348 466.764 183.302L466.764 183.302L466.759 183.301C466.402 183.22 466.105 183.233 465.899 183.404C465.695 183.574 465.622 183.865 465.622 184.23L465.622 184.23C465.638 190.207 465.638 196.2 465.622 202.178V202.178C465.622 202.452 465.669 202.691 465.789 202.891C465.911 203.092 466.1 203.242 466.36 203.352L466.36 203.353L466.367 203.355C466.525 203.411 466.662 203.497 466.815 203.594C466.866 203.626 466.918 203.659 466.973 203.692Z" fill="#BE0104" stroke="#BE0104" stroke-width="0.25"/>
<path d="M474.605 181.52L474.477 181.467C474.325 181.405 474.17 181.346 474.012 181.287L474.012 181.287C473.855 181.228 473.696 181.168 473.541 181.104C472.913 180.849 472.519 180.486 472.292 180.015C472.067 179.549 472.011 178.991 472.028 178.361C472.086 174.521 472.077 170.674 472.067 166.823C472.063 165.378 472.06 163.932 472.06 162.486C472.06 162.059 472.225 161.659 472.482 161.365C472.738 161.071 473.093 160.875 473.476 160.875C473.858 160.875 474.216 161.07 474.476 161.361C474.737 161.653 474.907 162.05 474.907 162.47M474.605 181.52L474.907 162.471C474.907 162.471 474.907 162.47 474.907 162.47M474.605 181.52L474.644 181.387C474.668 181.307 474.695 181.225 474.724 181.141L474.732 181.115C474.758 181.039 474.785 180.961 474.809 180.883C474.863 180.709 474.907 180.525 474.907 180.34M474.605 181.52L474.907 180.34M474.907 162.47C474.924 165.491 474.924 168.496 474.924 171.5C474.924 172.234 474.925 172.97 474.926 173.706C474.929 175.917 474.932 178.133 474.907 180.34M474.907 162.47L474.907 180.34" fill="#BE0104" stroke="#BE0104" stroke-width="0.25"/>
<path d="M472.375 186.648L472.498 186.689L472.5 186.689C472.789 186.784 473.082 186.879 473.375 186.991L473.379 186.993L473.379 186.993C474.022 187.263 474.435 187.633 474.681 188.117C474.924 188.596 474.997 189.173 474.989 189.845L474.989 189.846C474.892 195.11 474.924 200.374 474.972 205.624L474.972 205.625C474.972 206.047 474.875 206.389 474.68 206.642C474.484 206.897 474.2 207.049 473.853 207.108C473.612 207.153 473.35 207.102 473.106 207.016C472.859 206.929 472.617 206.802 472.412 206.682C472.337 206.638 472.283 206.568 472.244 206.496C472.204 206.422 472.174 206.337 472.153 206.251C472.109 206.079 472.092 205.887 472.092 205.737M472.375 186.648L472.092 205.736C472.092 205.736 472.092 205.736 472.092 205.737M472.375 186.648L472.339 186.773C472.314 186.862 472.282 186.947 472.249 187.039C472.23 187.091 472.21 187.144 472.19 187.202C472.139 187.35 472.092 187.513 472.092 187.677H472.217M472.375 186.648L472.217 187.677M472.092 205.737C472.068 203.484 472.071 201.221 472.074 198.951C472.075 198.193 472.076 197.435 472.076 196.675V196.675C472.076 193.67 472.076 190.681 472.092 187.676L472.217 187.677M472.092 205.737L472.217 187.677" fill="#BE0104" stroke="#BE0104" stroke-width="0.25"/>
<path d="M461.571 183.853L461.571 183.853C461.662 183.867 461.742 183.926 461.804 183.987C461.869 184.052 461.93 184.134 461.981 184.222C462.081 184.393 462.161 184.609 462.161 184.783M461.571 183.853L462.036 184.783M461.571 183.853L461.57 183.853C461.079 183.782 460.514 184.073 460.084 184.466C459.654 184.859 459.314 185.396 459.314 185.874H459.439L461.571 183.853ZM462.161 184.783C462.161 184.783 462.161 184.783 462.161 184.783H462.036M462.161 184.783C462.161 184.783 462.161 184.783 462.161 184.782L462.036 184.783M462.161 184.783C462.172 186.44 462.168 188.097 462.165 189.748C462.163 190.572 462.161 191.395 462.161 192.216V192.23V192.244V192.258V192.272V192.286V192.301V192.315V192.329V192.343V192.357V192.371V192.386V192.4V192.414V192.428V192.442V192.457V192.471V192.485V192.499V192.513V192.527V192.542V192.556V192.57V192.584V192.598V192.613V192.627V192.641V192.655V192.669V192.684V192.698V192.712V192.726V192.74V192.754V192.769V192.783V192.797V192.811V192.825V192.84V192.854V192.868V192.882V192.896V192.911V192.925V192.939V192.953V192.967V192.982V192.996V193.01V193.024V193.038V193.052V193.067V193.081V193.095V193.109V193.123V193.138V193.152V193.166V193.18V193.194V193.209V193.223V193.237V193.251V193.265V193.28V193.294V193.308V193.322V193.336V193.351V193.365V193.379V193.393V193.407V193.422V193.436V193.45V193.464V193.478V193.493V193.507V193.521V193.535V193.549V193.564V193.578V193.592V193.606V193.621V193.635V193.649V193.663V193.677V193.692V193.706V193.72V193.734V193.748V193.763V193.777V193.791V193.805V193.819V193.834V193.848V193.862V193.876V193.89V193.905V193.919V193.933V193.947V193.962V193.976V193.99V194.004V194.018V194.033V194.047V194.061V194.075V194.089V194.104V194.118V194.132V194.146V194.16V194.175V194.189V194.203V194.217V194.232V194.246V194.26V194.274V194.288V194.303V194.317V194.331V194.345V194.359V194.374V194.388V194.402V194.416V194.431V194.445V194.459V194.473V194.487V194.502V194.516V194.53V194.544V194.558V194.573V194.587V194.601V194.615V194.63V194.644V194.658V194.672V194.686V194.701V194.715V194.729V194.743V194.758V194.772V194.786V194.8V194.814V194.829V194.843V194.857V194.871V194.886V194.9V194.914V194.928V194.942V194.957V194.971V194.985V194.999V195.013V195.028V195.042V195.056V195.07V195.085V195.099V195.113V195.127V195.141V195.156V195.17V195.184V195.198V195.213V195.227V195.241V195.255V195.269V195.284V195.298V195.312V195.326V195.341V195.355V195.369V195.383V195.397V195.412V195.426V195.44V195.454V195.469V195.483V195.497V195.511V195.525V195.54V195.554V195.568V195.582V195.597V195.611V195.625V195.639V195.653V195.668V195.682V195.696V195.71V195.725V195.739V195.753V195.767V195.781V195.796V195.81V195.824V195.838V195.853V195.867V195.881V195.895V195.909V195.924V195.938V195.952V195.966V195.981V195.995V196.009V196.023V196.037V196.052V196.066V196.08V196.094V196.109V196.123V196.137V196.151V196.165V196.18V196.194V196.208V196.222V196.237V196.251V196.265V196.279V196.293V196.308V196.322V196.336V196.35V196.365V196.379V196.393V196.407V196.421V196.436V196.45V196.464V196.478V196.493V196.507V196.521V196.535V196.549V196.564V196.578V196.592V196.606V196.621V196.635V196.649V196.663V196.677V196.692V196.706V196.72V196.734V196.749V196.763V196.777V196.791V196.805V196.82V196.834V196.848V196.862V196.877V196.891V196.905V196.919V196.933V196.948V196.962V196.976V196.99V197.004V197.019V197.033V197.047V197.061V197.076V197.09V197.104V197.118V197.132V197.147V197.161V197.175V197.189V197.204V197.218V197.232V197.246V197.26V197.275V197.289V197.303V197.317V197.331V197.346V197.36V197.374V197.388V197.403V197.417V197.431V197.445V197.459V197.474V197.488V197.502V197.516V197.53V197.545V197.559V197.573V197.587V197.602V197.616V197.63V197.644V197.658V197.673V197.687V197.701V197.715V197.729V197.744V197.758V197.772V197.786V197.8V197.815V197.829V197.843V197.857V197.872V197.886V197.9V197.914V197.928V197.943V197.957V197.971V197.985V197.999V198.014V198.028V198.042V198.056V198.07V198.085V198.099V198.113V198.127V198.141V198.156V198.17V198.184V198.198V198.212V198.227V198.241V198.255V198.269V198.283V198.298V198.312V198.326V198.34V198.355V198.369V198.383V198.397V198.411V198.426V198.44V198.454V198.468V198.482V198.496V198.511V198.525V198.539V198.553V198.567V198.582V198.596V198.61V198.624V198.638V198.653V198.667V198.681V198.695V198.709V198.724V198.738V198.752V198.766V198.78V198.795V198.809V198.823V198.837V198.851V198.866V198.88V198.894V198.908V198.922V198.937V198.951V198.965V198.979V198.993V199.007V199.022V199.036V199.05V199.064V199.078V199.093V199.107V199.121V199.135V199.149V199.164V199.178V199.192V199.206V199.22V199.234V199.249V199.263V199.277V199.291V199.305V199.32V199.334V199.348V199.362V199.376V199.39V199.405V199.419V199.433V199.447V199.461V199.475V199.49C462.161 199.726 462.146 199.921 462.106 200.073C462.065 200.225 461.993 200.351 461.867 200.421C461.744 200.49 461.596 200.49 461.439 200.457C461.28 200.424 461.092 200.352 460.872 200.252M462.036 184.783C462.047 186.44 462.043 188.096 462.04 189.747C462.038 190.571 462.036 191.394 462.036 192.216V199.49C462.036 200.423 461.794 200.533 460.923 200.138M460.872 200.252C460.872 200.252 460.872 200.252 460.873 200.252L460.923 200.138M460.872 200.252C460.872 200.252 460.871 200.252 460.871 200.252L460.923 200.138M460.872 200.252L460.923 200.138M459.265 197.651C459.265 197.651 459.265 197.652 459.265 197.652L459.39 197.655L459.265 197.651C459.265 197.651 459.265 197.651 459.265 197.651Z" fill="#BE0104" stroke="#BE0104" stroke-width="0.25"/>
<path d="M486.128 167.875L486.128 167.875C486.698 168.126 487.117 168.436 487.387 168.861C487.657 169.286 487.768 169.812 487.751 170.475L487.751 170.476C487.676 173.088 487.687 175.698 487.698 178.315L486.128 167.875ZM486.128 167.875L486.127 167.875M486.128 167.875L486.127 167.875M486.127 167.875C485.908 167.779 485.719 167.71 485.561 167.677C485.404 167.645 485.256 167.645 485.133 167.714C485.007 167.785 484.936 167.911 484.895 168.064C484.854 168.216 484.839 168.413 484.839 168.654V168.668V168.682V168.697V168.711V168.725V168.74V168.754V168.768V168.783V168.797V168.812V168.826V168.84V168.855V168.869V168.883V168.898V168.912V168.926V168.941V168.955V168.969V168.984V168.998V169.013V169.027V169.041V169.056V169.07V169.084V169.099V169.113V169.127V169.142V169.156V169.171V169.185V169.199V169.214V169.228V169.242V169.257V169.271V169.285V169.3V169.314V169.329V169.343V169.357V169.372V169.386V169.4V169.415V169.429V169.443V169.458V169.472V169.487V169.501V169.515V169.53V169.544V169.558V169.573V169.587V169.601V169.616V169.63V169.645V169.659V169.673V169.688V169.702V169.716V169.731V169.745V169.759V169.774V169.788V169.802V169.817V169.831V169.846V169.86V169.874V169.889V169.903V169.917V169.932V169.946V169.96V169.975V169.989V170.004V170.018V170.032V170.047V170.061V170.075V170.09V170.104V170.118V170.133V170.147V170.162V170.176V170.19V170.205V170.219V170.233V170.248V170.262V170.276V170.291V170.305V170.32V170.334V170.348V170.363V170.377V170.391V170.406V170.42V170.434V170.449V170.463V170.477V170.492V170.506V170.521V170.535V170.549V170.564V170.578V170.592V170.607V170.621V170.635V170.65V170.664V170.679V170.693V170.707V170.722V170.736V170.75V170.765V170.779V170.793V170.808V170.822V170.837V170.851V170.865V170.88V170.894V170.908V170.923V170.937V170.951V170.966V170.98V170.995V171.009V171.023V171.038V171.052V171.066V171.081V171.095V171.109V171.124V171.138V171.152V171.167V171.181V171.196V171.21V171.224V171.239V171.253V171.267V171.282V171.296V171.31V171.325V171.339V171.354V171.368V171.382V171.397V171.411V171.425V171.44V171.454V171.468V171.483V171.497V171.512V171.526V171.54V171.555V171.569V171.583V171.598V171.612V171.626V171.641V171.655V171.67V171.684V171.698V171.713V171.727V171.741V171.756V171.77V171.784V171.799V171.813V171.827V171.842V171.856V171.871V171.885V171.899V171.914V171.928V171.942V171.957V171.971V171.985V172V172.014V172.029V172.043V172.057V172.072V172.086V172.1V172.115V172.129V172.143V172.158V172.172V172.187V172.201V172.215V172.23V172.244V172.258V172.273V172.287V172.301V172.316V172.33V172.345V172.359V172.373V172.388V172.402V172.416V172.431V172.445V172.459V172.474V172.488V172.502V172.517V172.531V172.546V172.56V172.574V172.589V172.603V172.617V172.632V172.646V172.66V172.675V172.689V172.704V172.718V172.732V172.747V172.761V172.775V172.79V172.804V172.818V172.833V172.847V172.862V172.876V172.89V172.905V172.919V172.933V172.948V172.962V172.976V172.991V173.005V173.02V173.034V173.048V173.063V173.077V173.091V173.106V173.12V173.134V173.149V173.163V173.177V173.192V173.206V173.221V173.235V173.249V173.264V173.278V173.292V173.307V173.321V173.335V173.35V173.364V173.379V173.393V173.407V173.422V173.436V173.45V173.465V173.479V173.493V173.508V173.522V173.537V173.551V173.565V173.58V173.594V173.608V173.623V173.637V173.651V173.666V173.68V173.695V173.709V173.723V173.738V173.752V173.766V173.781V173.795V173.809V173.824V173.838V173.852V173.867V173.881V173.896V173.91V173.924V173.939V173.953V173.967V173.982V173.996V174.01V174.025V174.039V174.054V174.068V174.082V174.097V174.111V174.125V174.14V174.154V174.168V174.183V174.197V174.212V174.226V174.24V174.255V174.269V174.283V174.298V174.312V174.326V174.341V174.355V174.37V174.384V174.398V174.413V174.427V174.441V174.456V174.47V174.484V174.499V174.513V174.527V174.542V174.556V174.571V174.585V174.599V174.614V174.628V174.642V174.657V174.671V174.685V174.7V174.714V174.729V174.743V174.757V174.772V174.786V174.8V174.815V174.829V174.843V174.858V174.872V174.887V174.901V174.915V174.93V174.944V174.958V174.973V174.987V175.001V175.016V175.03V175.045V175.059V175.073V175.088V175.102V175.116V175.131V175.145V175.159V175.174V175.188V175.202V175.217V175.231V175.246V175.26V175.274V175.289V175.303V175.317V175.332V175.346V175.36V175.375V175.389V175.404V175.418V175.432V175.447V175.461V175.475V175.49V175.504V175.518V175.533V175.547V175.562V175.576V175.59V175.605V175.619V175.633V175.648V175.662V175.676V175.691V175.705V175.72V175.734V175.748V175.763V175.777V175.791V175.806V175.82V175.834V175.849V175.863V175.878V175.892V175.906V175.921V175.935V175.949V175.964V175.978V175.992V176.007C484.839 176.706 484.837 177.406 484.834 178.106C484.827 179.857 484.821 181.61 484.855 183.362L484.855 183.362M486.127 167.875L484.855 183.362M487.626 170.472C487.659 169.175 487.191 168.48 486.077 167.989C485.206 167.61 484.964 167.705 484.964 168.654V176.007C484.964 176.707 484.962 177.407 484.959 178.108L487.626 170.472ZM487.626 170.472C487.551 173.086 487.562 175.7 487.573 178.318M487.626 170.472L487.573 178.318M484.855 183.362L484.856 183.367M484.855 183.362L484.856 183.367M484.856 183.367C484.865 183.53 484.949 183.74 485.051 183.909C485.103 183.995 485.163 184.077 485.228 184.141C485.29 184.201 485.369 184.26 485.46 184.274C485.953 184.354 486.515 184.066 486.941 183.673C487.367 183.28 487.703 182.739 487.703 182.254L484.856 183.367ZM487.573 178.318C487.578 179.629 487.583 180.94 487.578 182.253L487.573 178.318Z" fill="#BE0104" stroke="#BE0104" stroke-width="0.25"/>
<path d="M467.713 164.327L467.713 164.327L467.711 164.328C467.546 164.379 467.377 164.428 467.212 164.474C467.202 164.477 467.192 164.48 467.182 164.483C467.009 164.532 466.841 164.581 466.693 164.629C466.256 164.772 465.98 165.005 465.821 165.32C465.666 165.629 465.631 166.001 465.639 166.41C465.663 168.995 465.66 171.589 465.657 174.179C465.656 175.042 465.655 175.904 465.655 176.766L465.655 176.774C465.655 177.147 465.655 177.437 465.679 177.661C465.704 177.886 465.755 178.066 465.875 178.204C465.995 178.341 466.167 178.418 466.389 178.475C466.608 178.531 466.898 178.573 467.271 178.628L467.278 178.629C467.522 178.665 467.724 178.684 467.889 178.675C468.054 178.665 468.197 178.626 468.306 178.53C468.416 178.435 468.475 178.299 468.508 178.137C468.541 177.975 468.551 177.771 468.551 177.525V177.513V177.501V177.489V177.477V177.465V177.453V177.441V177.429V177.416V177.404V177.392V177.38V177.368V177.356V177.344V177.332V177.32V177.308V177.296V177.284V177.272V177.26V177.248V177.236V177.224V177.212V177.2V177.188V177.176V177.164V177.151V177.139V177.127V177.115V177.103V177.091V177.079V177.067V177.055V177.043V177.031V177.019V177.007V176.995V176.983V176.971V176.959V176.947V176.935V176.923V176.911V176.899V176.886V176.874V176.862V176.85V176.838V176.826V176.814V176.802V176.79V176.778V176.766V176.754V176.742V176.73V176.718V176.706V176.694V176.682V176.67V176.658V176.646V176.634V176.621V176.609V176.597V176.585V176.573V176.561V176.549V176.537V176.525V176.513V176.501V176.489V176.477V176.465V176.453V176.441V176.429V176.417V176.405V176.393V176.381V176.369V176.356V176.344V176.332V176.32V176.308V176.296V176.284V176.272V176.26V176.248V176.236V176.224V176.212V176.2V176.188V176.176V176.164V176.152V176.14V176.128V176.116V176.104V176.092V176.079V176.067V176.055V176.043V176.031V176.019V176.007V175.995V175.983V175.971V175.959V175.947V175.935V175.923V175.911V175.899V175.887V175.875V175.863V175.851V175.839V175.827V175.814V175.802V175.79V175.778V175.766V175.754V175.742V175.73V175.718V175.706V175.694V175.682V175.67V175.658V175.646V175.634V175.622V175.61V175.598V175.586V175.574V175.562V175.549V175.537V175.525V175.513V175.501V175.489V175.477V175.465V175.453V175.441V175.429V175.417V175.405V175.393V175.381V175.369V175.357V175.345V175.333V175.321V175.309V175.297V175.284V175.272V175.26V175.248V175.236V175.224V175.212V175.2V175.188V175.176V175.164V175.152V175.14V175.128V175.116V175.104V175.092V175.08V175.068V175.056V175.044V175.032V175.019V175.007V174.995V174.983V174.971V174.959V174.947V174.935V174.923V174.911V174.899V174.887V174.875V174.863V174.851V174.839V174.827V174.815V174.803V174.791V174.779V174.767V174.754V174.742V174.73V174.718V174.706V174.694V174.682V174.67V174.658V174.646V174.634V174.622V174.61V174.598V174.586V174.574V174.562V174.55V174.538V174.526V174.514V174.502V174.489V174.477V174.465V174.453V174.441V174.429V174.417V174.405V174.393V174.381V174.369V174.357V174.345V174.333V174.321V174.309V174.297V174.285V174.273V174.261V174.249V174.237V174.224V174.212V174.2V174.188V174.176V174.164V174.152V174.14V174.128V174.116V174.104V174.092V174.08V174.068V174.056V174.044V174.032V174.02V174.008V173.996V173.984V173.972V173.959V173.947V173.935V173.923V173.911V173.899V173.887V173.875V173.863V173.851V173.839V173.827V173.815V173.803V173.791V173.779V173.767V173.755V173.743V173.731V173.719V173.707V173.694V173.682V173.67V173.658V173.646V173.634V173.622V173.61V173.598V173.586V173.574V173.562V173.55V173.538V173.526V173.514V173.502V173.49V173.478V173.466V173.454V173.442V173.429V173.417V173.405V173.393V173.381V173.369V173.357V173.345V173.333V173.321V173.309V173.297V173.285V173.273V173.261V173.249V173.237V173.225V173.213V173.201V173.189V173.177V173.164V173.152V173.14V173.128V173.116V173.104V173.092V173.08V173.068V173.056V173.044V173.032V173.02V173.008V172.996V172.984V172.972V172.96V172.948V172.936V172.924V172.912V172.899V172.887V172.875V172.863V172.851V172.839V172.827V172.815V172.803V172.791V172.779V172.767V172.755V172.743V172.731V172.719V172.707V172.695V172.683V172.671V172.659V172.647V172.634V172.622V172.61V172.598V172.586V172.574V172.562V172.55V172.538V172.526V172.514V172.502V172.49V172.478V172.466V172.454V172.442V172.43V172.418V172.406V172.394V172.382V172.369V172.357V172.345V172.333V172.321V172.309V172.297V172.285V172.273V172.261V172.249V172.237V172.225V172.213V172.201V172.189V172.177V172.165V172.153V172.141V172.129V172.117V172.104V172.092V172.08V172.068V172.056V172.044V172.032V172.02V172.008V171.996V171.984V171.972V171.96V171.948V171.936V171.924V171.912V171.9V171.888V171.876V171.864V171.852V171.839V171.827V171.815V171.803V171.791V171.779V171.767V171.755V171.743V171.731V171.719V171.707V171.695V171.683V171.671V171.659V171.647V171.635V171.623V171.611V171.599V171.587V171.574V171.562V171.55V171.538V171.526V171.514V171.502V171.49V171.478V171.466V171.454V171.442V171.43V171.418V171.406V171.394V171.382V171.37V171.358C468.551 170.731 468.555 170.105 468.558 169.48C468.565 168.232 468.572 166.987 468.551 165.743C468.551 165.508 468.565 165.288 468.58 165.05C468.581 165.036 468.582 165.022 468.583 165.009L468.583 165.009L468.583 165.006C468.603 164.542 468.167 164.192 467.713 164.327Z" fill="#BE0104" stroke="#BE0104" stroke-width="0.25"/>
<path d="M452.876 173.416L452.876 173.416L452.876 173.417C452.91 174.465 452.904 175.512 452.897 176.561C452.895 176.982 452.892 177.403 452.892 177.825V177.827V177.828V177.829V177.83V177.832V177.833V177.834V177.836V177.837V177.838V177.84V177.841V177.842V177.843V177.845V177.846V177.847V177.849V177.85V177.851V177.852V177.854V177.855V177.856V177.858V177.859V177.86V177.861V177.863V177.864V177.865V177.867V177.868V177.869V177.87V177.872V177.873V177.874V177.876V177.877V177.878V177.879V177.881V177.882V177.883V177.885V177.886V177.887V177.888V177.89V177.891V177.892V177.894V177.895V177.896V177.897V177.899V177.9V177.901V177.902V177.904V177.905V177.906V177.908V177.909V177.91V177.911V177.913V177.914V177.915V177.917V177.918V177.919V177.92V177.922V177.923V177.924V177.925V177.927V177.928V177.929V177.931V177.932V177.933V177.934V177.936V177.937V177.938V177.939V177.941V177.942V177.943V177.944V177.946V177.947V177.948V177.95V177.951V177.952V177.953V177.955V177.956V177.957V177.958V177.96V177.961V177.962V177.963V177.965V177.966V177.967V177.968V177.97V177.971V177.972V177.974V177.975V177.976V177.977V177.979V177.98V177.981V177.982V177.984V177.985V177.986V177.987V177.989V177.99V177.991V177.992V177.994V177.995V177.996V177.997V177.999V178V178.001V178.002V178.004V178.005V178.006V178.007V178.009V178.01V178.011V178.012V178.014V178.015V178.016V178.017V178.019V178.02V178.021V178.022V178.024V178.025V178.026V178.027V178.029V178.03V178.031V178.032V178.034V178.035V178.036V178.037V178.039V178.04V178.041V178.042V178.044V178.045V178.046V178.047V178.049V178.05V178.051V178.052V178.054V178.055V178.056V178.057V178.059V178.06V178.061V178.062V178.064V178.065V178.066V178.067V178.069V178.07V178.071V178.072V178.073V178.075V178.076V178.077V178.078V178.08V178.081V178.082V178.083V178.085V178.086V178.087V178.088V178.09V178.091V178.092V178.093V178.095V178.096V178.097V178.098V178.099V178.101V178.102V178.103V178.104V178.106V178.107V178.108V178.109V178.111V178.112V178.113V178.114V178.116V178.117V178.118V178.119V178.12V178.122V178.123V178.124V178.125V178.127V178.128V178.129V178.13V178.132V178.133V178.134V178.135V178.136V178.138V178.139V178.14V178.141V178.143V178.144V178.145V178.146V178.147V178.149V178.15V178.151V178.152V178.154V178.155V178.156V178.157V178.159V178.16V178.161V178.162V178.163V178.165V178.166V178.167V178.168V178.17V178.171V178.172V178.173V178.174V178.176V178.177V178.178V178.179V178.181V178.182V178.183V178.184V178.185V178.187V178.188V178.189V178.19V178.192V178.193V178.194V178.195V178.196V178.198V178.199V178.2V178.201V178.203V178.204V178.205V178.206V178.207V178.209V178.21V178.211V178.212V178.214V178.215V178.216V178.217V178.218V178.22V178.221V178.222V178.223V178.225V178.226V178.227V178.228V178.229V178.231V178.232V178.233V178.234V178.235V178.237V178.238V178.239V178.24V178.242V178.243V178.244V178.245V178.246V178.248V178.249V178.25V178.251V178.252V178.254V178.255V178.256V178.257V178.259V178.26V178.261V178.262V178.263V178.265V178.266V178.267V178.268V178.269V178.271V178.272V178.273V178.274V178.276V178.277V178.278V178.279V178.28V178.282V178.283V178.284V178.285V178.286V178.288V178.289V178.29V178.291V178.293V178.294V178.295V178.296V178.297V178.299V178.3V178.301V178.302V178.303V178.305V178.306V178.307V178.308V178.309V178.311V178.312V178.313V178.314V178.315V178.317V178.318V178.319V178.32V178.322V178.323V178.324V178.325V178.326V178.328V178.329V178.33V178.331V178.332V178.334V178.335V178.336V178.337V178.338V178.34V178.341V178.342V178.343V178.345V178.346V178.347V178.348V178.349V178.351V178.352V178.353V178.354V178.355V178.357V178.358V178.359V178.36V178.361V178.363V178.364V178.365V178.366V178.367V178.369V178.37V178.371V178.372V178.373V178.375V178.376V178.377V178.378V178.38V178.381V178.382V178.383V178.384V178.386V178.387V178.388V178.389V178.39V178.392V178.393V178.394V178.395V178.396V178.398V178.399V178.4V178.401V178.402V178.404V178.405V178.406V178.407V178.408V178.41V178.411V178.412V178.413V178.414V178.416V178.417V178.418V178.419V178.42V178.422V178.423V178.424V178.425V178.427V178.428V178.429V178.43V178.431V178.433V178.434V178.435V178.436V178.437V178.439V178.44V178.441V178.442V178.443V178.445V178.446V178.447V178.448V178.449V178.451V178.452V178.453V178.454V178.455V178.457V178.458C452.892 179.145 452.888 179.829 452.884 180.511L452.884 180.517C452.88 181.197 452.876 181.875 452.876 182.553C452.876 182.71 452.935 182.858 452.997 182.987C453.02 183.036 453.044 183.081 453.066 183.125C453.107 183.205 453.145 183.279 453.175 183.357L453.221 183.478L453.34 183.428C453.408 183.399 453.476 183.375 453.549 183.35C453.595 183.333 453.643 183.316 453.694 183.297C453.818 183.251 453.948 183.194 454.059 183.113C454.22 182.995 454.364 182.855 454.501 182.723C454.509 182.715 454.516 182.708 454.524 182.701C454.669 182.56 454.807 182.429 454.959 182.325C455.274 182.116 455.485 181.869 455.612 181.578C455.739 181.289 455.78 180.964 455.772 180.606C455.75 178.942 455.758 177.278 455.765 175.613C455.768 174.78 455.772 173.947 455.772 173.113C455.772 172.598 455.771 172.202 455.74 171.919C455.724 171.778 455.7 171.656 455.661 171.557C455.621 171.458 455.561 171.373 455.471 171.322C455.38 171.271 455.277 171.262 455.17 171.277C455.064 171.291 454.944 171.33 454.81 171.385C454.547 171.493 454.203 171.677 453.758 171.914C453.75 171.918 453.741 171.923 453.733 171.927C453.421 172.093 453.198 172.285 453.057 172.534C452.917 172.781 452.868 173.071 452.876 173.416Z" fill="#BE0104" stroke="#BE0104" stroke-width="0.25"/>
<path d="M494.124 194.727L494.124 194.726C494.09 193.678 494.096 192.631 494.103 191.582C494.105 191.161 494.108 190.74 494.108 190.318V190.316V190.315V190.313V190.312V190.31V190.309V190.307V190.305V190.304V190.302V190.301V190.299V190.298V190.296V190.294V190.293V190.291V190.29V190.288V190.287V190.285V190.283V190.282V190.28V190.279V190.277V190.276V190.274V190.272V190.271V190.269V190.268V190.266V190.265V190.263V190.262V190.26V190.258V190.257V190.255V190.254V190.252V190.251V190.249V190.247V190.246V190.244V190.243V190.241V190.24V190.238V190.237V190.235V190.233V190.232V190.23V190.229V190.227V190.226V190.224V190.223V190.221V190.219V190.218V190.216V190.215V190.213V190.212V190.21V190.209V190.207V190.205V190.204V190.202V190.201V190.199V190.198V190.196V190.195V190.193V190.192V190.19V190.188V190.187V190.185V190.184V190.182V190.181V190.179V190.178V190.176V190.175V190.173V190.171V190.17V190.168V190.167V190.165V190.164V190.162V190.161V190.159V190.158V190.156V190.154V190.153V190.151V190.15V190.148V190.147V190.145V190.144V190.142V190.141V190.139V190.138V190.136V190.134V190.133V190.131V190.13V190.128V190.127V190.125V190.124V190.122V190.121V190.119V190.118V190.116V190.114V190.113V190.111V190.11V190.108V190.107V190.105V190.104V190.102V190.101V190.099V190.098V190.096V190.095V190.093V190.092V190.09V190.088V190.087V190.085V190.084V190.082V190.081V190.079V190.078V190.076V190.075V190.073V190.072V190.07V190.069V190.067V190.066V190.064V190.062V190.061V190.059V190.058V190.056V190.055V190.053V190.052V190.05V190.049V190.047V190.046V190.044V190.043V190.041V190.04V190.038V190.037V190.035V190.034V190.032V190.031V190.029V190.027V190.026V190.024V190.023V190.021V190.02V190.018V190.017V190.015V190.014V190.012V190.011V190.009V190.008V190.006V190.005V190.003V190.002V190V189.999V189.997V189.996V189.994V189.993V189.991V189.99V189.988V189.987V189.985V189.984V189.982V189.98V189.979V189.977V189.976V189.974V189.973V189.971V189.97V189.968V189.967V189.965V189.964V189.962V189.961V189.959V189.958V189.956V189.955V189.953V189.952V189.95V189.949V189.947V189.946V189.944V189.943V189.941V189.94V189.938V189.937V189.935V189.934V189.932V189.931V189.929V189.928V189.926V189.925V189.923V189.922V189.92V189.919V189.917V189.916V189.914V189.913V189.911V189.91V189.908V189.907V189.905V189.904V189.902V189.901V189.899V189.898V189.896V189.895V189.893V189.892V189.89V189.889V189.887V189.886V189.884V189.883V189.881V189.88V189.878V189.877V189.875V189.874V189.872V189.871V189.869V189.868V189.866V189.865V189.863V189.862V189.86V189.859V189.857V189.856V189.854V189.853V189.851V189.85V189.848V189.847V189.845V189.844V189.842V189.841V189.839V189.838V189.836V189.835V189.833V189.832V189.83V189.829V189.827V189.826V189.824V189.823V189.821V189.82V189.818V189.817V189.815V189.814V189.812V189.811V189.809V189.808V189.806V189.805V189.803V189.802V189.8V189.799V189.797V189.796V189.794V189.793V189.791V189.79V189.788V189.787V189.785V189.784V189.782V189.781V189.779V189.778V189.776V189.775V189.773V189.772V189.77V189.769V189.767V189.766V189.764V189.763V189.761V189.76V189.758V189.757V189.755V189.754V189.753V189.751V189.75V189.748V189.747V189.745V189.744V189.742V189.741V189.739V189.738V189.736V189.735V189.733V189.732V189.73V189.729V189.727V189.726V189.724V189.723V189.721V189.72V189.718V189.717V189.715V189.714V189.712V189.711V189.709V189.708V189.706V189.705V189.703V189.702V189.7V189.699V189.697V189.696V189.694V189.693V189.692V189.69V189.689V189.687V189.686V189.684V189.683V189.681V189.68V189.678V189.677V189.675V189.674V189.672V189.671V189.669V189.668V189.666V189.665V189.663V189.662V189.66V189.659V189.657V189.656V189.654V189.653V189.651V189.65V189.648V189.647V189.645V189.644V189.643V189.641V189.64V189.638V189.637V189.635V189.634V189.632V189.631V189.629V189.628V189.626V189.625V189.623V189.622V189.62V189.619V189.617V189.616V189.614V189.613V189.611V189.61V189.608V189.607V189.605V189.604V189.602V189.601V189.599V189.598V189.597V189.595V189.594V189.592V189.591V189.589V189.588V189.586V189.585V189.583V189.582V189.58V189.579V189.577V189.576V189.574V189.573V189.571V189.57V189.568V189.567V189.565V189.564V189.562V189.561V189.559V189.558V189.556V189.555V189.554V189.552V189.551V189.549V189.548V189.546V189.545V189.543C494.108 189.208 494.109 188.872 494.11 188.537C494.113 187.528 494.116 186.518 494.092 185.508L494.092 185.508L494.092 185.502C494.073 185.244 493.91 184.948 493.732 184.773C493.697 184.739 493.655 184.728 493.627 184.724C493.597 184.719 493.566 184.72 493.538 184.723C493.483 184.729 493.42 184.745 493.36 184.766C493.241 184.806 493.107 184.871 493.02 184.937C492.853 185.064 492.699 185.21 492.552 185.352C492.537 185.366 492.522 185.38 492.507 185.395C492.343 185.551 492.185 185.699 492.009 185.819L492.009 185.819L492.007 185.82C491.701 186.037 491.495 186.283 491.369 186.572C491.245 186.859 491.204 187.179 491.212 187.537C491.233 189.202 491.226 190.865 491.219 192.53C491.216 193.363 491.212 194.196 491.212 195.03C491.212 195.545 491.213 195.941 491.244 196.224C491.26 196.366 491.284 196.488 491.324 196.586C491.364 196.686 491.424 196.77 491.516 196.822C491.606 196.872 491.71 196.881 491.818 196.866C491.925 196.852 492.045 196.813 492.181 196.758C492.445 196.65 492.792 196.467 493.241 196.23L493.267 196.216L493.267 196.216C493.579 196.051 493.802 195.858 493.943 195.61C494.083 195.362 494.133 195.072 494.124 194.727Z" fill="#BE0104" stroke="#BE0104" stroke-width="0.25"/>
<path d="M485.386 200.449L485.386 200.449L485.389 200.45C485.611 200.498 485.867 200.432 486.113 200.316C486.363 200.197 486.62 200.018 486.852 199.812C487.083 199.607 487.293 199.371 487.446 199.138C487.597 198.907 487.703 198.664 487.703 198.446V198.431V198.416V198.401V198.385V198.37V198.355V198.34V198.325V198.31V198.295V198.28V198.265V198.25V198.234V198.219V198.204V198.189V198.174V198.159V198.144V198.129V198.114V198.099V198.083V198.068V198.053V198.038V198.023V198.008V197.993V197.978V197.963V197.947V197.932V197.917V197.902V197.887V197.872V197.857V197.842V197.827V197.812V197.796V197.781V197.766V197.751V197.736V197.721V197.706V197.691V197.676V197.661V197.645V197.63V197.615V197.6V197.585V197.57V197.555V197.54V197.525V197.509V197.494V197.479V197.464V197.449V197.434V197.419V197.404V197.389V197.374V197.358V197.343V197.328V197.313V197.298V197.283V197.268V197.253V197.238V197.223V197.207V197.192V197.177V197.162V197.147V197.132V197.117V197.102V197.087V197.072V197.056V197.041V197.026V197.011V196.996V196.981V196.966V196.951V196.936V196.92V196.905V196.89V196.875V196.86V196.845V196.83V196.815V196.8V196.785V196.769V196.754V196.739V196.724V196.709V196.694V196.679V196.664V196.649V196.634V196.618V196.603V196.588V196.573V196.558V196.543V196.528V196.513V196.498V196.482V196.467V196.452V196.437V196.422V196.407V196.392V196.377V196.362V196.347V196.331V196.316V196.301V196.286V196.271V196.256V196.241V196.226V196.211V196.196V196.18V196.165V196.15V196.135V196.12V196.105V196.09V196.075V196.06V196.045V196.029V196.014V195.999V195.984V195.969V195.954V195.939V195.924V195.909V195.893V195.878V195.863V195.848V195.833V195.818V195.803V195.788V195.773V195.758V195.742V195.727V195.712V195.697V195.682V195.667V195.652V195.637V195.622V195.607V195.591V195.576V195.561V195.546V195.531V195.516V195.501V195.486V195.471V195.455V195.44V195.425V195.41V195.395V195.38V195.365V195.35V195.335V195.32V195.304V195.289V195.274V195.259V195.244V195.229V195.214V195.199V195.184V195.169V195.153V195.138V195.123V195.108V195.093V195.078V195.063V195.048V195.033V195.017V195.002V194.987V194.972V194.957V194.942V194.927V194.912V194.897V194.882V194.866V194.851V194.836V194.821V194.806V194.791V194.776V194.761V194.746V194.731V194.715V194.7V194.685V194.67V194.655V194.64V194.625V194.61V194.595V194.58V194.564V194.549V194.534V194.519V194.504V194.489V194.474V194.459V194.444V194.428V194.413V194.398V194.383V194.368V194.353V194.338V194.323V194.308V194.293V194.277V194.262V194.247V194.232V194.217V194.202V194.187V194.172V194.157V194.142V194.126V194.111V194.096V194.081V194.066V194.051V194.036V194.021V194.006V193.99V193.975V193.96V193.945V193.93V193.915V193.9V193.885V193.87V193.855V193.839V193.824V193.809V193.794V193.779V193.764V193.749V193.734V193.719V193.704V193.688V193.673V193.658V193.643V193.628V193.613V193.598V193.583V193.568V193.553V193.537V193.522V193.507V193.492V193.477V193.462V193.447V193.432V193.417V193.401V193.386V193.371V193.356V193.341V193.326V193.311V193.296V193.281V193.266V193.25V193.235V193.22V193.205V193.19V193.175V193.16V193.145V193.13V193.115V193.099V193.084V193.069V193.054V193.039V193.024V193.009V192.994V192.979V192.963V192.948V192.933V192.918V192.903V192.888V192.873V192.858V192.843V192.828V192.812V192.797V192.782V192.767V192.752V192.737V192.722V192.707V192.692V192.677V192.661V192.646V192.631V192.616V192.601V192.586V192.571V192.556V192.541V192.526V192.51V192.495V192.48V192.465V192.45V192.435V192.42V192.405V192.39V192.374V192.359V192.344V192.329V192.314V192.299V192.284V192.269V192.254V192.239V192.223V192.208V192.193V192.178V192.163V192.148V192.133V192.118V192.103V192.088V192.072V192.057V192.042V192.027V192.012V191.997V191.982V191.967V191.952V191.936V191.921V191.906V191.891V191.876V191.861V191.846V191.831V191.816V191.801V191.785V191.77V191.755V191.74V191.725V191.71V191.695V191.68V191.665V191.65V191.634V191.619V191.604V191.589V191.574V191.559V191.544V191.529V191.514V191.498V191.483V191.468V191.453V191.438V191.423V191.408V191.393V191.378V191.363V191.347V191.332V191.317V191.302V191.287V191.272V191.257V191.242V191.227V191.212V191.196V191.181V191.166V191.151V191.136V191.121V191.106V191.091V191.076V191.061V191.045V191.03V191.015V191V190.985V190.97V190.955V190.94V190.925V190.909V190.894V190.879V190.864V190.849V190.834V190.819V190.804V190.789V190.774V190.758V190.743V190.728V190.713V190.704C487.703 190.229 487.703 189.863 487.673 189.595C487.643 189.331 487.581 189.118 487.417 188.999C487.254 188.881 487.031 188.884 486.766 188.931C486.505 188.978 486.163 189.076 485.723 189.203C485.706 189.207 485.689 189.212 485.672 189.217C485.377 189.3 485.153 189.421 485.009 189.614C484.864 189.808 484.814 190.054 484.823 190.353C484.847 191.49 484.844 192.636 484.841 193.778C484.84 194.159 484.839 194.54 484.839 194.919C484.839 195.36 484.836 195.803 484.834 196.247C484.827 197.358 484.82 198.473 484.855 199.571C484.856 199.735 484.926 199.933 485.016 200.093C485.062 200.174 485.117 200.251 485.175 200.313C485.232 200.372 485.303 200.429 485.386 200.449Z" fill="#BE0104" stroke="#BE0104" stroke-width="0.25"/>
<path d="M461.329 178.926L461.329 178.926C461.613 178.844 461.836 178.731 461.983 178.545C462.131 178.357 462.186 178.114 462.177 177.806C462.153 176.669 462.156 175.523 462.159 174.38C462.16 174 462.161 173.619 462.161 173.239C462.161 172.845 462.162 172.45 462.163 172.055C462.166 170.868 462.169 169.678 462.145 168.478C462.145 168.328 462.077 168.148 461.99 168.004C461.946 167.93 461.893 167.86 461.835 167.803C461.779 167.748 461.71 167.698 461.63 167.678L461.63 167.678L461.625 167.677C461.404 167.634 461.148 167.701 460.9 167.818C460.649 167.937 460.39 168.116 460.157 168.32C459.923 168.525 459.711 168.759 459.557 168.991C459.404 169.22 459.297 169.463 459.297 169.681V169.697V169.712V169.727V169.742V169.757V169.772V169.787V169.802V169.817V169.832V169.848V169.863V169.878V169.893V169.908V169.923V169.938V169.953V169.968V169.983V169.999V170.014V170.029V170.044V170.059V170.074V170.089V170.104V170.119V170.135V170.15V170.165V170.18V170.195V170.21V170.225V170.24V170.255V170.27V170.286V170.301V170.316V170.331V170.346V170.361V170.376V170.391V170.406V170.421V170.437V170.452V170.467V170.482V170.497V170.512V170.527V170.542V170.557V170.572V170.588V170.603V170.618V170.633V170.648V170.663V170.678V170.693V170.708V170.724V170.739V170.754V170.769V170.784V170.799V170.814V170.829V170.844V170.859V170.875V170.89V170.905V170.92V170.935V170.95V170.965V170.98V170.995V171.01V171.026V171.041V171.056V171.071V171.086V171.101V171.116V171.131V171.146V171.162V171.177V171.192V171.207V171.222V171.237V171.252V171.267V171.282V171.297V171.313V171.328V171.343V171.358V171.373V171.388V171.403V171.418V171.433V171.448V171.464V171.479V171.494V171.509V171.524V171.539V171.554V171.569V171.584V171.6V171.615V171.63V171.645V171.66V171.675V171.69V171.705V171.72V171.735V171.751V171.766V171.781V171.796V171.811V171.826V171.841V171.856V171.871V171.886V171.902V171.917V171.932V171.947V171.962V171.977V171.992V172.007V172.022V172.037V172.053V172.068V172.083V172.098V172.113V172.128V172.143V172.158V172.173V172.189V172.204V172.219V172.234V172.249V172.264V172.279V172.294V172.309V172.324V172.34V172.355V172.37V172.385V172.4V172.415V172.43V172.445V172.46V172.475V172.491V172.506V172.521V172.536V172.551V172.566V172.581V172.596V172.611V172.627V172.642V172.657V172.672V172.687V172.702V172.717V172.732V172.747V172.762V172.778V172.793V172.808V172.823V172.838V172.853V172.868V172.883V172.898V172.913V172.929V172.944V172.959V172.974V172.989V173.004V173.019V173.034V173.049V173.064V173.08V173.095V173.11V173.125V173.14V173.155V173.17V173.185V173.2V173.216V173.231V173.246V173.261V173.276V173.291V173.306V173.321V173.336V173.351V173.367V173.382V173.397V173.412V173.427V173.442V173.457V173.472V173.487V173.502V173.518V173.533V173.548V173.563V173.578V173.593V173.608V173.623V173.638V173.654V173.669V173.684V173.699V173.714V173.729V173.744V173.759V173.774V173.789V173.805V173.82V173.835V173.85V173.865V173.88V173.895V173.91V173.925V173.94V173.956V173.971V173.986V174.001V174.016V174.031V174.046V174.061V174.076V174.091V174.107V174.122V174.137V174.152V174.167V174.182V174.197V174.212V174.227V174.243V174.258V174.273V174.288V174.303V174.318V174.333V174.348V174.363V174.378V174.394V174.409V174.424V174.439V174.454V174.469V174.484V174.499V174.514V174.529V174.545V174.56V174.575V174.59V174.605V174.62V174.635V174.65V174.665V174.681V174.696V174.711V174.726V174.741V174.756V174.771V174.786V174.801V174.816V174.832V174.847V174.862V174.877V174.892V174.907V174.922V174.937V174.952V174.967V174.983V174.998V175.013V175.028V175.043V175.058V175.073V175.088V175.103V175.119V175.134V175.149V175.164V175.179V175.194V175.209V175.224V175.239V175.254V175.27V175.285V175.3V175.315V175.33V175.345V175.36V175.375V175.39V175.405V175.421V175.436V175.451V175.466V175.481V175.496V175.511V175.526V175.541V175.556V175.572V175.587V175.602V175.617V175.632V175.647V175.662V175.677V175.692V175.708V175.723V175.738V175.753V175.768V175.783V175.798V175.813V175.828V175.843V175.859V175.874V175.889V175.904V175.919V175.934V175.949V175.964V175.979V175.994V176.01V176.025V176.04V176.055V176.07V176.085V176.1V176.115V176.13V176.146V176.161V176.176V176.191V176.206V176.221V176.236V176.251V176.266V176.281V176.297V176.312V176.327V176.342V176.357V176.372V176.387V176.402V176.417V176.432V176.448V176.463V176.478V176.493V176.508V176.523V176.538V176.553V176.568V176.583V176.599V176.614V176.629V176.644V176.659V176.674V176.689V176.704V176.719V176.735V176.75V176.765V176.78V176.795V176.81V176.825V176.84V176.855V176.87V176.886V176.901V176.916V176.931V176.946V176.961V176.976V176.991V177.006V177.021V177.037V177.052V177.067V177.082V177.097V177.112V177.127V177.142V177.157V177.173V177.188V177.203V177.218V177.233V177.248V177.263V177.278V177.293V177.308V177.324V177.339V177.354V177.369V177.384V177.399L459.297 177.414L459.297 177.415C459.298 177.434 459.298 177.452 459.298 177.47C459.302 177.926 459.304 178.28 459.334 178.542C459.364 178.807 459.426 179.021 459.588 179.141C459.75 179.261 459.973 179.259 460.236 179.212C460.494 179.166 460.831 179.069 461.266 178.944C461.286 178.938 461.307 178.932 461.329 178.926Z" fill="#BE0104" stroke="#BE0104" stroke-width="0.25"/>
<path d="M491.212 178.522C491.212 178.645 491.245 178.788 491.299 178.911C491.351 179.03 491.434 179.158 491.554 179.217C491.618 179.251 491.69 179.258 491.754 179.255C491.821 179.252 491.891 179.237 491.957 179.216C492.088 179.174 492.222 179.105 492.316 179.032L492.317 179.031C492.508 178.891 492.704 178.747 492.869 178.601C493.657 177.976 494.092 177.023 494.076 176.038V174.188C494.076 173.525 493.995 172.966 493.748 172.515C493.498 172.06 493.087 171.73 492.459 171.509L492.439 171.502H492.437L492.426 171.492L492.408 171.483C492.226 171.394 492.063 171.332 491.92 171.305C491.776 171.279 491.641 171.286 491.525 171.349C491.408 171.413 491.332 171.522 491.284 171.659C491.238 171.793 491.216 171.962 491.212 172.162L491.212 172.162L491.212 172.162C491.201 172.86 491.205 173.566 491.208 174.268C491.21 174.617 491.212 174.965 491.212 175.311C491.212 175.669 491.21 176.027 491.208 176.385C491.205 177.101 491.201 177.816 491.212 178.522ZM491.212 178.522C491.212 178.522 491.212 178.522 491.212 178.521H491.337L491.212 178.523C491.212 178.523 491.212 178.523 491.212 178.522Z" fill="#BE0104" stroke="#BE0104" stroke-width="0.25"/>
<path d="M455.788 195.855L455.788 195.855C455.784 196.095 455.765 196.291 455.723 196.442C455.68 196.594 455.607 196.718 455.482 196.788C455.36 196.856 455.214 196.858 455.059 196.829C454.903 196.8 454.718 196.736 454.503 196.648C453.886 196.399 453.462 196.109 453.204 195.682C452.948 195.258 452.868 194.719 452.892 194M455.788 195.855L453.017 192.674C453.017 191.915 453.436 190.112 454.63 189.306M455.788 195.855C455.799 195.189 455.795 194.523 455.791 193.858C455.79 193.526 455.788 193.194 455.788 192.864C455.788 192.511 455.79 192.159 455.792 191.808C455.795 191.108 455.799 190.411 455.788 189.715L455.788 189.715L455.788 189.708C455.778 189.569 455.731 189.435 455.679 189.312C455.655 189.256 455.63 189.201 455.605 189.147C455.602 189.142 455.6 189.136 455.597 189.131C455.57 189.071 455.543 189.014 455.52 188.958L455.475 188.846L455.362 188.888C455.285 188.916 455.211 188.938 455.133 188.962C455.08 188.978 455.025 188.994 454.967 189.013C454.83 189.058 454.687 189.113 454.559 189.203M455.788 195.855L454.63 189.306M452.892 194C452.892 194 452.892 193.999 452.892 193.998L453.017 194.002L452.892 194.002V194.002V194.002V194.002V194.002V194.002V194.002V194.002V194.002V194.002V194.002V194.001V194.001V194.001V194.001V194.001V194.001V194V194ZM452.892 194V194V194V194V193.999V193.999V193.999V193.998V193.998V193.998V193.997V193.997V193.997V193.996V193.996V193.995V193.995V193.995V193.994V193.994V193.993V193.993V193.992V193.992V193.991V193.991V193.99V193.989V193.989V193.988V193.988V193.987V193.986V193.986V193.985V193.985V193.984V193.983V193.982V193.982V193.981V193.98V193.98V193.979V193.978V193.977V193.976V193.976V193.975V193.974V193.973V193.972V193.971V193.971V193.97V193.969V193.968V193.967V193.966V193.965V193.964V193.963V193.962V193.961V193.96V193.959V193.958V193.957V193.956V193.955V193.954V193.953V193.952V193.951V193.949V193.948V193.947V193.946V193.945V193.944V193.942V193.941V193.94V193.939V193.938V193.936V193.935V193.934V193.933V193.931V193.93V193.929V193.927V193.926V193.925V193.923V193.922V193.921V193.919V193.918V193.916V193.915V193.913V193.912V193.911V193.909V193.908V193.906V193.905V193.903V193.902V193.9V193.899V193.897V193.895V193.894V193.892V193.891V193.889V193.887V193.886V193.884V193.882V193.881V193.879V193.877V193.876V193.874V193.872V193.871V193.869V193.867V193.865V193.864V193.862V193.86V193.858V193.856V193.855V193.853V193.851V193.849V193.847V193.845V193.843V193.842V193.84V193.838V193.836V193.834V193.832V193.83V193.828V193.826V193.824V193.822V193.82V193.818V193.816V193.814V193.812V193.81V193.808V193.806V193.804V193.802V193.799V193.797V193.795V193.793V193.791V193.789V193.787V193.784V193.782V193.78V193.778V193.776V193.773V193.771V193.769V193.767V193.764V193.762V193.76V193.758V193.755V193.753V193.751V193.748V193.746V193.744V193.741V193.739V193.737V193.734V193.732V193.729V193.727V193.725V193.722V193.72V193.717V193.715V193.712V193.71V193.707V193.705V193.702V193.7V193.697V193.695V193.692V193.69V193.687V193.684V193.682V193.679V193.677V193.674V193.671V193.669V193.666V193.664V193.661V193.658V193.656V193.653V193.65V193.648V193.645V193.642V193.639V193.637V193.634V193.631V193.628V193.626V193.623V193.62V193.617V193.614V193.612V193.609V193.606V193.603V193.6V193.598V193.595V193.592V193.589V193.586V193.583V193.58V193.577V193.574V193.571V193.569V193.566V193.563V193.56V193.557V193.554V193.551V193.548V193.545V193.542V193.539V193.536V193.533V193.53V193.527V193.523V193.52V193.517V193.514V193.511V193.508V193.505V193.502V193.499V193.496V193.492V193.489V193.486V193.483V193.48V193.477V193.473V193.47V193.467V193.464V193.461V193.457V193.454V193.451V193.448V193.444V193.441V193.438V193.435V193.431V193.428V193.425V193.421V193.418V193.415V193.411V193.408V193.405V193.401V193.398V193.395V193.391V193.388V193.384V193.381V193.378V193.374V193.371V193.367V193.364V193.36V193.357V193.353V193.35V193.347V193.343V193.34V193.336V193.333V193.329V193.326V193.322V193.318V193.315V193.311V193.308V193.304V193.301V193.297V193.294V193.29V193.286V193.283V193.279V193.276V193.272V193.268V193.265V193.261V193.257V193.254V193.25V193.246V193.243V193.239V193.235V193.232V193.228V193.224V193.221V193.217V193.213V193.209V193.206V193.202V193.198V193.194V193.191V193.187V193.183V193.179V193.175V193.172V193.168V193.164V193.16V193.156V193.153V193.149V193.145V193.141V193.137V193.133V193.129V193.126V193.122V193.118V193.114V193.11V193.106V193.102V193.098V193.094V193.09V193.086V193.082V193.079V193.075V193.071V193.067V193.063V193.059V193.055V193.051V193.047V193.043V193.039V193.035V193.031V193.027V193.023V193.019V193.015V193.01V193.006V193.002V192.998V192.994V192.99V192.986V192.982V192.978V192.974V192.97V192.966V192.961V192.957V192.953V192.949V192.945V192.941V192.937V192.932V192.928V192.924V192.92V192.916V192.912V192.907V192.903V192.899V192.895V192.891V192.886V192.882V192.878V192.874V192.87V192.865V192.861V192.857V192.853V192.848V192.844V192.84V192.836V192.831V192.827V192.823V192.818V192.814V192.81V192.805V192.801V192.797V192.793V192.788V192.784V192.78V192.775V192.771V192.766V192.762V192.758V192.753V192.749V192.745V192.74V192.736V192.732V192.727V192.723V192.718V192.714V192.71V192.705V192.701V192.696V192.692V192.687V192.683V192.679V192.674C452.892 192.277 453 191.621 453.259 190.962C453.518 190.303 453.934 189.626 454.559 189.203M454.559 189.203C454.559 189.203 454.559 189.203 454.559 189.203L454.63 189.306M454.559 189.203C454.56 189.203 454.56 189.202 454.56 189.202L454.63 189.306" fill="#BE0104" stroke="#BE0104" stroke-width="0.25"/>
<path d="M481.346 190.715L481.346 190.715V190.713C481.346 190.406 481.302 190.129 481.146 189.929C480.984 189.721 480.726 189.623 480.366 189.623C480.29 189.623 480.208 189.61 480.115 189.592C480.102 189.59 480.088 189.587 480.074 189.584C479.997 189.569 479.913 189.553 479.832 189.545C479.559 189.502 479.336 189.476 479.157 189.48C478.977 189.484 478.823 189.519 478.705 189.616C478.586 189.714 478.525 189.856 478.492 190.028C478.458 190.199 478.45 190.416 478.45 190.681C478.45 191.861 478.447 192.59 478.445 193.145C478.442 193.936 478.44 194.376 478.45 195.268V195.282V195.297V195.312V195.327V195.342V195.357V195.372V195.387V195.402V195.417V195.431V195.446V195.461V195.476V195.491V195.506V195.521V195.536V195.551V195.566V195.581V195.596V195.61V195.625V195.64V195.655V195.67V195.685V195.7V195.715V195.73V195.745V195.76V195.775V195.789V195.804V195.819V195.834V195.849V195.864V195.879V195.894V195.909V195.924V195.939V195.954V195.968V195.983V195.998V196.013V196.028V196.043V196.058V196.073V196.088V196.103V196.118V196.133V196.147V196.162V196.177V196.192V196.207V196.222V196.237V196.252V196.267V196.282V196.297V196.312V196.326V196.341V196.356V196.371V196.386V196.401V196.416V196.431V196.446V196.461V196.476V196.491V196.505V196.52V196.535V196.55V196.565V196.58V196.595V196.61V196.625V196.64V196.655V196.67V196.685V196.699V196.714V196.729V196.744V196.759V196.774V196.789V196.804V196.819V196.834V196.849V196.864V196.878V196.893V196.908V196.923V196.938V196.953V196.968V196.983V196.998V197.013V197.028V197.043V197.057V197.072V197.087V197.102V197.117V197.132V197.147V197.162V197.177V197.192V197.207V197.222V197.236V197.251V197.266V197.281V197.296V197.311V197.326V197.341V197.356V197.371V197.386V197.401V197.415V197.43V197.445V197.46V197.475V197.49V197.505V197.52V197.535V197.55V197.565V197.58V197.594V197.609V197.624V197.639V197.654V197.669V197.684V197.699V197.714V197.729V197.744V197.759V197.773V197.788V197.803V197.818V197.833V197.848V197.863V197.878V197.893V197.908V197.923V197.938V197.953V197.967V197.982V197.997V198.012V198.027V198.042V198.057V198.072V198.087V198.102V198.117V198.132V198.146V198.161V198.176V198.191V198.206V198.221V198.236V198.251V198.266V198.281V198.296V198.311V198.325V198.34V198.355V198.37V198.385V198.4V198.415V198.43V198.445V198.46V198.475V198.49V198.504V198.519V198.534V198.549V198.564V198.579V198.594V198.609V198.624V198.639V198.654V198.669V198.683V198.698V198.713V198.728V198.743V198.758V198.773V198.788V198.803V198.818V198.833V198.848V198.862V198.877V198.892V198.907V198.922V198.937V198.952V198.967V198.982V198.997V199.012V199.027V199.042V199.056V199.071V199.086V199.101V199.116V199.131V199.146V199.161V199.176V199.191V199.206V199.221V199.235V199.25V199.265V199.28V199.295V199.31V199.325V199.34V199.355V199.37V199.385V199.4V199.414V199.429V199.444V199.459V199.474V199.489V199.504V199.519V199.534V199.549V199.564V199.579V199.593V199.608V199.623V199.638V199.653V199.668V199.683V199.698V199.713V199.728V199.743V199.758V199.772V199.787V199.802V199.817V199.832V199.847V199.862V199.877V199.892V199.907V199.922V199.937V199.951V199.966V199.981V199.996V200.011V200.026V200.041V200.056V200.071V200.086V200.101V200.116V200.13V200.145V200.16V200.175V200.19V200.205V200.22V200.235V200.25V200.265V200.28V200.295V200.31V200.324V200.339V200.354V200.369V200.384V200.399V200.414V200.429V200.444V200.459V200.474V200.489V200.503V200.518V200.533V200.548V200.563V200.578V200.593V200.608V200.623V200.638V200.653V200.668V200.682V200.697V200.712V200.727V200.742V200.757V200.772V200.787V200.802V200.817V200.832V200.847V200.861V200.876V200.891V200.906V200.921V200.936V200.951V200.966V200.981V200.996V201.011V201.026V201.04V201.055V201.07V201.085V201.1V201.115V201.13V201.145V201.16V201.175V201.19V201.205V201.219V201.234V201.249V201.264V201.279V201.294V201.309V201.324V201.339V201.354V201.369V201.384V201.398V201.413V201.428V201.443V201.458V201.473V201.488V201.503V201.518V201.533V201.548V201.563V201.578V201.592V201.607V201.622V201.637V201.652V201.667V201.682V201.697V201.712V201.727V201.742V201.757V201.771V201.786V201.801V201.816V201.831V201.846V201.861V201.876V201.891V201.906V201.921V201.936V201.95V201.965V201.98V201.995V202.01V202.025V202.04V202.055V202.07V202.085V202.1V202.115V202.129V202.144V202.159V202.174V202.189V202.204V202.219V202.234V202.249V202.264V202.279V202.294V202.308V202.323V202.338V202.353V202.368V202.383V202.398V202.413V202.428V202.443V202.458V202.473V202.487V202.502V202.517V202.532V202.547V202.562V202.577V202.592V202.607V202.622V202.637V202.652V202.666V202.681V202.696V202.711V202.726V202.741V202.756V202.771V202.786V202.801V202.816V202.831V202.846V202.86V202.875V202.89V202.905C478.45 203.18 478.464 203.401 478.504 203.568C478.544 203.736 478.617 203.874 478.753 203.948C478.884 204.02 479.044 204.014 479.215 203.974C479.389 203.935 479.599 203.855 479.85 203.748L479.85 203.748C480.44 203.495 480.836 203.175 481.079 202.75C481.321 202.327 481.402 201.815 481.394 201.196L481.392 201.072H481.39C481.389 201.004 481.388 200.908 481.387 200.787C481.384 200.526 481.381 200.152 481.377 199.701C481.371 198.797 481.364 197.581 481.358 196.334C481.346 193.839 481.338 191.219 481.346 190.715Z" fill="#BE0104" stroke="#BE0104" stroke-width="0.25"/>
</g>
<defs>
<filter id="filter0_ddd" x="82" y="48" width="616" height="138" filterUnits="userSpaceOnUse" color-interpolation-filters="sRGB">
<feFlood flood-opacity="0" result="BackgroundImageFix"/>
<feColorMatrix in="SourceAlpha" type="matrix" values="0 0 0 0 0 0 0 0 0 0 0 0 0 0 0 0 0 0 127 0"/>
<feOffset dx="6" dy="6"/>
<feGaussianBlur stdDeviation="6"/>
<feColorMatrix type="matrix" values="0 0 0 0 0.396078 0 0 0 0 0.34902 0 0 0 0 0.486275 0 0 0 0.06 0"/>
<feBlend mode="normal" in2="BackgroundImageFix" result="effect1_dropShadow"/>
<feColorMatrix in="SourceAlpha" type="matrix" values="0 0 0 0 0 0 0 0 0 0 0 0 0 0 0 0 0 0 127 0"/>
<feOffset dx="20" dy="20"/>
<feGaussianBlur stdDeviation="16"/>
<feColorMatrix type="matrix" values="0 0 0 0 0.394405 0 0 0 0 0.34925 0 0 0 0 0.484716 0 0 0 0.06 0"/>
<feBlend mode="normal" in2="effect1_dropShadow" result="effect2_dropShadow"/>
<feColorMatrix in="SourceAlpha" type="matrix" values="0 0 0 0 0 0 0 0 0 0 0 0 0 0 0 0 0 0 127 0"/>
<feOffset dx="30" dy="30"/>
<feGaussianBlur stdDeviation="24"/>
<feColorMatrix type="matrix" values="0 0 0 0 0.394405 0 0 0 0 0.34925 0 0 0 0 0.484716 0 0 0 0.06 0"/>
<feBlend mode="normal" in2="effect2_dropShadow" result="effect3_dropShadow"/>
<feBlend mode="normal" in="SourceGraphic" in2="effect3_dropShadow" result="shape"/>
</filter>
<linearGradient id="paint0_linear" x1="30" y1="350" x2="-141.605" y2="209.304" gradientUnits="userSpaceOnUse">
<stop stop-color="#EFECF4"/>
<stop offset="1" stop-color="#E9E6EF"/>
</linearGradient>
<linearGradient id="paint1_linear" x1="115" y1="205" x2="157" y2="205" gradientUnits="userSpaceOnUse">
<stop stop-color="#B9D532"/>
<stop offset="1" stop-color="#5BBA47"/>
</linearGradient>
<linearGradient id="paint2_linear" x1="248" y1="148" x2="248" y2="220" gradientUnits="userSpaceOnUse">
<stop stop-color="white"/>
<stop offset="0.546961" stop-color="#DA3D50"/>
<stop offset="0.80663" stop-color="#F16830"/>
<stop offset="1" stop-color="#F5A63D"/>
</linearGradient>
<clipPath id="clip0">
<rect width="660" height="350" fill="white"/>
</clipPath>
<clipPath id="clip1">
<rect width="20" height="20" fill="white" transform="translate(108 77)"/>
</clipPath>
</defs>
</svg>
