<svg width="660" height="350" viewBox="0 0 660 350" fill="none" xmlns="http://www.w3.org/2000/svg">
<g clip-path="url(#clip0)">
<path d="M60 0H660V350H60V0Z" fill="#F6F4FA"/>
<path d="M60 0H660V350H60V0Z" fill="#EEEBF3"/>
<rect x="60" width="192" height="24" fill="#F6F4FA"/>
<path d="M60 24H660V350H60V24Z" fill="#F6F4FA"/>
<path d="M349.655 269.223C358.444 285.513 355.514 322.087 355.593 326H324V171C335.877 171 340.865 182.26 340.865 208.612C340.865 234.964 351.08 234.006 351.08 245.985C351.08 254.849 344.835 260.29 349.655 269.223Z" fill="url(#paint0_linear)"/>
<path d="M298.345 269.223C289.556 285.513 292.486 322.087 292.407 326H324V171C312.123 171 307.135 182.26 307.135 208.612C307.135 234.964 296.92 234.006 296.92 245.985C296.92 254.849 303.165 260.29 298.345 269.223Z" fill="#D0CDD8"/>
<path d="M324 234V313.5" stroke="#A69FB3" stroke-linecap="round" stroke-linejoin="bevel"/>
<path d="M335 283L324 294" stroke="#A69FB3" stroke-linecap="round" stroke-linejoin="bevel"/>
<path d="M324 267L329.5 261.5" stroke="#A69FB3" stroke-linecap="round" stroke-linejoin="bevel"/>
<path d="M324 282.5L318.5 277" stroke="#A69FB3" stroke-linecap="round" stroke-linejoin="bevel"/>
<path opacity="0.8" d="M173.443 263.32C173.637 262.795 173.983 262.119 174.502 261.346C196.836 219.974 204.129 222.311 206.817 226.976C209.548 231.713 200.618 247.231 188.401 251.572C180.705 254.307 176.422 258.487 174.502 261.346C174.152 261.994 173.799 262.651 173.443 263.32Z" fill="url(#paint1_linear)"/>
<path opacity="0.8" d="M189.841 186.239C178.831 206.272 174.714 247.796 174.032 266.053C187.586 231.871 191.644 224.711 205.126 198.374C218.608 172.038 203.603 161.196 189.841 186.239Z" fill="url(#paint2_linear)"/>
<path opacity="0.8" d="M171.354 180.352C164.335 207.093 169.403 247.668 172.815 264.613C200.404 169.865 194.518 139.282 189.117 138.766C183.716 138.251 180.128 146.925 171.354 180.352Z" fill="url(#paint3_linear)"/>
<path opacity="0.8" d="M152.873 221.35C161.033 233.076 170.51 258.115 174.229 269.169C171.493 196.686 149.023 179.759 143.739 182.112C138.455 184.465 142.673 206.693 152.873 221.35Z" fill="url(#paint4_linear)"/>
<path d="M569.5 284.983C590.3 329.275 639.5 339.149 663 350.483H56V232.983C148 232.983 321.5 313.5 321.5 313.5C321.5 313.5 347 314.4 393 250C450.5 169.5 531 203 569.5 284.983Z" fill="#EDEBF3"/>
<path d="M118.933 339.728L93.7289 349.5L50.0031 349.5C57.6395 328.06 73.5737 278.027 74.657 279.334C75.7402 280.642 67.237 308.602 62.8499 322.419C83.2544 293.192 96.0147 264.994 97.4464 266.174C98.5918 267.118 84.1532 300.668 76.7907 317.326C84.2508 306.917 99.4041 286.374 100.337 287.468C101.27 288.563 92.016 307 87.2723 316.081C97.9153 304.348 118.994 281.546 118.165 284.209C117.336 286.872 92.6087 323.538 80.3488 341.539C85.5465 336.258 112.754 320.831 125.707 313.778L83.7695 346.097L118.933 339.728Z" fill="url(#paint5_linear)"/>
<path opacity="0.8" d="M567.833 378.124C561.365 345.57 530.847 305.997 516.397 290.28C529.723 352.679 549.307 379.761 557.433 385.502L567.833 378.124Z" fill="url(#paint6_linear)"/>
<path d="M562.931 357.887C564.723 332.392 550.075 296.81 542.527 282.206C539.783 331.262 548.841 355.349 553.713 361.26L562.931 357.887Z" fill="url(#paint7_linear)"/>
<path d="M558.518 360.892C556.982 339.031 569.542 308.522 576.014 296C578.367 338.063 570.6 358.716 566.423 363.784L558.518 360.892Z" fill="url(#paint8_linear)"/>
<path d="M564.406 363.431C567.157 348.049 581.163 329.147 587.822 321.618C582.111 351.11 573.138 364.034 569.366 366.81L564.406 363.431Z" fill="url(#paint9_linear)"/>
<path opacity="0.7" d="M530.658 331.447C526.317 328.417 516.69 322.112 512.42 319.339C516.837 330.863 532.195 353.419 539.323 363.255L548.186 359.82C543.821 347.773 536.084 335.234 530.658 331.447Z" fill="url(#paint10_linear)"/>
<path opacity="0.7" d="M515.31 339.897C510.868 339.984 505.773 338.909 503.78 338.36C509.852 347.039 524.774 354.211 531.475 356.712L539.769 351.296C530.157 337.224 520.862 339.788 515.31 339.897Z" fill="url(#paint11_linear)"/>
<path d="M322.5 313.501C302.166 317.501 242.3 325.501 169.5 325.501C78.4998 325.501 177.5 248.501 322.5 313.501Z" fill="url(#paint12_linear)"/>
<path d="M0 0H60V350H0V0Z" fill="url(#paint13_linear)"/>
<circle cx="13" cy="13" r="5" fill="#D0CDD8"/>
<circle cx="30" cy="13" r="5" fill="#D0CDD8"/>
<circle cx="47" cy="13" r="5" fill="#D0CDD8"/>
<circle cx="30" cy="74" r="16" fill="#D0CDD8"/>
<circle cx="30" cy="122" r="16" fill="#D0CDD8"/>
<circle cx="30" cy="170" r="16" fill="#D0CDD8"/>
<circle cx="30" cy="310" r="16" fill="#D0CDD8"/>
<rect x="100" y="147" width="72" height="72" rx="8" fill="white"/>
<rect x="100" y="147" width="72" height="72" rx="8" fill="white"/>
<path fill-rule="evenodd" clip-rule="evenodd" d="M115 183C115 171.402 124.402 162 136 162C147.598 162 157 171.402 157 183C157 194.598 147.598 204 136 204C124.402 204 115 194.598 115 183ZM120.25 183C120.25 191.699 127.301 198.75 136 198.75C144.699 198.75 151.75 191.699 151.75 183C151.75 174.301 144.699 167.25 136 167.25C127.301 167.25 120.25 174.301 120.25 183Z" fill="url(#paint14_linear)"/>
<rect x="548" y="147" width="72" height="72" rx="8" fill="white"/>
<path d="M588.056 159C597.242 161.461 604.406 170.562 604.926 179.491C605.792 192.427 598.975 200.842 589.269 204.505C580.43 207.825 569.279 205.764 562 196.835C573.266 199.239 582.279 196.091 588.576 187.161C594.815 178.175 594.122 168.731 588.056 159Z" fill="#FFE063"/>
<rect x="436" y="147" width="72" height="72" rx="8" fill="white"/>
<path d="M456 171.041L464.599 182.425V201H456V171.041Z" fill="#0052F3"/>
<path d="M480.548 164H489V201H481.209L456 167.67V164H463.791L480.548 186.02V164Z" fill="#0052F3"/>
<rect x="324" y="147" width="72" height="72" rx="8" fill="url(#paint15_linear)" fill-opacity="0.25" style="mix-blend-mode:multiply"/>
<rect x="324" y="147" width="72" height="72" rx="8" fill="white"/>
<path d="M354 164H365V202C365 202.552 364.552 203 364 203H358C355.791 203 354 201.209 354 199V164Z" fill="#1181FB"/>
<path d="M372 164C374.209 164 376 165.791 376 168L376 173C376 173.552 375.552 174 375 174L345 174C344.448 174 344 173.552 344 173L344 165C344 164.448 344.448 164 345 164L372 164Z" fill="#1181FB"/>
<rect x="212" y="147" width="72" height="72" rx="8" fill="white"/>
<g clip-path="url(#clip1)">
<path d="M243.995 177.494V164.353C243.995 163.847 243.651 163.644 243.204 163.914L241.278 165.029C241.106 165.13 241.003 165.299 241.003 165.468V177.291C241.003 177.562 241.243 177.798 241.519 177.798C242.138 177.832 242.757 177.899 243.376 178.001C243.72 178.065 243.995 177.829 243.995 177.494ZM250.013 180.058V162.053C250.013 161.85 249.91 161.681 249.738 161.614L248.775 161.073C248.603 160.972 248.397 160.972 248.259 161.073L247.296 161.614C247.124 161.715 247.021 161.884 247.021 162.053V178.876C247.021 179.078 247.124 179.247 247.296 179.349C247.95 179.687 248.569 180.058 249.188 180.497C249.635 180.805 250.013 180.636 250.013 180.058ZM238.011 177.626V167.762C238.011 167.255 237.667 167.052 237.22 167.323L235.259 168.404C235.087 168.505 234.984 168.674 234.984 168.843V178.2C234.984 178.606 235.294 178.842 235.706 178.707C236.325 178.504 236.944 178.301 237.598 178.166C237.839 178.099 238.011 177.862 238.011 177.626ZM266.04 178.741C266.796 178.065 267.415 177.423 267.862 176.916C267.966 176.815 268 176.68 268 176.579V172.221C268 172.018 267.897 171.849 267.725 171.782L265.799 170.667C265.352 170.43 265.008 170.633 265.008 171.106V178.47C265.008 179.112 265.421 179.281 265.902 178.876C265.971 178.845 266.005 178.774 266.04 178.741ZM231.992 180.197V171.143C231.992 170.637 231.648 170.434 231.201 170.704L229.275 171.785C229.103 171.886 229 172.055 229 172.258V181.514C229 182.088 229.378 182.257 229.86 181.919C230.444 181.48 231.063 181.041 231.751 180.636C231.889 180.534 231.992 180.366 231.992 180.197ZM261.981 181.409V168.843C261.981 168.64 261.878 168.471 261.706 168.404L259.78 167.289C259.333 167.052 258.989 167.255 258.989 167.728V182.254C258.989 182.659 259.299 182.896 259.712 182.761C260.399 182.49 261.087 182.186 261.706 181.849C261.878 181.781 261.981 181.612 261.981 181.409ZM255.997 182.899V165.434C255.997 165.232 255.894 165.063 255.722 164.995L253.796 163.88C253.349 163.644 253.005 163.847 253.005 164.319V182.494C253.005 182.73 253.143 182.933 253.349 183C254.037 183.237 254.725 183.372 255.413 183.406C255.722 183.436 255.997 183.234 255.997 182.899ZM253.005 188.541V201.681C253.005 202.188 253.349 202.391 253.796 202.121L255.722 201.006C255.894 200.904 255.997 200.736 255.997 200.567V188.743C255.997 188.473 255.757 188.237 255.481 188.237C254.862 188.203 254.243 188.135 253.624 188.034C253.28 187.966 253.005 188.203 253.005 188.541ZM246.987 185.939V203.945C246.987 204.147 247.09 204.316 247.262 204.384L248.225 204.924C248.397 205.026 248.603 205.026 248.741 204.924L249.704 204.384C249.876 204.283 249.979 204.114 249.979 203.945V187.122C249.979 186.919 249.876 186.75 249.704 186.649C249.05 186.311 248.431 185.939 247.812 185.5C247.365 185.193 246.987 185.396 246.987 185.939ZM258.989 188.372V198.27C258.989 198.776 259.333 198.979 259.78 198.709L261.706 197.594C261.878 197.493 261.981 197.324 261.981 197.155V187.797C261.981 187.392 261.672 187.156 261.259 187.291C260.64 187.493 260.021 187.696 259.368 187.831C259.161 187.932 258.989 188.135 258.989 188.372ZM230.96 187.257C230.204 187.932 229.585 188.574 229.138 189.081C229.034 189.182 229 189.318 229 189.419V193.777C229 193.979 229.103 194.148 229.275 194.216L231.201 195.331C231.648 195.567 231.992 195.364 231.992 194.891V187.493C231.992 186.852 231.579 186.683 231.098 187.088C231.029 187.189 230.96 187.223 230.96 187.257ZM265.008 185.838V194.858C265.008 195.364 265.352 195.567 265.799 195.297L267.725 194.182C267.897 194.081 268 193.912 268 193.743V184.521C268 183.946 267.622 183.744 267.14 184.115C266.556 184.554 265.902 184.994 265.249 185.399C265.077 185.5 265.008 185.669 265.008 185.838ZM234.984 184.622V197.189C234.984 197.391 235.087 197.56 235.259 197.628L237.185 198.742C237.632 198.979 237.976 198.776 237.976 198.303V183.777C237.976 183.372 237.667 183.136 237.254 183.271C236.566 183.541 235.878 183.845 235.259 184.183C235.122 184.247 234.984 184.416 234.984 184.622ZM241.003 183.102V200.567C241.003 200.769 241.106 200.938 241.278 201.006L243.204 202.121C243.651 202.357 243.995 202.154 243.995 201.681V183.507C243.995 183.271 243.857 183.068 243.651 183C242.963 182.764 242.275 182.629 241.587 182.595C241.243 182.558 241.003 182.798 241.003 183.102Z" fill="#BE0104"/>
</g>
<rect x="106" y="8" width="100" height="10" rx="5" fill="#D0CDD8"/>
<g filter="url(#filter0_ddd)">
<rect x="100" y="66" width="520" height="42" rx="8" fill="white"/>
</g>
<path d="M146.608 93C149.307 93 150.528 91.6818 150.528 89.8864C150.528 88.1534 149.381 87.125 148.21 87.0227V86.9148C149.295 86.6364 150.148 85.9432 150.148 84.483C150.148 82.7273 148.938 81.3636 146.381 81.3636H142.222V93H146.608ZM144.023 82.9091H146.364C147.824 82.9091 148.398 83.6818 148.398 84.6023C148.398 85.7159 147.551 86.392 146.278 86.392H144.023V82.9091ZM148.79 89.7727C148.79 90.733 148.159 91.4545 146.54 91.4545H144.023V87.8068H146.614C148 87.8068 148.79 88.7102 148.79 89.7727ZM157.555 84.4489C157.283 84.2898 156.828 84.142 156.374 84.142C155.43 84.142 154.504 84.7841 154.254 85.6477H154.152V84.2727H152.425V93H154.175V88.0625C154.186 86.983 154.964 85.8295 156.214 85.8295C156.584 85.8295 156.862 85.9432 156.993 86.0114L157.555 84.4489ZM162.082 93.1761C164.509 93.1761 166.088 91.3523 166.088 88.6648C166.088 85.9716 164.509 84.1591 162.082 84.1591C159.651 84.1591 158.077 85.9716 158.077 88.6648C158.077 91.3523 159.651 93.1761 162.082 93.1761ZM162.082 91.6875C160.48 91.6875 159.781 90.3239 159.781 88.6648C159.781 87.0114 160.48 85.642 162.082 85.642C163.679 85.642 164.384 87.0114 164.384 88.6648C164.384 90.3239 163.679 91.6875 162.082 91.6875ZM178.786 84.2727H177.03L175.462 90.4602H175.365L173.683 84.2727H172.143L170.445 90.4886H170.348L168.786 84.2727H167.03L169.524 93H171.092L172.837 86.892H172.973L174.723 93H176.297L178.786 84.2727ZM186.651 86.4261C186.276 85.0057 185.247 84.1591 183.429 84.1591C181.423 84.1591 179.997 85.1989 179.997 86.7784C179.997 88 180.849 88.858 182.355 89.2273L183.844 89.5852C184.56 89.7557 185.009 90.0398 185.009 90.6193C185.009 91.25 184.321 91.7898 183.264 91.7898C182.168 91.7898 181.537 91.2102 181.27 90.4148L179.628 90.767C180.014 92.1193 181.094 93.1761 183.224 93.1761C185.395 93.1761 186.793 92.0398 186.793 90.483C186.793 89.2955 185.974 88.5 184.497 88.1591L183.048 87.8239C182.219 87.625 181.741 87.2216 181.741 86.6705C181.741 86.0114 182.469 85.5341 183.384 85.5341C184.491 85.5341 184.929 86.2273 185.065 86.6989L186.651 86.4261ZM192.416 93.1761C194.422 93.1761 195.649 92.0966 196.013 90.8409L194.399 90.3977C194.109 91.1818 193.473 91.6875 192.411 91.6875C190.979 91.6875 190.132 90.7898 189.996 89.1761H196.126V88.4432C196.126 85.4034 194.314 84.1591 192.303 84.1591C189.825 84.1591 188.28 86.0511 188.28 88.7273C188.28 91.4318 189.854 93.1761 192.416 93.1761ZM192.297 85.642C193.615 85.642 194.422 86.5852 194.422 87.8523H190.036C190.268 86.4489 191.104 85.642 192.297 85.642ZM206.362 84.2727H204.658V82.4091H202.908V84.2727H201.697V85.7045H202.908V90.767C202.908 92.3011 204.101 93.1136 205.322 93.1136C205.97 93.1136 206.396 92.9943 206.572 92.9261L206.26 91.4886C206.135 91.517 205.936 91.5568 205.686 91.5568C205.146 91.5568 204.658 91.4034 204.658 90.4205V85.7045H206.362V84.2727ZM209.94 87.9318C209.94 86.4318 210.849 85.7045 211.889 85.7045C212.912 85.7045 213.503 86.3636 213.503 87.4773V93H215.247V87.483C215.247 85.2727 214.094 84.1591 212.48 84.1591C211.281 84.1591 210.452 84.7443 210.003 85.4034H209.912V81.3636H208.19V93H209.94V87.9318ZM221.151 93.1761C223.156 93.1761 224.384 92.0966 224.747 90.8409L223.134 90.3977C222.844 91.1818 222.207 91.6875 221.145 91.6875C219.713 91.6875 218.866 90.7898 218.73 89.1761H224.861V88.4432C224.861 85.4034 223.048 84.1591 221.037 84.1591C218.56 84.1591 217.014 86.0511 217.014 88.7273C217.014 91.4318 218.588 93.1761 221.151 93.1761ZM221.031 85.642C222.349 85.642 223.156 86.5852 223.156 87.8523H218.77C219.003 86.4489 219.838 85.642 221.031 85.642ZM232.227 81.3636H230.489L233.602 93H235.449L237.812 84.358H237.903L240.267 93H242.114L245.222 81.3636H243.489L241.205 90.3182H241.102L238.767 81.3636H236.943L234.614 90.3125H234.506L232.227 81.3636ZM249.697 93.1761C251.703 93.1761 252.93 92.0966 253.294 90.8409L251.68 90.3977C251.391 91.1818 250.754 91.6875 249.692 91.6875C248.26 91.6875 247.413 90.7898 247.277 89.1761H253.408V88.4432C253.408 85.4034 251.595 84.1591 249.584 84.1591C247.107 84.1591 245.561 86.0511 245.561 88.7273C245.561 91.4318 247.135 93.1761 249.697 93.1761ZM249.578 85.642C250.896 85.642 251.703 86.5852 251.703 87.8523H247.317C247.55 86.4489 248.385 85.642 249.578 85.642ZM255.253 81.3636V93H256.963V91.8068H257.105C257.401 92.3409 258.031 93.1648 259.463 93.1648C261.537 93.1648 263.06 91.4886 263.06 88.6534C263.06 85.8068 261.509 84.1591 259.446 84.1591C257.997 84.1591 257.401 84.9943 257.105 85.5114H257.003V81.3636H255.253ZM261.361 88.6364C261.361 90.392 260.594 91.6875 259.094 91.6875C257.605 91.6875 256.889 90.4034 256.889 88.6364C256.889 86.8807 257.594 85.642 259.094 85.642C260.611 85.642 261.361 86.8977 261.361 88.6364ZM265.837 93.1136C266.467 93.1136 266.984 92.6023 266.984 91.9602C266.984 91.3409 266.467 90.8295 265.837 90.8295C265.217 90.8295 264.689 91.3239 264.689 91.9602C264.689 92.6023 265.2 93.1136 265.837 93.1136ZM275.362 87.9318C275.362 86.4318 276.271 85.7045 277.311 85.7045C278.334 85.7045 278.925 86.3636 278.925 87.4773V93H280.669V87.483C280.669 85.2727 279.516 84.1591 277.902 84.1591C276.703 84.1591 275.874 84.7443 275.425 85.4034H275.334V81.3636H273.612V93H275.362V87.9318ZM286.659 84.2727H284.955V82.4091H283.205V84.2727H281.994V85.7045H283.205V90.767C283.205 92.3011 284.398 93.1136 285.619 93.1136C286.267 93.1136 286.693 92.9943 286.869 92.9261L286.557 91.4886C286.432 91.517 286.233 91.5568 285.983 91.5568C285.443 91.5568 284.955 91.4034 284.955 90.4205V85.7045H286.659V84.2727ZM292.362 84.2727H290.658V82.4091H288.908V84.2727H287.697V85.7045H288.908V90.767C288.908 92.3011 290.101 93.1136 291.322 93.1136C291.97 93.1136 292.396 92.9943 292.572 92.9261L292.26 91.4886C292.135 91.517 291.936 91.5568 291.686 91.5568C291.146 91.5568 290.658 91.4034 290.658 90.4205V85.7045H292.362V84.2727ZM294.222 96.2727H295.972V91.8068H296.074C296.369 92.3409 297 93.1648 298.432 93.1648C300.506 93.1648 302.028 91.4886 302.028 88.6534C302.028 85.8068 300.477 84.1591 298.415 84.1591C296.966 84.1591 296.369 84.9943 296.074 85.5114H295.932V84.2727H294.222V96.2727ZM300.33 88.6364C300.33 90.392 299.562 91.6875 298.062 91.6875C296.574 91.6875 295.858 90.4034 295.858 88.6364C295.858 86.8807 296.562 85.642 298.062 85.642C299.58 85.642 300.33 86.8977 300.33 88.6364ZM315.395 93H317.401L315.747 91.0057C316.429 90.108 316.719 89.017 316.719 87.6818H315.162C315.162 88.4602 314.986 89.1477 314.69 89.7273L312.389 86.9602L313.19 86.3693C314.116 85.6818 314.724 84.8807 314.724 83.7841C314.724 82.4148 313.634 81.233 311.901 81.233C310.094 81.233 308.935 82.3295 308.935 84.142C308.935 85.0114 309.446 85.8182 310.185 86.7557C308.878 87.6648 307.98 88.5114 307.98 89.892C307.98 91.7955 309.389 93.1591 311.685 93.1591C312.776 93.1591 313.844 92.8352 314.679 92.1477L315.395 93ZM310.56 84.1023C310.56 83.3409 311.088 82.6932 311.895 82.6932C312.651 82.6932 313.151 83.3068 313.151 83.8466C313.151 84.5 312.827 84.9148 312.168 85.3466L311.469 85.8409C310.957 85.2045 310.56 84.625 310.56 84.1023ZM309.713 89.8409C309.713 89.4659 309.923 88.8125 310.793 88.1364L311.122 87.892L313.69 90.9659C313.111 91.4375 312.418 91.6932 311.736 91.6932C310.509 91.6932 309.713 90.8466 309.713 89.8409ZM325.159 88.0057C325.159 86.5 326.108 85.7045 327.102 85.7045C328.085 85.7045 328.801 86.4091 328.801 87.5739V93H330.545V87.483C330.545 85.1591 329.278 84.1591 327.693 84.1591C326.477 84.1591 325.619 84.767 325.182 85.5739H325.091V84.2727H323.409V93H325.159V88.0057ZM336.317 93.1761C338.743 93.1761 340.322 91.3523 340.322 88.6648C340.322 85.9716 338.743 84.1591 336.317 84.1591C333.885 84.1591 332.311 85.9716 332.311 88.6648C332.311 91.3523 333.885 93.1761 336.317 93.1761ZM336.317 91.6875C334.714 91.6875 334.016 90.3239 334.016 88.6648C334.016 87.0114 334.714 85.642 336.317 85.642C337.913 85.642 338.618 87.0114 338.618 88.6648C338.618 90.3239 337.913 91.6875 336.317 91.6875ZM348.604 86.4261C348.229 85.0057 347.2 84.1591 345.382 84.1591C343.376 84.1591 341.95 85.1989 341.95 86.7784C341.95 88 342.803 88.858 344.308 89.2273L345.797 89.5852C346.513 89.7557 346.962 90.0398 346.962 90.6193C346.962 91.25 346.274 91.7898 345.217 91.7898C344.121 91.7898 343.49 91.2102 343.223 90.4148L341.581 90.767C341.967 92.1193 343.047 93.1761 345.178 93.1761C347.348 93.1761 348.746 92.0398 348.746 90.483C348.746 89.2955 347.928 88.5 346.45 88.1591L345.001 87.8239C344.172 87.625 343.695 87.2216 343.695 86.6705C343.695 86.0114 344.422 85.5341 345.337 85.5341C346.445 85.5341 346.882 86.2273 347.018 86.6989L348.604 86.4261Z" fill="#968FA6"/>
<g clip-path="url(#clip2)">
<path d="M116.5 93C120.642 93 124 89.6421 124 85.5C124 81.3579 120.642 78 116.5 78C112.358 78 109 81.3579 109 85.5C109 89.6421 112.358 93 116.5 93Z" stroke="#968FA6" stroke-width="2" stroke-linecap="round" stroke-linejoin="round"/>
<path d="M127 96L121.8 90.8" stroke="#968FA6" stroke-width="2" stroke-linecap="round" stroke-linejoin="round"/>
</g>
</g>
<defs>
<filter id="filter0_ddd" x="82" y="48" width="616" height="138" filterUnits="userSpaceOnUse" color-interpolation-filters="sRGB">
<feFlood flood-opacity="0" result="BackgroundImageFix"/>
<feColorMatrix in="SourceAlpha" type="matrix" values="0 0 0 0 0 0 0 0 0 0 0 0 0 0 0 0 0 0 127 0"/>
<feOffset dx="6" dy="6"/>
<feGaussianBlur stdDeviation="6"/>
<feColorMatrix type="matrix" values="0 0 0 0 0.396078 0 0 0 0 0.34902 0 0 0 0 0.486275 0 0 0 0.06 0"/>
<feBlend mode="normal" in2="BackgroundImageFix" result="effect1_dropShadow"/>
<feColorMatrix in="SourceAlpha" type="matrix" values="0 0 0 0 0 0 0 0 0 0 0 0 0 0 0 0 0 0 127 0"/>
<feOffset dx="20" dy="20"/>
<feGaussianBlur stdDeviation="16"/>
<feColorMatrix type="matrix" values="0 0 0 0 0.394405 0 0 0 0 0.34925 0 0 0 0 0.484716 0 0 0 0.06 0"/>
<feBlend mode="normal" in2="effect1_dropShadow" result="effect2_dropShadow"/>
<feColorMatrix in="SourceAlpha" type="matrix" values="0 0 0 0 0 0 0 0 0 0 0 0 0 0 0 0 0 0 127 0"/>
<feOffset dx="30" dy="30"/>
<feGaussianBlur stdDeviation="24"/>
<feColorMatrix type="matrix" values="0 0 0 0 0.394405 0 0 0 0 0.34925 0 0 0 0 0.484716 0 0 0 0.06 0"/>
<feBlend mode="normal" in2="effect2_dropShadow" result="effect3_dropShadow"/>
<feBlend mode="normal" in="SourceGraphic" in2="effect3_dropShadow" result="shape"/>
</filter>
<linearGradient id="paint0_linear" x1="337.5" y1="306" x2="330.5" y2="205.5" gradientUnits="userSpaceOnUse">
<stop stop-color="#D0CDD8"/>
<stop offset="1" stop-color="#EDEBF3"/>
</linearGradient>
<linearGradient id="paint1_linear" x1="187.483" y1="209.996" x2="187.916" y2="263.239" gradientUnits="userSpaceOnUse">
<stop stop-color="#B9B5C5"/>
<stop offset="1" stop-color="#D0CDD8" stop-opacity="0.5"/>
</linearGradient>
<linearGradient id="paint2_linear" x1="137.011" y1="102.19" x2="185.587" y2="254.023" gradientUnits="userSpaceOnUse">
<stop stop-color="#B9B5C5"/>
<stop offset="1" stop-color="#D0CDD8" stop-opacity="0.5"/>
</linearGradient>
<linearGradient id="paint3_linear" x1="117.654" y1="118.568" x2="181.299" y2="264.726" gradientUnits="userSpaceOnUse">
<stop stop-color="#B9B5C5"/>
<stop offset="1" stop-color="#D0CDD8" stop-opacity="0.5"/>
</linearGradient>
<linearGradient id="paint4_linear" x1="143.707" y1="112" x2="183.943" y2="266.253" gradientUnits="userSpaceOnUse">
<stop stop-color="#B9B5C5"/>
<stop offset="1" stop-color="#D0CDD8" stop-opacity="0.5"/>
</linearGradient>
<linearGradient id="paint5_linear" x1="61.0349" y1="350.318" x2="105.924" y2="316.576" gradientUnits="userSpaceOnUse">
<stop stop-color="#B9B5C5"/>
<stop offset="1" stop-color="#D0CDD8" stop-opacity="0.5"/>
</linearGradient>
<linearGradient id="paint6_linear" x1="513.156" y1="267.779" x2="574.84" y2="363.741" gradientUnits="userSpaceOnUse">
<stop stop-color="#B9B5C5"/>
<stop offset="1" stop-color="#D0CDD8" stop-opacity="0.5"/>
</linearGradient>
<linearGradient id="paint7_linear" x1="544.679" y1="264.834" x2="571.067" y2="348.615" gradientUnits="userSpaceOnUse">
<stop stop-color="#B9B5C5"/>
<stop offset="1" stop-color="#D0CDD8" stop-opacity="0.5"/>
</linearGradient>
<linearGradient id="paint8_linear" x1="574.169" y1="281.104" x2="551.543" y2="352.942" gradientUnits="userSpaceOnUse">
<stop stop-color="#B9B5C5"/>
<stop offset="1" stop-color="#D0CDD8" stop-opacity="0.5"/>
</linearGradient>
<linearGradient id="paint9_linear" x1="589.146" y1="310.998" x2="560.97" y2="356.718" gradientUnits="userSpaceOnUse">
<stop stop-color="#B9B5C5"/>
<stop offset="1" stop-color="#D0CDD8" stop-opacity="0.5"/>
</linearGradient>
<linearGradient id="paint10_linear" x1="511.139" y1="308.598" x2="534.368" y2="360.628" gradientUnits="userSpaceOnUse">
<stop stop-color="#B9B5C5"/>
<stop offset="1" stop-color="#D0CDD8" stop-opacity="0.5"/>
</linearGradient>
<linearGradient id="paint11_linear" x1="503.207" y1="332.86" x2="513.277" y2="360.702" gradientUnits="userSpaceOnUse">
<stop stop-color="#B9B5C5"/>
<stop offset="1" stop-color="#D0CDD8" stop-opacity="0.5"/>
</linearGradient>
<linearGradient id="paint12_linear" x1="238" y1="356.001" x2="229.5" y2="309.001" gradientUnits="userSpaceOnUse">
<stop stop-color="#D0CDD8"/>
<stop offset="1" stop-color="#D0CDD8" stop-opacity="0"/>
</linearGradient>
<linearGradient id="paint13_linear" x1="30" y1="350" x2="-141.605" y2="209.304" gradientUnits="userSpaceOnUse">
<stop stop-color="#EFECF4"/>
<stop offset="1" stop-color="#E9E6EF"/>
</linearGradient>
<linearGradient id="paint14_linear" x1="115" y1="204" x2="157" y2="204" gradientUnits="userSpaceOnUse">
<stop stop-color="#B9D532"/>
<stop offset="1" stop-color="#5BBA47"/>
</linearGradient>
<linearGradient id="paint15_linear" x1="360" y1="147" x2="360" y2="219" gradientUnits="userSpaceOnUse">
<stop stop-color="white"/>
<stop offset="0.546961" stop-color="#DA3D50"/>
<stop offset="0.80663" stop-color="#F16830"/>
<stop offset="1" stop-color="#F5A63D"/>
</linearGradient>
<clipPath id="clip0">
<rect width="660" height="350" fill="white"/>
</clipPath>
<clipPath id="clip1">
<rect width="39" height="44" fill="white" transform="translate(229 161)"/>
</clipPath>
<clipPath id="clip2">
<rect width="20" height="20" fill="white" transform="translate(108 77)"/>
</clipPath>
</defs>
</svg>
