<svg width="32" height="32" viewBox="0 0 32 32" fill="none" xmlns="http://www.w3.org/2000/svg">
<circle cx="16" cy="16" r="16" fill="white"/>
<path fill-rule="evenodd" clip-rule="evenodd" d="M4 16C4 9.37256 9.37256 4 16 4C22.6274 4 28 9.37256 28 16C28 22.6273 22.6274 28 16 28C9.37256 28 4 22.6273 4 16ZM7 16C7 20.9707 11.0293 25 16 25C20.9707 25 25 20.9707 25 16C25 11.0294 20.9707 7 16 7C11.0293 7 7 11.0294 7 16Z" fill="url(#paint0_linear)"/>
<defs>
<linearGradient id="paint0_linear" x1="3.99999" y1="28" x2="28" y2="28" gradientUnits="userSpaceOnUse">
<stop stop-color="#B9D532"/>
<stop offset="1" stop-color="#5BBA47"/>
</linearGradient>
</defs>
</svg>
