<svg width="50" height="50" viewBox="0 0 50 50" fill="none" xmlns="http://www.w3.org/2000/svg">
<path d="M50 25C50 38.8071 38.8071 50 25 50C11.1929 50 0 38.8071 0 25C0 11.1929 11.1929 0 25 0C38.8071 0 50 11.1929 50 25Z" fill="black"/>
<path d="M50 25C50 38.8071 38.8071 50 25 50C11.1929 50 0 38.8071 0 25C0 11.1929 11.1929 0 25 0C38.8071 0 50 11.1929 50 25Z" fill="url(#paint0_linear)"/>
<path d="M20.7812 34.7295L21.1851 28.8561L32.2639 19.2475C32.7544 18.8171 32.163 18.6088 31.5138 18.9837L17.8384 27.301L11.9239 25.4959C10.6545 25.1487 10.64 24.3018 12.2124 23.6908L35.25 15.1375C36.3031 14.6793 37.3129 15.3875 36.909 16.9426L32.9852 34.7295C32.7111 35.9931 31.9177 36.2985 30.8214 35.7154L24.8492 31.4665L21.9785 34.1463C21.6467 34.4657 21.3727 34.7295 20.7812 34.7295Z" fill="white"/>
<defs>
<linearGradient id="paint0_linear" x1="25" y1="50" x2="25" y2="0" gradientUnits="userSpaceOnUse">
<stop stop-color="#6762F4"/>
<stop offset="1" stop-color="#60BFFB"/>
</linearGradient>
</defs>
</svg>
