<svg width="50" height="50" viewBox="0 0 50 50" fill="none" xmlns="http://www.w3.org/2000/svg">
<path d="M25 0C11.1927 0 0 11.1927 0 25C0 38.8073 11.1927 50 25 50C38.8073 50 50 38.8073 50 25C50 11.1927 38.8073 0 25 0Z" fill="black"/>
<path d="M25 0C11.1927 0 0 11.1927 0 25C0 38.8073 11.1927 50 25 50C38.8073 50 50 38.8073 50 25C50 11.1927 38.8073 0 25 0Z" fill="url(#paint0_linear)"/>
<path d="M25 0C11.1927 0 0 11.1927 0 25C0 38.8073 11.1927 50 25 50C38.8073 50 50 38.8073 50 25C50 11.1927 38.8073 0 25 0Z" fill="url(#paint1_linear)"/>
<path d="M37.0032 15.012C35.9583 15.8025 34.8015 16.4072 33.5773 16.8026C32.2313 15.1426 30.0623 14.5604 28.1461 15.3449C26.2299 16.1294 24.9741 18.1137 25.0016 20.3135V21.4839C21.1072 21.5922 17.421 19.602 15.1821 16.1823C15.1821 16.1823 10.8179 26.7152 20.6374 31.3964C18.3904 33.0325 15.7136 33.8528 13 33.737C22.8195 39.5886 34.8211 33.737 34.8211 20.2784C34.82 19.9524 34.7908 19.6273 34.7338 19.3071C35.8473 18.1291 36.6331 16.6419 37.0032 15.012Z" fill="white"/>
<defs>
<linearGradient id="paint0_linear" x1="21.3095" y1="1.13296e-06" x2="21.3095" y2="50" gradientUnits="userSpaceOnUse">
<stop stop-color="#B9D532"/>
<stop offset="1" stop-color="#5BBA47"/>
</linearGradient>
<linearGradient id="paint1_linear" x1="25" y1="50" x2="25" y2="0" gradientUnits="userSpaceOnUse">
<stop stop-color="#6762F4"/>
<stop offset="1" stop-color="#60BFFB"/>
</linearGradient>
</defs>
</svg>
