<svg width="32" height="32" viewBox="0 0 32 32" fill="none" xmlns="http://www.w3.org/2000/svg">
<circle cx="16" cy="16" r="16" fill="white"/>
<path d="M8 18H13L15.62 24.9867C15.8039 25.477 15.4414 26 14.9177 26H12.0395C11.4142 26 10.8546 25.6121 10.635 25.0267L8 18Z" fill="url(#paint0_linear)"/>
<path d="M25 6C23.0934 7.61768 17.9279 11 12.52 11H12V18H12.52C17.9279 18 23.0934 21.3823 25 23V6Z" stroke="url(#paint1_linear)" stroke-width="2" stroke-linejoin="round"/>
<path d="M20.5 9L20.5 20" stroke="url(#paint2_linear)"/>
<path d="M5 11C5 10.4478 5.44775 10 6 10H12V19H6C5.44775 19 5 18.5522 5 18V17H6C6.55225 17 7 16.5522 7 16C7 15.4478 6.55225 15 6 15H5.5C5.22386 15 5 14.7761 5 14.5C5 14.2239 5.22386 14 5.5 14H6C6.55225 14 7 13.5522 7 13C7 12.4478 6.55225 12 6 12H5V11Z" fill="url(#paint3_linear)"/>
<defs>
<linearGradient id="paint0_linear" x1="11.4095" y1="18" x2="11.4095" y2="26" gradientUnits="userSpaceOnUse">
<stop stop-color="#B9D532"/>
<stop offset="1" stop-color="#5BBA47"/>
</linearGradient>
<linearGradient id="paint1_linear" x1="17.5405" y1="6" x2="17.5405" y2="23" gradientUnits="userSpaceOnUse">
<stop stop-color="#B9D532"/>
<stop offset="1" stop-color="#5BBA47"/>
</linearGradient>
<linearGradient id="paint2_linear" x1="28" y1="13.6881" x2="28" y2="18.5" gradientUnits="userSpaceOnUse">
<stop stop-color="#B9D532"/>
<stop offset="1" stop-color="#5BBA47"/>
</linearGradient>
<linearGradient id="paint3_linear" x1="7.40952" y1="10" x2="7.40952" y2="19" gradientUnits="userSpaceOnUse">
<stop stop-color="#B9D532"/>
<stop offset="1" stop-color="#5BBA47"/>
</linearGradient>
</defs>
</svg>
