<svg width="70" height="70" viewBox="0 0 70 70" fill="none" xmlns="http://www.w3.org/2000/svg">
<circle cx="35" cy="35" r="35" fill="url(#paint0_linear)"/>
<g opacity="0.8">
<circle cx="35" cy="35" r="22" fill="url(#paint1_linear)" fill-opacity="0.4"/>
<path opacity="0.9" fill-rule="evenodd" clip-rule="evenodd" d="M45.5085 15.5889L44.2161 18.9563L45.207 21.9355L49.1709 20.9424L49.6665 22.4319C48.1799 23.5906 45.6035 26.7021 47.189 29.8799C48.7747 33.0576 51.4834 33.1902 52.6394 32.8591C53.9607 34.3486 56.207 38.3208 54.6213 42.293C53.9216 44.0464 53.7107 45.4126 53.7505 46.4348C52.457 48.5369 50.8201 50.405 48.9175 51.9607L47.6846 49.8938L43.2251 48.8938L32.8108 52.3765L31.8198 53.866L31.3538 56.6208C20.9387 54.8838 13 45.8296 13 34.9216C13 32.6958 13.3306 30.5471 13.9453 28.522L21.9189 29.3833C23.0752 29.5488 25.3875 30.2771 25.3875 31.866C25.3875 32.6108 24.9692 33.1462 24.5513 33.6816C23.8545 34.5737 23.1577 35.4658 24.3965 37.3279C25.3191 38.7146 26.0269 39.2407 26.52 39.6072C27.0862 40.0281 27.3694 40.2385 27.3694 41.3C27.3694 41.8525 27.3296 42.3684 27.2913 42.8623C27.2195 43.7886 27.1538 44.6365 27.3694 45.5L42.3333 47.3972L44.3152 46.4043L43.8198 43.2722C43.6545 41.4517 44.2161 37.5125 47.7837 36.3208C52.2432 34.8313 44.1804 28.3904 35.5 32.8591C32.1804 34.3486 26.1804 26 28.3604 23.425L28.5811 23.2788C30.3757 22.0942 36.8313 17.8323 36.8689 13C39.9778 13.2615 42.9026 14.1694 45.5085 15.5889Z" fill="url(#paint2_linear)"/>
</g>
<path d="M16.5752 54.3848C19.3089 57.1184 29.7565 51.1029 39.9107 40.9487C49 31.5 51.6125 25.922 54 22.5" stroke="url(#paint3_linear)" stroke-opacity="0.7" stroke-width="2" stroke-linecap="round" stroke-linejoin="bevel"/>
<path d="M30.0112 31.0493C20.2685 40.7921 14.3358 50.805 16.2856 54.0151" stroke="url(#paint4_linear)" stroke-opacity="0.7" stroke-width="2" stroke-linejoin="bevel"/>
<defs>
<linearGradient id="paint0_linear" x1="-3.28907e-05" y1="70" x2="70" y2="70" gradientUnits="userSpaceOnUse">
<stop stop-color="#B9D532"/>
<stop offset="1" stop-color="#5BBA47"/>
</linearGradient>
<linearGradient id="paint1_linear" x1="44.625" y1="14.8333" x2="20.3333" y2="54.25" gradientUnits="userSpaceOnUse">
<stop stop-color="white"/>
<stop offset="1" stop-color="white" stop-opacity="0.6"/>
</linearGradient>
<linearGradient id="paint2_linear" x1="39.7934" y1="15.9719" x2="16.1224" y2="54.1966" gradientUnits="userSpaceOnUse">
<stop stop-color="white"/>
<stop offset="1" stop-color="white" stop-opacity="0.6"/>
</linearGradient>
<linearGradient id="paint3_linear" x1="57.1441" y1="13.1795" x2="66.714" y2="45.1462" gradientUnits="userSpaceOnUse">
<stop offset="0.0185214" stop-color="white" stop-opacity="0.25"/>
<stop offset="0.15392" stop-color="white"/>
<stop offset="0.839779" stop-color="white"/>
<stop offset="1" stop-color="white" stop-opacity="0.25"/>
</linearGradient>
<linearGradient id="paint4_linear" x1="30.5" y1="32.5" x2="35.4216" y2="47.2188" gradientUnits="userSpaceOnUse">
<stop stop-color="white" stop-opacity="0"/>
<stop offset="1" stop-color="white"/>
</linearGradient>
</defs>
</svg>
