<svg width="24" height="24" viewBox="0 0 24 24" fill="none" xmlns="http://www.w3.org/2000/svg">
<g clip-path="url(#clip0)">
<path d="M9.57747 17.4085V6.59155L16.7887 12L9.57747 17.4085ZM12 0C8.58216 0.0751174 5.74648 1.23944 3.49296 3.49296C1.23944 5.74648 0.0751174 8.58216 0 12C0.0751174 15.4178 1.23944 18.2535 3.49296 20.507C5.74648 22.7606 8.58216 23.9249 12 24C15.4178 23.9249 18.2535 22.7606 20.507 20.507C22.7606 18.2535 23.9249 15.4178 24 12C23.9249 8.58216 22.7606 5.74648 20.507 3.49296C18.2535 1.23944 15.4178 0.0751174 12 0Z" fill="white"/>
</g>
<defs>
<clipPath id="clip0">
<rect width="24" height="24" fill="white"/>
</clipPath>
</defs>
</svg>
