<svg width="70" height="70" viewBox="0 0 70 70" fill="none" xmlns="http://www.w3.org/2000/svg">
<circle cx="35" cy="35" r="35" fill="url(#paint0_linear)"/>
<path opacity="0.5" d="M17 26H47V23C47 20.7909 45.2091 19 43 19H20C18.3431 19 17 20.3431 17 22V26Z" fill="url(#paint1_linear)"/>
<path opacity="0.5" d="M17 26H49C49 23.7909 47.2091 22 45 22H17V26Z" fill="url(#paint2_linear)"/>
<path fill-rule="evenodd" clip-rule="evenodd" d="M17 23V26V46C17 48.209 18.7908 50 21 50H49C51.2092 50 53 48.209 53 46V42H44C41.7908 42 40 40.209 40 38C40 35.791 41.7908 34 44 34H53V30C53 27.791 51.2092 26 49 26H20C18.3433 26 17 24.6567 17 23Z" fill="url(#paint3_linear)"/>
<path opacity="0.5" d="M40 38C40 35.7909 41.7909 34 44 34H53V42H44C41.7909 42 40 40.2091 40 38Z" fill="url(#paint4_linear)"/>
<circle cx="44" cy="38" r="2" fill="url(#paint5_linear)"/>
<defs>
<linearGradient id="paint0_linear" x1="-3.28907e-05" y1="70" x2="70" y2="70" gradientUnits="userSpaceOnUse">
<stop stop-color="#A5AFFB"/>
<stop offset="1" stop-color="#6979F8"/>
</linearGradient>
<linearGradient id="paint1_linear" x1="47" y1="19" x2="42.7465" y2="8.53515" gradientUnits="userSpaceOnUse">
<stop stop-color="white"/>
<stop offset="1" stop-color="white" stop-opacity="0.6"/>
</linearGradient>
<linearGradient id="paint2_linear" x1="40" y1="22" x2="39.1852" y2="18.258" gradientUnits="userSpaceOnUse">
<stop stop-color="white"/>
<stop offset="1" stop-color="white" stop-opacity="0.4"/>
</linearGradient>
<linearGradient id="paint3_linear" x1="33" y1="28" x2="27.7914" y2="50.3658" gradientUnits="userSpaceOnUse">
<stop stop-color="white"/>
<stop offset="1" stop-color="white" stop-opacity="0.6"/>
</linearGradient>
<linearGradient id="paint4_linear" x1="48.2604" y1="34.6667" x2="45.5651" y2="42.6477" gradientUnits="userSpaceOnUse">
<stop stop-color="white"/>
<stop offset="1" stop-color="white" stop-opacity="0.6"/>
</linearGradient>
<linearGradient id="paint5_linear" x1="44.5417" y1="36.3333" x2="42.6667" y2="39.75" gradientUnits="userSpaceOnUse">
<stop stop-color="white"/>
<stop offset="1" stop-color="white" stop-opacity="0.6"/>
</linearGradient>
</defs>
</svg>
