<svg width="28" height="24" viewBox="0 0 28 24" fill="none" xmlns="http://www.w3.org/2000/svg">
<path d="M27.9343 4.33655L19.4554 18.1871L13.4085 8.29387L18.2066 0.445197C18.5133 0.0494657 18.8858 -0.0824436 19.3239 0.0494662L27.9343 4.33655ZM28 22.87C28 23.2657 27.8576 23.5295 27.5728 23.6614C27.288 23.7933 26.9264 23.7494 26.4883 23.5295L19.8498 20.2318L28 6.84285V22.87ZM9.79343 23.0678C9.79343 23.4636 9.66197 23.7384 9.39906 23.8923C9.13615 24.0462 8.82942 24.0352 8.47887 23.8593L0.723004 20.0339C0.503913 19.902 0.328639 19.7151 0.197183 19.4733C0.065728 19.2314 0 19.0006 0 18.7807V0.840929C0.043819 0.181377 0.372457 -0.016489 0.985916 0.247332L9.39906 4.40251L9.79343 5.06206V23.0678ZM18.6009 19.5722L11.1737 15.8787V7.43645L18.6009 19.5722Z" fill="url(#paint0_linear)"/>
<defs>
<linearGradient id="paint0_linear" x1="11.9333" y1="5.43821e-07" x2="11.9333" y2="24" gradientUnits="userSpaceOnUse">
<stop stop-color="#B9D532"/>
<stop offset="1" stop-color="#5BBA47"/>
</linearGradient>
</defs>
</svg>
