<svg width="99" height="60" viewBox="0 0 99 60" fill="none" xmlns="http://www.w3.org/2000/svg">
<path fill-rule="evenodd" clip-rule="evenodd" d="M0 30.0001C0 13.4315 13.3809 0 29.8876 0C46.3943 0 59.7753 13.4315 59.7753 30.0001C59.7753 46.5684 46.3943 60 29.8876 60C13.3809 60 0 46.5684 0 30.0001ZM7.47205 30.0001C7.47205 42.4267 17.5075 52.4999 29.8878 52.4999C42.2679 52.4999 52.3034 42.4268 52.3034 30.0001C52.3034 17.5734 42.2679 7.49995 29.8878 7.49995C17.5075 7.49995 7.47205 17.5735 7.47205 30.0001Z" fill="url(#paint0_linear)"/>
<path d="M71.441 37.0903V30.5976C71.441 29.5908 71.227 28.8586 70.7992 28.4012C70.3713 27.9439 69.7077 27.7152 68.8087 27.7152C67.5995 27.7152 66.7143 28.0177 66.1531 28.6223C65.5918 29.227 65.3112 30.2079 65.3112 31.5647V37.0903H64.3904V27.0797H65.1717L65.3485 28.4519H65.4043C66.0615 27.4082 67.2304 26.8862 68.911 26.8862C71.2053 26.8862 72.3526 28.105 72.3526 30.5424V37.0903H71.441V37.0903Z" fill="#1E1B53"/>
<path fill-rule="evenodd" clip-rule="evenodd" d="M86.1422 35.4512C87.2491 34.2356 87.8025 32.5318 87.8025 30.3399C87.8025 28.142 87.2505 26.4383 86.1468 25.2287C85.043 24.0193 83.4803 23.4146 81.4588 23.4146C79.4062 23.4146 77.8266 24.01 76.7197 25.2011C75.6128 26.3923 75.0593 28.0991 75.0593 30.3216C75.0593 32.5442 75.6097 34.2585 76.7104 35.465C77.811 36.6714 79.3877 37.2746 81.4403 37.2746C83.4681 37.2746 85.0354 36.6668 86.1422 35.4512ZM78.4359 34.111C77.76 33.2545 77.422 31.9975 77.422 30.3397C77.422 28.6882 77.7616 27.4358 78.4405 26.5823C79.1196 25.7288 80.1256 25.302 81.4589 25.302C82.7797 25.302 83.7734 25.7289 84.4401 26.5823C85.1066 27.4357 85.44 28.6882 85.44 30.3396C85.44 32.0158 85.1037 33.2775 84.4308 34.1248C83.7579 34.9721 82.7612 35.3957 81.4404 35.3957C80.1132 35.3957 79.1117 34.9675 78.4359 34.111Z" fill="#1E1B53"/>
<path d="M98.5645 33.434C98.5645 34.6313 98.1272 35.5707 97.2529 36.2521C96.3786 36.9336 95.1723 37.2743 93.6346 37.2743C92.0967 37.2743 90.8379 37.038 89.8582 36.5652V34.4839C90.4781 34.7726 91.1372 34.9996 91.8347 35.1654C92.5323 35.3313 93.1819 35.4142 93.7833 35.4142C94.6638 35.4142 95.3135 35.2484 95.732 34.9169C96.1506 34.5853 96.3599 34.1403 96.3599 33.5815C96.3599 33.0781 96.1676 32.6514 95.7832 32.3014C95.3987 31.9515 94.605 31.537 93.402 31.0581C92.1616 30.5608 91.2872 29.993 90.7789 29.3543C90.2703 28.7158 90.0163 27.9484 90.0163 27.052C90.0163 25.9284 90.4193 25.0443 91.2254 24.3997C92.0314 23.755 93.1136 23.4326 94.4717 23.4326C95.774 23.4326 97.0699 23.7151 98.3598 24.2799L97.6528 26.0757C96.4437 25.5724 95.3647 25.3207 94.4159 25.3207C93.6965 25.3207 93.1508 25.4758 92.7788 25.7857C92.4067 26.0959 92.2207 26.5057 92.2207 27.0153C92.2207 27.3652 92.2951 27.6645 92.444 27.9132C92.5928 28.1619 92.8377 28.3967 93.1789 28.6178C93.5198 28.8388 94.1337 29.1305 95.0206 29.4926C96.0189 29.904 96.7507 30.2878 97.2158 30.6438C97.6809 31 98.0217 31.4022 98.239 31.8503C98.4558 32.2984 98.5645 32.8263 98.5645 33.434Z" fill="#1E1B53"/>
<defs>
<linearGradient id="paint0_linear" x1="53.0488" y1="8.78049" x2="10.2439" y2="51.5854" gradientUnits="userSpaceOnUse">
<stop stop-color="#A5AFFB"/>
<stop offset="1" stop-color="#6979F8"/>
</linearGradient>
</defs>
</svg>
