<svg width="70" height="70" viewBox="0 0 70 70" fill="none" xmlns="http://www.w3.org/2000/svg">
<circle cx="35" cy="35" r="35" fill="url(#paint0_linear)"/>
<mask id="mask0" mask-type="alpha" maskUnits="userSpaceOnUse" x="0" y="0" width="70" height="70">
<circle cx="35" cy="35" r="35" fill="black"/>
</mask>
<g mask="url(#mask0)">
<path d="M35.6035 51.759L42.8244 47.4032C44.4971 46.3929 45.3915 48.3307 44.3812 48.8937L38.7337 52.0073L35.6035 51.759Z" fill="white"/>
<path d="M35.6035 51.759L42.8244 47.4032C44.4971 46.3929 45.3915 48.3307 44.3812 48.8937L38.7337 52.0073L35.6035 51.759Z" fill="#F96B8D" fill-opacity="0.6"/>
<path d="M38.7671 51.361L46.518 46.5913C48.3398 45.4651 49.3004 47.7506 48.3068 48.3302L42.9905 51.4438L38.7672 51.3775V51.361H38.7671Z" fill="white"/>
<path d="M38.7671 51.361L46.518 46.5913C48.3398 45.4651 49.3004 47.7506 48.3068 48.3302L42.9905 51.4438L38.7672 51.3775V51.361H38.7671Z" fill="#F96B8D" fill-opacity="0.3"/>
<path d="M20.0359 53.0175L5.32912 56.3795C3.10992 53.0009 1.43709 49.2249 0.459961 45.1839L18.8269 43.9749C21.7749 43.5609 24.491 43.5774 25.7 44.2399C27.8364 45.4323 27.6046 48.0325 32.4903 49.3906L39.4627 50.5995L50.6584 47.8503C52.7121 47.486 53.126 49.7881 51.7681 50.3346L36.73 55.6675C34.7096 56.3795 29.8404 54.7398 20.0359 53.0175Z" fill="white"/>
<path d="M20.0359 53.0175L5.32912 56.3795C3.10992 53.0009 1.43709 49.2249 0.459961 45.1839L18.8269 43.9749C21.7749 43.5609 24.491 43.5774 25.7 44.2399C27.8364 45.4323 27.6046 48.0325 32.4903 49.3906L39.4627 50.5995L50.6584 47.8503C52.7121 47.486 53.126 49.7881 51.7681 50.3346L36.73 55.6675C34.7096 56.3795 29.8404 54.7398 20.0359 53.0175Z" fill="url(#paint1_linear)"/>
<path d="M33.5 54.5C38 54.5 42 51.3333 42 50L24 50.5C24.6667 51.6111 26.7 54.5 33.5 54.5Z" fill="url(#paint2_linear)"/>
<path d="M41.6815 50.0532C42.4434 50.8647 40.9197 51.3119 38.7502 51.7757C37.1934 52.1069 35.1066 52.5043 34.0963 52.7528C32.1421 52.8191 27.1239 51.6266 23.5962 50.3348C25.4014 50.3017 32.9535 52.554 34.1459 52.3222C35.3384 52.0904 41.0521 50.5832 41.4331 50.3679C41.8139 50.1525 41.6318 50.1856 41.6815 50.0532Z" fill="url(#paint3_linear)"/>
<path d="M12.3511 43.0305L14.322 57.6213L7.15075 58.8801C3.75561 54.6072 1.33759 49.5227 0.211426 43.9745L12.3511 43.0305Z" fill="url(#paint4_linear)"/>
<path d="M15.001 43.1304L16.9222 56.8103L14.2723 57.1581L12.3511 43.4616L15.001 43.1304Z" fill="url(#paint5_linear)"/>
<path d="M13.0305 55.6346C13.0967 56.1811 12.7324 56.678 12.2024 56.7443C11.6724 56.8105 11.1756 56.4296 11.1093 55.883C11.0431 55.3365 11.4074 54.8396 11.9374 54.7734C12.4674 54.7071 12.9642 55.0881 13.0305 55.6346Z" fill="url(#paint6_linear)" style="mix-blend-mode:multiply"/>
<path d="M23.8621 43.7592C27.5222 43.1796 29.9569 45.3326 31.7952 47.9162L35.1241 48.6947C35.1241 48.6947 38.2377 48.0156 39.9105 48.529C41.5667 49.0424 42.0801 50.3838 41.4341 50.7482C40.7882 51.1125 35.3394 52.0732 34.147 52.305C32.938 52.5368 26.1476 51.129 23.6137 50.3341C21.0798 49.5556 19.5893 44.6699 23.8621 43.7425V43.7592Z" fill="white"/>
<path d="M39.0483 51.1793L41.3006 50.6824C41.4828 50.6492 41.3338 49.7715 40.9032 49.5893C40.4725 49.4237 38.6011 49.8047 38.6011 49.8047C38.7501 50.1194 38.9985 50.6824 39.0317 51.1628L39.0483 51.1793Z" fill="white"/>
<path d="M35.9512 29.2352L40.8535 28.8542C41.549 28.8046 43.404 27.6453 43.404 27.6453L41.6319 24.6641L37.0609 24.1176L33.5332 27.3637L32.1751 30.1461C31.3636 31.6034 28.6971 31.322 29.3431 29.467L30.8834 24.8132C30.8834 24.8132 34.7422 20.6562 36.1665 20.0765C37.5907 19.4969 47.6106 19 47.6106 19C47.6106 19 55.8087 23.4717 58.856 25.4094L68.528 25.2769C69.4389 27.9267 70.0516 30.7091 70.3167 33.5908L58.1273 33.3093C58.1273 33.3093 50.3763 34.8164 47.743 34.4354C45.0932 34.0544 41.433 32.9118 41.433 32.9118C41.433 32.9118 36.8123 32.9946 35.5039 32.3984C33.6491 31.7525 33.7981 29.4007 35.9677 29.2351H35.9512V29.2352Z" fill="white"/>
<path d="M35.9512 29.2352L40.8535 28.8542C41.549 28.8046 43.404 27.6453 43.404 27.6453L41.6319 24.6641L37.0609 24.1176L33.5332 27.3637L32.1751 30.1461C31.3636 31.6034 28.6971 31.322 29.3431 29.467L30.8834 24.8132C30.8834 24.8132 34.7422 20.6562 36.1665 20.0765C37.5907 19.4969 47.6106 19 47.6106 19C47.6106 19 55.8087 23.4717 58.856 25.4094L68.528 25.2769C69.4389 27.9267 70.0516 30.7091 70.3167 33.5908L58.1273 33.3093C58.1273 33.3093 50.3763 34.8164 47.743 34.4354C45.0932 34.0544 41.433 32.9118 41.433 32.9118C41.433 32.9118 36.8123 32.9946 35.5039 32.3984C33.6491 31.7525 33.7981 29.4007 35.9677 29.2351H35.9512V29.2352Z" fill="url(#paint7_linear)"/>
<path d="M29.4101 28.9037C29.4929 28.9368 29.9401 29.119 29.9401 29.119L29.493 30.4771C29.493 30.4771 28.963 30.7256 29.0459 30.1459C29.1287 29.5663 29.4103 28.8872 29.4103 28.8872V28.9037H29.4101Z" fill="white"/>
<path d="M37.4581 29.1686C37.4084 28.9533 37.3587 28.738 37.2924 28.5227C36.9777 27.5456 36.4478 26.6678 35.7688 25.939C34.5267 24.6307 32.7876 23.8191 30.85 23.8191C27.107 23.8191 24.0762 26.8499 24.0762 30.5929C24.0762 34.3358 27.107 37.3666 30.85 37.3666C33.1686 37.3666 35.2222 36.2073 36.4313 34.4186C36.8951 33.7562 37.2263 33.0109 37.4251 32.1994C37.4747 32.0006 37.5078 31.8019 37.541 31.6031C37.5906 31.2719 37.6237 30.9241 37.6237 30.5764C37.6237 30.0795 37.5741 29.5992 37.4747 29.1355L37.4581 29.1686Z" fill="#FFE356"/>
<path d="M37.1437 29.2351C37.094 29.0363 37.0442 28.8211 36.978 28.6223C36.6799 27.6948 36.183 26.8667 35.5206 26.1712C34.3447 24.9291 32.672 24.1506 30.8336 24.1506C27.2728 24.1506 24.3745 27.0489 24.3745 30.6097C24.3745 34.1705 27.2728 37.0688 30.8336 37.0688C33.0363 37.0688 34.9906 35.9591 36.1499 34.2698C36.5805 33.6405 36.9117 32.9283 37.0939 32.1499C37.1435 31.9677 37.1767 31.7689 37.2098 31.5702C37.2594 31.2555 37.2761 30.9243 37.2761 30.5931C37.2761 30.1128 37.2264 29.6656 37.127 29.2185L37.1437 29.2351Z" fill="#FCD34E"/>
<path d="M30.8336 25.5583C28.0512 25.5583 25.7822 27.8107 25.7822 30.6097C25.7822 33.392 28.0512 35.661 30.8336 35.661C33.6159 35.661 35.8849 33.392 35.8849 30.6097C35.8849 27.8273 33.6326 25.5583 30.8336 25.5583ZM30.8336 26.1878C33.2681 26.1878 35.2555 28.1752 35.2555 30.6097C35.2555 33.0442 33.2681 35.0316 30.8336 35.0316C28.3991 35.0316 26.4117 33.0442 26.4117 30.6097C26.4117 28.1752 28.3991 26.1878 30.8336 26.1878Z" fill="#FFEF9C"/>
<path d="M35.9518 29.2349C38.1214 29.0693 40.1419 28.8871 40.8541 28.854C41.5496 28.8043 43.4046 27.645 43.4046 27.645C43.4046 27.645 48.224 29.6324 47.9094 31.6365C47.5949 33.6405 47.1641 33.7066 46.6176 34.2531C44.1665 33.7729 41.4172 32.9282 41.4172 32.9282C41.4172 32.9282 36.7965 33.0109 35.4882 32.4148C33.6333 31.7689 33.7824 29.4171 35.9519 29.2514V29.2349H35.9518Z" fill="white"/>
<path d="M59.353 23.5376L60.1646 36.3895L63.5598 36.1741L62.7482 23.3223L59.353 23.5376Z" fill="white"/>
<path d="M59.353 23.5376L60.1646 36.3895L63.5598 36.1741L62.7482 23.3223L59.353 23.5376Z" fill="url(#paint8_linear)"/>
<path d="M62.1518 21.9976L63.1455 37.5492L70.4656 37.4331C70.4656 37.2343 70.4656 37.0356 70.4656 36.8368C70.4656 31.3715 69.2236 26.2043 67.0209 21.5669L62.1353 21.9809L62.1518 21.9976Z" fill="#79A83D"/>
<path d="M62.1518 21.9976L63.1455 37.5492L70.4656 37.4331C70.4656 37.2343 70.4656 37.0356 70.4656 36.8368C70.4656 31.3715 69.2236 26.2043 67.0209 21.5669L62.1353 21.9809L62.1518 21.9976Z" fill="url(#paint9_linear)"/>
<path d="M34.5433 31.0902L36.895 31.0239V32.4482C36.895 32.4482 34.858 32.5309 34.4771 32.2164C34.0961 31.8852 34.2618 31.2061 34.5433 31.1067V31.0902Z" fill="white"/>
<path d="M66.4587 35.4127C66.525 35.9592 66.1606 36.4561 65.6306 36.5223C65.1006 36.5886 64.6038 36.2076 64.5376 35.6611C64.4713 35.1146 64.8356 34.6177 65.3657 34.5514C65.8955 34.4852 66.3924 34.8661 66.4587 35.4127Z" fill="url(#paint10_linear)" style="mix-blend-mode:multiply"/>
</g>
<defs>
<linearGradient id="paint0_linear" x1="35" y1="0" x2="35" y2="70" gradientUnits="userSpaceOnUse">
<stop stop-color="#F1408C"/>
<stop offset="1" stop-color="#FF8A8D"/>
</linearGradient>
<linearGradient id="paint1_linear" x1="14.5" y1="57" x2="20.5" y2="48" gradientUnits="userSpaceOnUse">
<stop stop-color="#F5538C"/>
<stop offset="1" stop-color="#FF868D" stop-opacity="0"/>
</linearGradient>
<linearGradient id="paint2_linear" x1="34" y1="49" x2="34.5" y2="54.5" gradientUnits="userSpaceOnUse">
<stop stop-color="#F1408C"/>
<stop offset="0.784625" stop-color="#FF8A8D" stop-opacity="0"/>
</linearGradient>
<linearGradient id="paint3_linear" x1="32.7383" y1="50.0532" x2="32.7383" y2="52.7554" gradientUnits="userSpaceOnUse">
<stop stop-color="#F1408C"/>
<stop offset="1" stop-color="#FF8A8D"/>
</linearGradient>
<linearGradient id="paint4_linear" x1="8.5" y1="42.5" x2="13" y2="62.5" gradientUnits="userSpaceOnUse">
<stop stop-color="#32D5D5"/>
<stop offset="1" stop-color="#475ABA"/>
</linearGradient>
<linearGradient id="paint5_linear" x1="11.5" y1="40.5" x2="14.5" y2="52" gradientUnits="userSpaceOnUse">
<stop stop-color="#32D5D5"/>
<stop offset="1" stop-color="#475ABA"/>
</linearGradient>
<linearGradient id="paint6_linear" x1="11.1016" y1="56.7518" x2="13.0382" y2="56.7518" gradientUnits="userSpaceOnUse">
<stop stop-color="#32D5D5"/>
<stop offset="1" stop-color="#475ABA"/>
</linearGradient>
<linearGradient id="paint7_linear" x1="64.5" y1="32" x2="55.4181" y2="26.2083" gradientUnits="userSpaceOnUse">
<stop stop-color="#F5538C" stop-opacity="0.8"/>
<stop offset="1" stop-color="#FF868D" stop-opacity="0"/>
</linearGradient>
<linearGradient id="paint8_linear" x1="58.5698" y1="20.872" x2="61.3941" y2="31.5678" gradientUnits="userSpaceOnUse">
<stop stop-color="#32D5D5"/>
<stop offset="1" stop-color="#475ABA"/>
</linearGradient>
<linearGradient id="paint9_linear" x1="67.0285" y1="21.0319" x2="74.1236" y2="39.4937" gradientUnits="userSpaceOnUse">
<stop stop-color="#32D5D5"/>
<stop offset="1" stop-color="#475ABA"/>
</linearGradient>
<linearGradient id="paint10_linear" x1="64.5298" y1="36.5298" x2="66.4665" y2="36.5298" gradientUnits="userSpaceOnUse">
<stop stop-color="#32D5D5"/>
<stop offset="1" stop-color="#475ABA"/>
</linearGradient>
</defs>
</svg>
